{"glyphs":{"0":{"ha":682,"x_min":47,"x_max":633,"o":"m 301 0 l 301 113 q 199 220 239 122 q 163 460 163 313 l 163 517 q 241 799 167 712 q 302 836 270 831 l 302 948 q 95 783 161 943 q 47 477 47 665 q 224 18 47 98 q 301 0 260 1 m 381 0 q 587 168 522 4 q 633 477 633 286 q 464 928 633 844 q 380 948 425 947 l 380 836 q 483 728 442 827 q 519 517 519 639 l 519 460 q 408 121 519 175 q 381 113 395 115 l 381 0 z "},"1":{"ha":292,"x_min":47,"x_max":244,"o":"m 47 776 l 47 887 l 125 949 l 244 949 l 244 0 l 125 0 l 125 776 l 47 776 z "},"2":{"ha":682,"x_min":49,"x_max":636,"o":"m 49 705 q 140 888 56 814 q 292 949 208 945 l 292 840 q 209 804 250 840 q 152 685 161 761 l 49 705 m 76 0 l 76 115 l 624 115 l 624 0 l 76 0 m 76 179 q 267 439 76 324 q 316 467 285 450 q 357 491 346 484 q 479 578 452 549 q 522 675 522 624 q 412 834 522 807 q 359 840 388 840 l 359 949 q 613 802 552 949 q 635 677 635 745 q 544 486 633 563 q 473 435 515 463 q 414 403 456 425 q 248 288 290 336 q 205 179 205 237 l 76 179 z "},"3":{"ha":686,"x_min":49,"x_max":637,"o":"m 366 -3 l 366 107 q 515 197 480 111 q 526 262 526 227 q 361 418 526 406 q 328 419 345 419 l 328 528 q 526 684 525 529 q 426 830 526 798 q 366 840 397 838 l 366 949 q 582 856 505 949 q 637 686 637 785 q 537 473 636 540 q 637 260 637 404 q 521 39 637 111 q 366 -3 453 -3 m 49 240 l 152 260 q 262 113 167 144 q 292 107 279 107 l 292 -3 q 99 103 172 3 q 49 240 53 167 m 49 705 q 140 888 56 814 q 292 949 208 945 l 292 840 q 164 738 198 827 q 152 685 156 712 l 49 705 z "},"4":{"ha":673,"x_min":34,"x_max":625,"o":"m 34 195 l 34 305 l 365 868 l 365 658 l 157 305 l 365 305 l 365 195 l 34 195 m 433 0 l 433 951 l 552 951 l 552 305 l 625 305 l 625 195 l 552 195 l 552 0 l 433 0 z "},"5":{"ha":705,"x_min":49,"x_max":658,"o":"m 57 480 l 96 949 l 581 949 l 581 840 l 199 838 l 178 568 q 305 606 237 606 l 305 500 q 159 419 213 496 l 57 480 m 372 0 l 372 107 q 506 180 453 114 q 548 304 548 233 q 448 479 548 427 q 372 500 410 499 l 372 606 q 617 468 543 605 q 658 302 658 393 q 537 54 658 140 q 372 0 463 3 m 49 189 l 151 220 q 289 111 184 125 q 302 110 296 110 l 302 0 q 107 84 187 0 q 49 189 62 133 z "},"6":{"ha":705,"x_min":47,"x_max":658,"o":"m 326 -1 l 326 109 q 191 217 229 114 q 179 286 179 254 q 250 441 179 391 q 326 467 283 464 l 326 576 q 171 506 222 576 q 163 495 165 500 q 294 829 163 780 q 326 837 309 834 l 326 947 q 64 663 119 936 q 47 479 47 578 q 179 45 47 144 q 326 -1 239 1 m 399 -1 q 591 94 515 0 q 658 288 658 176 q 557 525 658 445 q 399 576 492 576 l 399 468 q 524 384 483 460 q 545 286 545 340 q 488 148 545 203 q 399 109 449 113 l 399 -1 m 532 743 l 624 806 q 479 935 576 901 q 399 948 439 948 l 399 838 q 517 772 473 838 q 532 743 526 757 z "},"7":{"ha":602,"x_min":47,"x_max":589,"o":"m 589 838 l 47 838 l 47 949 l 589 949 l 589 838 m 250 0 q 385 614 266 311 q 457 772 419 700 l 579 772 q 378 107 422 473 q 369 0 372 52 l 250 0 z "},"8":{"ha":686,"x_min":47,"x_max":639,"o":"m 305 -1 q 110 94 187 -1 q 47 267 47 170 q 149 473 49 412 q 50 655 60 533 q 50 675 50 666 q 141 880 50 798 q 308 948 216 948 l 308 838 q 175 742 212 831 q 163 674 163 709 q 235 545 163 583 q 307 528 267 530 l 307 419 q 168 330 198 411 q 159 274 159 304 q 247 123 159 164 q 305 109 274 111 l 305 -1 m 381 -1 l 381 109 q 513 195 476 117 q 529 274 529 231 q 425 411 529 381 q 381 419 403 418 l 381 528 q 515 620 486 533 q 525 674 525 647 q 463 808 525 761 q 380 838 426 834 l 380 948 q 570 856 491 948 q 636 675 636 776 q 547 480 636 547 q 537 473 541 476 q 639 267 637 412 q 547 62 639 144 q 381 -1 473 -1 z "},"9":{"ha":704,"x_min":47,"x_max":655,"o":"m 376 1 q 639 274 583 0 q 655 463 655 359 q 519 907 655 811 q 376 949 460 949 l 376 838 q 506 741 465 833 q 524 663 524 701 q 426 494 524 529 q 376 483 401 484 l 376 372 q 444 382 412 372 q 490 401 476 392 q 522 429 503 411 l 541 446 q 444 137 541 212 q 376 111 412 114 l 376 1 m 311 372 l 311 483 q 171 585 206 490 q 159 659 159 618 q 214 795 159 739 q 311 838 255 833 l 311 949 q 117 856 195 948 q 47 659 47 773 q 159 414 47 490 q 311 372 222 372 m 75 151 q 243 9 132 39 q 311 0 277 0 l 311 111 q 186 179 235 113 q 167 210 174 194 l 75 151 z "},"A":{"ha":646,"x_min":42,"x_max":612,"o":"m 42 0 l 222 802 l 244 802 l 290 591 l 159 0 l 42 0 m 259 152 l 285 267 l 430 267 l 279 948 l 397 948 l 612 0 l 494 0 l 460 152 l 259 152 z "},"Æ":{"ha":986,"x_min":75,"x_max":951,"o":"m 75 0 l 319 949 l 951 949 l 951 833 l 612 833 l 612 530 l 823 530 l 823 414 l 612 414 l 612 117 l 951 117 l 951 0 l 494 0 l 494 229 l 330 229 l 355 335 l 494 335 l 494 833 l 415 833 l 206 0 l 75 0 z "},"Á":{"ha":646,"x_min":42,"x_max":612,"o":"m 301 1039 l 351 1245 l 461 1245 l 380 1039 l 301 1039 m 42 0 l 222 802 l 244 802 l 290 591 l 159 0 l 42 0 m 259 152 l 285 267 l 430 267 l 279 948 l 397 948 l 612 0 l 494 0 l 460 152 l 259 152 z "},"Ă":{"ha":646,"x_min":42,"x_max":612,"o":"m 233 1145 l 297 1145 q 327 1103 297 1112 q 340 1101 335 1101 q 382 1131 373 1101 q 384 1145 384 1139 l 448 1145 q 400 1058 448 1090 q 340 1039 373 1039 q 247 1096 278 1039 q 233 1145 233 1120 m 42 0 l 222 802 l 244 802 l 290 591 l 159 0 l 42 0 m 259 152 l 285 267 l 430 267 l 279 948 l 397 948 l 612 0 l 494 0 l 460 152 l 259 152 z "},"Â":{"ha":646,"x_min":42,"x_max":612,"o":"m 205 1039 l 307 1245 l 372 1245 l 475 1039 l 397 1039 l 339 1157 l 282 1039 l 205 1039 m 42 0 l 222 802 l 244 802 l 290 591 l 159 0 l 42 0 m 259 152 l 285 267 l 430 267 l 279 948 l 397 948 l 612 0 l 494 0 l 460 152 l 259 152 z "},"Ä":{"ha":646,"x_min":42,"x_max":612,"o":"m 182 1107 q 222 1169 182 1150 q 250 1175 236 1175 q 312 1134 294 1175 q 317 1107 317 1120 q 277 1044 317 1062 q 250 1039 263 1039 q 187 1080 205 1039 q 182 1107 182 1093 m 362 1107 q 401 1168 362 1149 q 431 1175 416 1175 q 492 1134 475 1175 q 498 1107 498 1120 q 458 1044 498 1062 q 431 1039 445 1039 q 368 1080 385 1039 q 362 1107 362 1093 m 42 0 l 222 802 l 244 802 l 290 591 l 159 0 l 42 0 m 259 152 l 285 267 l 430 267 l 279 948 l 397 948 l 612 0 l 494 0 l 460 152 l 259 152 z "},"À":{"ha":646,"x_min":42,"x_max":612,"o":"m 214 1245 l 324 1245 l 374 1039 l 296 1039 l 214 1245 m 42 0 l 222 802 l 244 802 l 290 591 l 159 0 l 42 0 m 259 152 l 285 267 l 430 267 l 279 948 l 397 948 l 612 0 l 494 0 l 460 152 l 259 152 z "},"Ā":{"ha":646,"x_min":42,"x_max":612,"o":"m 126 1039 l 126 1112 l 555 1112 l 555 1039 l 126 1039 m 42 0 l 222 802 l 244 802 l 290 591 l 159 0 l 42 0 m 259 152 l 285 267 l 430 267 l 279 948 l 397 948 l 612 0 l 494 0 l 460 152 l 259 152 z "},"Ą":{"ha":646,"x_min":42,"x_max":724,"o":"m 724 -251 q 533 -141 583 -251 q 515 -54 515 -99 l 604 -54 q 678 -159 604 -136 q 724 -165 701 -165 l 724 -251 m 42 0 l 222 802 l 244 802 l 290 591 l 159 0 l 42 0 m 259 152 l 285 267 l 430 267 l 279 948 l 397 948 l 612 0 l 494 0 l 460 152 l 259 152 z "},"Å":{"ha":700,"x_min":69,"x_max":631,"o":"m 69 0 l 251 802 l 273 802 l 317 591 l 187 0 l 69 0 m 288 152 l 312 267 l 457 267 l 309 944 q 252 1024 259 968 q 251 1038 251 1031 q 307 1134 251 1101 q 363 1150 332 1150 q 463 1095 430 1150 q 477 1038 477 1067 q 426 945 476 977 l 631 0 l 515 0 l 481 152 l 288 152 m 316 1038 q 349 993 316 1004 q 363 990 355 990 q 411 1024 401 990 q 412 1038 412 1032 q 380 1084 412 1074 q 363 1086 370 1086 q 319 1055 331 1086 q 316 1038 316 1046 z "},"Ã":{"ha":646,"x_min":42,"x_max":612,"o":"m 149 1053 l 149 1146 q 244 1176 202 1176 q 340 1145 278 1176 q 422 1120 388 1120 q 530 1158 469 1122 l 530 1066 q 416 1028 468 1028 q 316 1059 380 1028 q 239 1082 270 1082 q 149 1053 197 1081 m 42 0 l 222 802 l 244 802 l 290 591 l 159 0 l 42 0 m 259 152 l 285 267 l 430 267 l 279 948 l 397 948 l 612 0 l 494 0 l 460 152 l 259 152 z "},"B":{"ha":680,"x_min":47,"x_max":631,"o":"m 47 0 l 165 0 l 165 949 l 47 949 l 47 0 m 233 -1 l 346 -1 q 583 114 505 -1 q 631 273 631 184 q 534 476 629 403 q 625 642 612 533 q 628 678 628 661 q 540 883 628 806 q 343 949 464 949 l 233 949 l 233 844 l 330 844 q 491 750 445 844 q 510 671 510 712 q 397 533 510 553 q 354 529 377 529 l 233 529 l 233 423 l 354 423 q 507 323 481 423 q 513 279 513 302 q 435 136 513 184 q 305 104 382 104 l 233 104 l 233 -1 z "},"C":{"ha":686,"x_min":53,"x_max":644,"o":"m 53 245 q 111 92 53 167 q 323 -7 190 -5 l 323 110 q 187 193 229 110 q 172 245 172 222 l 172 703 q 213 793 172 750 q 323 840 258 838 l 323 956 q 92 829 168 958 q 53 703 53 762 l 53 245 m 389 -7 q 575 76 498 -7 q 644 247 644 151 l 532 274 q 530 252 532 259 q 522 206 528 221 q 477 142 510 167 q 416 114 444 118 l 389 110 l 389 -7 m 389 840 q 429 830 389 840 q 522 735 496 802 q 530 692 528 719 l 530 670 l 644 700 q 559 884 644 803 q 389 956 480 956 l 389 840 z "},"Ć":{"ha":686,"x_min":53,"x_max":644,"o":"m 336 1039 l 387 1245 l 496 1245 l 415 1039 l 336 1039 m 53 245 q 111 92 53 167 q 323 -7 190 -5 l 323 110 q 187 193 229 110 q 172 245 172 222 l 172 703 q 213 793 172 750 q 323 840 258 838 l 323 956 q 92 829 168 958 q 53 703 53 762 l 53 245 m 389 -7 q 575 76 498 -7 q 644 247 644 151 l 532 274 q 530 252 532 259 q 522 206 528 221 q 477 142 510 167 q 416 114 444 118 l 389 110 l 389 -7 m 389 840 q 429 830 389 840 q 522 735 496 802 q 530 692 528 719 l 530 670 l 644 700 q 559 884 644 803 q 389 956 480 956 l 389 840 z "},"Č":{"ha":686,"x_min":53,"x_max":644,"o":"m 220 1245 l 297 1245 l 355 1127 l 412 1245 l 490 1245 l 388 1039 l 323 1039 l 220 1245 m 53 245 q 111 92 53 167 q 323 -7 190 -5 l 323 110 q 187 193 229 110 q 172 245 172 222 l 172 703 q 213 793 172 750 q 323 840 258 838 l 323 956 q 92 829 168 958 q 53 703 53 762 l 53 245 m 389 -7 q 575 76 498 -7 q 644 247 644 151 l 532 274 q 530 252 532 259 q 522 206 528 221 q 477 142 510 167 q 416 114 444 118 l 389 110 l 389 -7 m 389 840 q 429 830 389 840 q 522 735 496 802 q 530 692 528 719 l 530 670 l 644 700 q 559 884 644 803 q 389 956 480 956 l 389 840 z "},"Ç":{"ha":686,"x_min":53,"x_max":644,"o":"m 190 -252 l 190 -167 q 300 -106 271 -167 q 311 -56 311 -83 l 399 -56 q 326 -212 399 -156 q 190 -252 271 -252 m 53 245 q 111 92 53 167 q 323 -7 190 -5 l 323 110 q 187 193 229 110 q 172 245 172 222 l 172 703 q 213 793 172 750 q 323 840 258 838 l 323 956 q 92 829 168 958 q 53 703 53 762 l 53 245 m 389 -7 q 575 76 498 -7 q 644 247 644 151 l 532 274 q 530 252 532 259 q 522 206 528 221 q 477 142 510 167 q 416 114 444 118 l 389 110 l 389 -7 m 389 840 q 429 830 389 840 q 522 735 496 802 q 530 692 528 719 l 530 670 l 644 700 q 559 884 644 803 q 389 956 480 956 l 389 840 z "},"D":{"ha":640,"x_min":56,"x_max":587,"o":"m 56 0 l 56 949 l 174 949 l 174 0 l 56 0 m 241 0 l 241 117 q 427 160 380 117 q 468 267 468 198 l 468 682 q 331 826 468 802 q 241 833 293 833 l 241 949 q 557 808 483 949 q 587 682 587 754 l 587 267 q 277 0 587 12 q 241 0 259 0 z "},"Ď":{"ha":640,"x_min":56,"x_max":587,"o":"m 187 1245 l 264 1245 l 323 1127 l 380 1245 l 457 1245 l 355 1039 l 290 1039 l 187 1245 m 56 0 l 56 949 l 174 949 l 174 0 l 56 0 m 241 0 l 241 117 q 427 160 380 117 q 468 267 468 198 l 468 682 q 331 826 468 802 q 241 833 293 833 l 241 949 q 557 808 483 949 q 587 682 587 754 l 587 267 q 277 0 587 12 q 241 0 259 0 z "},"Đ":{"ha":644,"x_min":35,"x_max":643,"o":"m 35 427 l 35 536 l 111 536 l 111 949 l 231 949 l 231 536 l 307 536 l 307 427 l 231 427 l 231 0 l 111 0 l 111 427 l 35 427 m 297 0 l 297 117 q 484 159 435 117 q 525 267 525 197 l 525 682 q 389 826 525 802 q 297 833 350 833 l 297 949 q 616 804 543 949 q 643 682 643 750 l 643 267 q 332 0 643 12 q 297 0 315 0 z "},"E":{"ha":602,"x_min":56,"x_max":549,"o":"m 56 0 l 56 949 l 549 949 l 549 833 l 174 833 l 174 532 l 422 532 l 422 414 l 174 414 l 174 117 l 549 117 l 549 0 l 56 0 z "},"É":{"ha":602,"x_min":56,"x_max":549,"o":"m 327 1039 l 377 1245 l 487 1245 l 406 1039 l 327 1039 m 56 0 l 56 949 l 549 949 l 549 833 l 174 833 l 174 532 l 422 532 l 422 414 l 174 414 l 174 117 l 549 117 l 549 0 l 56 0 z "},"Ě":{"ha":602,"x_min":56,"x_max":549,"o":"m 168 1245 l 245 1245 l 304 1127 l 361 1245 l 438 1245 l 336 1039 l 271 1039 l 168 1245 m 56 0 l 56 949 l 549 949 l 549 833 l 174 833 l 174 532 l 422 532 l 422 414 l 174 414 l 174 117 l 549 117 l 549 0 l 56 0 z "},"Ê":{"ha":602,"x_min":56,"x_max":549,"o":"m 168 1039 l 270 1245 l 335 1245 l 438 1039 l 361 1039 l 302 1157 l 245 1039 l 168 1039 m 56 0 l 56 949 l 549 949 l 549 833 l 174 833 l 174 532 l 422 532 l 422 414 l 174 414 l 174 117 l 549 117 l 549 0 l 56 0 z "},"Ë":{"ha":602,"x_min":56,"x_max":549,"o":"m 145 1107 q 186 1169 145 1150 q 213 1175 198 1175 q 275 1134 258 1175 q 281 1107 281 1120 q 240 1044 281 1062 q 213 1039 227 1039 q 151 1080 168 1039 q 145 1107 145 1093 m 326 1107 q 365 1168 326 1149 q 395 1175 380 1175 q 456 1134 438 1175 q 461 1107 461 1120 q 422 1044 461 1062 q 395 1039 408 1039 q 331 1080 349 1039 q 326 1107 326 1093 m 56 0 l 56 949 l 549 949 l 549 833 l 174 833 l 174 532 l 422 532 l 422 414 l 174 414 l 174 117 l 549 117 l 549 0 l 56 0 z "},"Ė":{"ha":602,"x_min":56,"x_max":549,"o":"m 235 1108 q 277 1173 235 1156 q 304 1179 290 1179 q 368 1135 350 1179 q 373 1108 373 1123 q 332 1044 373 1062 q 304 1039 317 1039 q 240 1080 258 1039 q 235 1108 235 1095 m 56 0 l 56 949 l 549 949 l 549 833 l 174 833 l 174 532 l 422 532 l 422 414 l 174 414 l 174 117 l 549 117 l 549 0 l 56 0 z "},"È":{"ha":602,"x_min":56,"x_max":549,"o":"m 178 1245 l 288 1245 l 338 1039 l 259 1039 l 178 1245 m 56 0 l 56 949 l 549 949 l 549 833 l 174 833 l 174 532 l 422 532 l 422 414 l 174 414 l 174 117 l 549 117 l 549 0 l 56 0 z "},"Ē":{"ha":602,"x_min":56,"x_max":549,"o":"m 90 1039 l 90 1112 l 518 1112 l 518 1039 l 90 1039 m 56 0 l 56 949 l 549 949 l 549 833 l 174 833 l 174 532 l 422 532 l 422 414 l 174 414 l 174 117 l 549 117 l 549 0 l 56 0 z "},"Ę":{"ha":602,"x_min":56,"x_max":567,"o":"m 567 -251 l 567 -165 q 457 -104 486 -165 q 446 -54 446 -81 l 358 -54 q 431 -210 358 -155 q 567 -251 486 -251 m 56 0 l 56 949 l 549 949 l 549 833 l 174 833 l 174 532 l 422 532 l 422 414 l 174 414 l 174 117 l 549 117 l 549 0 l 56 0 z "},"Ð":{"ha":644,"x_min":35,"x_max":643,"o":"m 35 427 l 35 536 l 111 536 l 111 949 l 231 949 l 231 536 l 307 536 l 307 427 l 231 427 l 231 0 l 111 0 l 111 427 l 35 427 m 297 0 l 297 117 q 484 159 435 117 q 525 267 525 197 l 525 682 q 389 826 525 802 q 297 833 350 833 l 297 949 q 616 804 543 949 q 643 682 643 750 l 643 267 q 332 0 643 12 q 297 0 315 0 z "},"€":{"ha":716,"x_min":69,"x_max":707,"o":"m 69 368 l 69 430 l 127 430 l 127 511 l 69 511 l 69 574 l 127 574 l 127 689 q 199 868 127 789 q 385 952 275 951 l 385 836 q 256 755 294 836 q 243 696 243 726 l 243 574 l 555 574 l 555 511 l 243 511 l 243 430 l 555 430 l 555 368 l 243 368 l 243 259 q 300 141 243 183 q 385 114 336 114 l 385 -3 q 170 118 244 1 q 127 245 130 180 l 127 368 l 69 368 m 456 -3 l 456 114 q 560 167 519 118 q 590 227 582 193 q 591 232 590 229 q 592 238 591 235 q 593 245 593 241 q 593 254 593 250 q 594 261 594 258 q 595 269 594 264 q 595 275 595 273 q 595 281 595 278 q 595 285 595 283 l 595 288 l 707 250 q 620 66 707 146 q 456 -3 544 -1 m 456 836 l 456 952 q 650 857 574 951 q 707 699 707 787 l 594 659 q 590 722 594 709 q 477 833 563 814 q 456 836 465 836 z "},"F":{"ha":594,"x_min":56,"x_max":549,"o":"m 56 1 l 56 949 l 549 949 l 549 833 l 174 833 l 174 532 l 422 532 l 422 414 l 174 414 l 174 1 l 56 1 z "},"G":{"ha":693,"x_min":53,"x_max":643,"o":"m 53 260 l 53 711 q 122 868 58 793 q 321 956 202 956 l 321 840 q 197 769 240 838 q 172 689 172 730 l 172 260 q 267 125 172 168 q 321 110 300 110 l 321 -7 q 161 50 240 -7 q 53 260 54 129 m 388 -7 l 388 110 q 476 156 429 110 q 524 258 522 203 l 524 369 l 388 369 l 388 479 l 643 479 l 643 239 q 559 75 643 156 q 388 -7 473 -5 m 388 840 l 388 956 q 572 869 491 958 q 643 700 643 791 l 528 658 q 528 662 528 659 q 528 668 528 665 q 527 675 528 671 q 526 684 526 680 q 526 690 526 688 l 526 693 q 437 827 519 788 q 388 840 411 838 z "},"Ğ":{"ha":693,"x_min":53,"x_max":643,"o":"m 247 1145 l 311 1145 q 340 1103 311 1112 q 354 1101 349 1101 q 396 1131 387 1101 q 397 1145 397 1139 l 461 1145 q 414 1058 461 1090 q 354 1039 387 1039 q 260 1096 292 1039 q 247 1145 247 1120 m 53 260 l 53 711 q 122 868 58 793 q 321 956 202 956 l 321 840 q 197 769 240 838 q 172 689 172 730 l 172 260 q 267 125 172 168 q 321 110 300 110 l 321 -7 q 161 50 240 -7 q 53 260 54 129 m 388 -7 l 388 110 q 476 156 429 110 q 524 258 522 203 l 524 369 l 388 369 l 388 479 l 643 479 l 643 239 q 559 75 643 156 q 388 -7 473 -5 m 388 840 l 388 956 q 572 869 491 958 q 643 700 643 791 l 528 658 q 528 662 528 659 q 528 668 528 665 q 527 675 528 671 q 526 684 526 680 q 526 690 526 688 l 526 693 q 437 827 519 788 q 388 840 411 838 z "},"H":{"ha":656,"x_min":54,"x_max":602,"o":"m 54 0 l 54 949 l 172 949 l 172 536 l 294 536 l 294 420 l 172 420 l 172 0 l 54 0 m 362 420 l 362 536 l 483 536 l 483 949 l 602 949 l 602 0 l 483 0 l 483 420 l 362 420 z "},"I":{"ha":232,"x_min":57,"x_max":175,"o":"m 57 0 l 57 949 l 175 949 l 175 0 l 57 0 z "},"Í":{"ha":232,"x_min":57,"x_max":237,"o":"m 77 1039 l 127 1245 l 237 1245 l 156 1039 l 77 1039 m 57 0 l 57 949 l 175 949 l 175 0 l 57 0 z "},"Î":{"ha":232,"x_min":-19,"x_max":251,"o":"m -19 1039 l 83 1245 l 148 1245 l 251 1039 l 174 1039 l 115 1157 l 58 1039 l -19 1039 m 57 0 l 57 949 l 175 949 l 175 0 l 57 0 z "},"Ï":{"ha":232,"x_min":-42,"x_max":274,"o":"m -42 1107 q -1 1169 -42 1150 q 26 1175 11 1175 q 88 1134 71 1175 q 94 1107 94 1120 q 53 1044 94 1062 q 26 1039 39 1039 q -37 1080 -19 1039 q -42 1107 -42 1093 m 138 1107 q 178 1168 138 1149 q 208 1175 193 1175 q 269 1134 251 1175 q 274 1107 274 1120 q 235 1044 274 1062 q 208 1039 221 1039 q 144 1080 161 1039 q 138 1107 138 1093 m 57 0 l 57 949 l 175 949 l 175 0 l 57 0 z "},"İ":{"ha":232,"x_min":47,"x_max":186,"o":"m 47 1108 q 90 1173 47 1156 q 117 1179 103 1179 q 180 1135 163 1179 q 186 1108 186 1122 q 145 1044 186 1062 q 117 1039 130 1039 q 53 1080 71 1039 q 47 1108 47 1095 m 57 0 l 57 949 l 175 949 l 175 0 l 57 0 z "},"Ì":{"ha":232,"x_min":-5,"x_max":175,"o":"m -5 1245 l 104 1245 l 155 1039 l 76 1039 l -5 1245 m 57 0 l 57 949 l 175 949 l 175 0 l 57 0 z "},"Ī":{"ha":232,"x_min":-98,"x_max":331,"o":"m -98 1039 l -98 1112 l 331 1112 l 331 1039 l -98 1039 m 57 0 l 57 949 l 175 949 l 175 0 l 57 0 z "},"Į":{"ha":232,"x_min":57,"x_max":281,"o":"m 281 -250 q 90 -140 140 -250 q 72 -53 72 -98 l 160 -53 q 235 -157 160 -134 q 281 -164 258 -164 l 281 -250 m 57 0 l 57 949 l 175 949 l 175 0 l 57 0 z "},"J":{"ha":666,"x_min":24,"x_max":617,"o":"m 24 262 l 24 328 l 142 328 l 142 267 q 227 127 144 172 q 281 111 256 111 l 281 -7 q 130 50 206 -7 q 24 262 26 132 m 349 -7 l 349 111 q 438 148 389 111 q 499 262 498 194 l 499 949 l 617 949 l 617 262 q 481 34 617 111 q 349 -7 411 -7 z "},"K":{"ha":665,"x_min":56,"x_max":640,"o":"m 56 0 l 56 949 l 174 949 l 174 0 l 56 0 m 232 463 l 510 949 l 635 949 l 357 463 l 640 0 l 517 0 l 232 463 z "},"L":{"ha":590,"x_min":56,"x_max":566,"o":"m 56 0 l 56 949 l 174 949 l 174 117 l 566 117 l 566 0 l 56 0 z "},"Ĺ":{"ha":590,"x_min":56,"x_max":566,"o":"m 77 1039 l 127 1245 l 237 1245 l 156 1039 l 77 1039 m 56 0 l 56 949 l 174 949 l 174 117 l 566 117 l 566 0 l 56 0 z "},"Ľ":{"ha":590,"x_min":56,"x_max":566,"o":"m 277 750 l 327 956 l 437 956 l 387 750 l 277 750 m 56 0 l 56 949 l 174 949 l 174 117 l 566 117 l 566 0 l 56 0 z "},"Ł":{"ha":646,"x_min":53,"x_max":685,"o":"m 53 388 l 175 481 l 175 949 l 293 949 l 293 574 l 392 650 l 456 568 l 293 442 l 293 115 l 685 115 l 685 0 l 175 0 l 175 350 l 117 305 l 53 388 z "},"M":{"ha":944,"x_min":57,"x_max":887,"o":"m 57 0 l 57 678 l 69 678 l 175 420 l 175 0 l 57 0 m 57 875 l 57 949 l 153 949 l 465 194 l 688 697 l 701 697 l 701 434 l 510 0 l 420 0 l 57 875 m 769 0 l 769 949 l 887 949 l 887 0 l 769 0 z "},"N":{"ha":718,"x_min":57,"x_max":661,"o":"m 57 0 l 57 742 l 68 742 l 175 568 l 175 0 l 57 0 m 57 873 l 57 949 l 159 949 l 661 145 l 661 0 l 602 0 l 57 873 m 543 453 l 543 949 l 661 949 l 661 279 l 650 279 l 543 453 z "},"Ń":{"ha":718,"x_min":57,"x_max":661,"o":"m 320 1039 l 370 1245 l 480 1245 l 399 1039 l 320 1039 m 57 0 l 57 742 l 68 742 l 175 568 l 175 0 l 57 0 m 57 873 l 57 949 l 159 949 l 661 145 l 661 0 l 602 0 l 57 873 m 543 453 l 543 949 l 661 949 l 661 279 l 650 279 l 543 453 z "},"Ň":{"ha":718,"x_min":57,"x_max":661,"o":"m 224 1245 l 301 1245 l 359 1127 l 416 1245 l 494 1245 l 392 1039 l 327 1039 l 224 1245 m 57 0 l 57 742 l 68 742 l 175 568 l 175 0 l 57 0 m 57 873 l 57 949 l 159 949 l 661 145 l 661 0 l 602 0 l 57 873 m 543 453 l 543 949 l 661 949 l 661 279 l 650 279 l 543 453 z "},"Ñ":{"ha":718,"x_min":57,"x_max":661,"o":"m 168 1063 l 168 1157 q 263 1187 221 1187 q 359 1156 297 1187 q 441 1131 407 1131 q 549 1169 488 1133 l 549 1077 q 435 1039 487 1039 q 335 1070 399 1039 q 258 1093 289 1093 q 168 1063 216 1092 m 57 0 l 57 742 l 68 742 l 175 568 l 175 0 l 57 0 m 57 873 l 57 949 l 159 949 l 661 145 l 661 0 l 602 0 l 57 873 m 543 453 l 543 949 l 661 949 l 661 279 l 650 279 l 543 453 z "},"O":{"ha":713,"x_min":53,"x_max":661,"o":"m 53 264 l 53 711 q 114 857 53 783 q 320 956 195 955 l 320 838 q 191 754 237 838 q 172 689 172 718 l 172 264 q 256 132 172 179 q 319 111 292 111 l 319 -7 q 164 49 241 -7 q 53 264 54 130 m 393 -7 l 393 111 q 490 153 441 111 q 543 264 541 199 l 543 689 q 499 791 543 742 q 393 838 454 837 l 393 956 q 613 838 530 956 q 661 711 661 770 l 661 264 q 526 34 661 114 q 393 -7 456 -7 z "},"Œ":{"ha":765,"x_min":-3,"x_max":947,"o":"m -3 269 l -3 693 q 233 943 -3 907 q 328 949 277 949 l 328 833 q 136 765 176 831 q 115 682 115 732 l 115 269 q 227 125 115 148 q 327 118 264 118 l 327 0 q 16 152 75 0 q -3 269 -3 203 m 395 0 l 395 118 l 453 118 l 453 833 l 395 833 l 395 949 l 947 949 l 947 833 l 571 833 l 571 532 l 819 532 l 819 414 l 571 414 l 571 117 l 947 117 l 947 0 l 395 0 z "},"Ó":{"ha":713,"x_min":53,"x_max":661,"o":"m 316 1039 l 366 1245 l 476 1245 l 395 1039 l 316 1039 m 53 264 l 53 711 q 114 857 53 783 q 320 956 195 955 l 320 838 q 191 754 237 838 q 172 689 172 718 l 172 264 q 256 132 172 179 q 319 111 292 111 l 319 -7 q 164 49 241 -7 q 53 264 54 130 m 393 -7 l 393 111 q 490 153 441 111 q 543 264 541 199 l 543 689 q 499 791 543 742 q 393 838 454 837 l 393 956 q 613 838 530 956 q 661 711 661 770 l 661 264 q 526 34 661 114 q 393 -7 456 -7 z "},"Ô":{"ha":713,"x_min":53,"x_max":661,"o":"m 220 1039 l 321 1245 l 387 1245 l 490 1039 l 412 1039 l 354 1157 l 297 1039 l 220 1039 m 53 264 l 53 711 q 114 857 53 783 q 320 956 195 955 l 320 838 q 191 754 237 838 q 172 689 172 718 l 172 264 q 256 132 172 179 q 319 111 292 111 l 319 -7 q 164 49 241 -7 q 53 264 54 130 m 393 -7 l 393 111 q 490 153 441 111 q 543 264 541 199 l 543 689 q 499 791 543 742 q 393 838 454 837 l 393 956 q 613 838 530 956 q 661 711 661 770 l 661 264 q 526 34 661 114 q 393 -7 456 -7 z "},"Ö":{"ha":713,"x_min":53,"x_max":661,"o":"m 197 1107 q 237 1169 197 1150 q 264 1175 251 1175 q 327 1134 309 1175 q 332 1107 332 1120 q 292 1044 332 1062 q 264 1039 278 1039 q 202 1080 220 1039 q 197 1107 197 1093 m 377 1107 q 416 1168 377 1149 q 446 1175 431 1175 q 507 1134 490 1175 q 513 1107 513 1120 q 473 1044 513 1062 q 446 1039 460 1039 q 382 1080 400 1039 q 377 1107 377 1093 m 53 264 l 53 711 q 114 857 53 783 q 320 956 195 955 l 320 838 q 191 754 237 838 q 172 689 172 718 l 172 264 q 256 132 172 179 q 319 111 292 111 l 319 -7 q 164 49 241 -7 q 53 264 54 130 m 393 -7 l 393 111 q 490 153 441 111 q 543 264 541 199 l 543 689 q 499 791 543 742 q 393 838 454 837 l 393 956 q 613 838 530 956 q 661 711 661 770 l 661 264 q 526 34 661 114 q 393 -7 456 -7 z "},"Ò":{"ha":713,"x_min":53,"x_max":661,"o":"m 229 1245 l 339 1245 l 389 1039 l 311 1039 l 229 1245 m 53 264 l 53 711 q 114 857 53 783 q 320 956 195 955 l 320 838 q 191 754 237 838 q 172 689 172 718 l 172 264 q 256 132 172 179 q 319 111 292 111 l 319 -7 q 164 49 241 -7 q 53 264 54 130 m 393 -7 l 393 111 q 490 153 441 111 q 543 264 541 199 l 543 689 q 499 791 543 742 q 393 838 454 837 l 393 956 q 613 838 530 956 q 661 711 661 770 l 661 264 q 526 34 661 114 q 393 -7 456 -7 z "},"Ő":{"ha":713,"x_min":53,"x_max":661,"o":"m 407 1039 l 457 1245 l 567 1245 l 486 1039 l 407 1039 m 241 1039 l 292 1245 l 401 1245 l 320 1039 l 241 1039 m 53 264 l 53 711 q 114 857 53 783 q 320 956 195 955 l 320 838 q 191 754 237 838 q 172 689 172 718 l 172 264 q 256 132 172 179 q 319 111 292 111 l 319 -7 q 164 49 241 -7 q 53 264 54 130 m 393 -7 l 393 111 q 490 153 441 111 q 543 264 541 199 l 543 689 q 499 791 543 742 q 393 838 454 837 l 393 956 q 613 838 530 956 q 661 711 661 770 l 661 264 q 526 34 661 114 q 393 -7 456 -7 z "},"Ō":{"ha":713,"x_min":53,"x_max":661,"o":"m 141 1039 l 141 1112 l 570 1112 l 570 1039 l 141 1039 m 53 264 l 53 711 q 114 857 53 783 q 320 956 195 955 l 320 838 q 191 754 237 838 q 172 689 172 718 l 172 264 q 256 132 172 179 q 319 111 292 111 l 319 -7 q 164 49 241 -7 q 53 264 54 130 m 393 -7 l 393 111 q 490 153 441 111 q 543 264 541 199 l 543 689 q 499 791 543 742 q 393 838 454 837 l 393 956 q 613 838 530 956 q 661 711 661 770 l 661 264 q 526 34 661 114 q 393 -7 456 -7 z "},"Ø":{"ha":906,"x_min":18,"x_max":879,"o":"m 18 156 l 146 273 l 146 711 q 208 857 146 783 q 414 956 289 955 l 414 838 q 283 754 328 838 q 264 685 264 718 l 264 380 l 632 709 q 555 822 616 788 q 487 838 524 838 l 487 956 q 708 836 627 956 q 730 796 720 815 l 811 871 l 879 795 l 754 682 l 754 264 q 620 34 754 114 q 487 -7 549 -7 l 487 111 q 583 153 534 111 q 636 264 635 199 l 636 575 l 267 244 q 361 126 279 165 q 412 111 391 111 l 412 -7 q 258 50 336 -7 q 170 156 198 94 l 87 80 l 18 156 z "},"Õ":{"ha":713,"x_min":53,"x_max":661,"o":"m 164 1062 l 164 1156 q 259 1185 217 1185 q 355 1154 293 1185 q 437 1130 403 1130 q 545 1168 484 1131 l 545 1076 q 431 1038 483 1038 q 331 1069 395 1038 q 254 1092 285 1092 q 164 1062 212 1090 m 53 264 l 53 711 q 114 857 53 783 q 320 956 195 955 l 320 838 q 191 754 237 838 q 172 689 172 718 l 172 264 q 256 132 172 179 q 319 111 292 111 l 319 -7 q 164 49 241 -7 q 53 264 54 130 m 393 -7 l 393 111 q 490 153 441 111 q 543 264 541 199 l 543 689 q 499 791 543 742 q 393 838 454 837 l 393 956 q 613 838 530 956 q 661 711 661 770 l 661 264 q 526 34 661 114 q 393 -7 456 -7 z "},"P":{"ha":654,"x_min":57,"x_max":629,"o":"m 57 0 l 175 0 l 175 949 l 57 949 l 57 0 m 243 425 l 389 425 q 612 560 567 426 q 629 689 629 614 q 406 949 629 937 q 389 949 397 949 l 243 949 l 243 836 l 370 836 q 509 689 507 833 q 372 540 506 541 l 243 540 l 243 425 z "},"Q":{"ha":715,"x_min":53,"x_max":661,"o":"m 53 264 l 53 711 q 113 856 53 783 q 323 956 195 956 l 323 840 q 191 755 236 838 q 172 689 172 719 l 172 264 q 275 123 172 164 q 323 111 305 111 l 323 -7 q 160 52 240 -7 q 53 264 54 132 m 391 -7 l 391 111 q 469 140 423 111 q 541 264 541 184 l 541 689 q 495 793 541 745 q 391 840 452 838 l 391 956 q 613 840 530 958 q 661 711 661 770 l 661 264 q 507 31 659 115 l 585 -81 l 490 -145 l 391 -7 z "},"R":{"ha":688,"x_min":57,"x_max":652,"o":"m 57 0 l 57 949 l 175 949 l 175 0 l 57 0 m 243 411 l 243 518 l 366 518 q 511 678 510 521 q 347 841 509 840 l 243 841 l 243 949 l 369 949 q 612 785 566 943 q 625 688 625 741 q 532 467 624 530 q 627 313 610 425 q 629 294 628 304 l 652 0 l 541 0 l 521 241 q 461 391 510 358 q 373 411 429 412 l 243 411 z "},"Ŕ":{"ha":688,"x_min":57,"x_max":652,"o":"m 262 1039 l 312 1245 l 422 1245 l 340 1039 l 262 1039 m 57 0 l 57 949 l 175 949 l 175 0 l 57 0 m 243 411 l 243 518 l 366 518 q 511 678 510 521 q 347 841 509 840 l 243 841 l 243 949 l 369 949 q 612 785 566 943 q 625 688 625 741 q 532 467 624 530 q 627 313 610 425 q 629 294 628 304 l 652 0 l 541 0 l 521 241 q 461 391 510 358 q 373 411 429 412 l 243 411 z "},"Ř":{"ha":688,"x_min":57,"x_max":652,"o":"m 156 1245 l 233 1245 l 292 1127 l 349 1245 l 426 1245 l 324 1039 l 259 1039 l 156 1245 m 57 0 l 57 949 l 175 949 l 175 0 l 57 0 m 243 411 l 243 518 l 366 518 q 511 678 510 521 q 347 841 509 840 l 243 841 l 243 949 l 369 949 q 612 785 566 943 q 625 688 625 741 q 532 467 624 530 q 627 313 610 425 q 629 294 628 304 l 652 0 l 541 0 l 521 241 q 461 391 510 358 q 373 411 429 412 l 243 411 z "},"S":{"ha":667,"x_min":34,"x_max":632,"o":"m 34 214 l 142 252 q 186 159 151 195 q 255 114 222 122 l 286 106 l 286 -4 q 85 98 167 -4 q 34 214 35 161 m 45 693 q 171 913 45 840 q 286 949 233 949 l 286 838 q 197 788 239 833 q 159 692 159 746 q 278 567 159 609 q 369 541 308 557 q 458 514 433 524 q 614 377 581 464 q 632 279 632 334 q 541 75 632 161 q 354 -4 458 -4 l 354 106 q 461 159 410 109 q 514 279 513 212 q 382 418 514 374 q 296 441 354 427 q 212 465 233 456 q 64 590 96 513 q 45 693 45 635 m 354 838 l 354 949 q 551 845 472 949 q 594 750 590 792 l 484 713 q 376 834 465 808 q 354 838 354 838 z "},"Ś":{"ha":667,"x_min":34,"x_max":632,"o":"m 274 1039 l 324 1245 l 434 1245 l 353 1039 l 274 1039 m 34 214 l 142 252 q 186 159 151 195 q 255 114 222 122 l 286 106 l 286 -4 q 85 98 167 -4 q 34 214 35 161 m 45 693 q 171 913 45 840 q 286 949 233 949 l 286 838 q 197 788 239 833 q 159 692 159 746 q 278 567 159 609 q 369 541 308 557 q 458 514 433 524 q 614 377 581 464 q 632 279 632 334 q 541 75 632 161 q 354 -4 458 -4 l 354 106 q 461 159 410 109 q 514 279 513 212 q 382 418 514 374 q 296 441 354 427 q 212 465 233 456 q 64 590 96 513 q 45 693 45 635 m 354 838 l 354 949 q 551 845 472 949 q 594 750 590 792 l 484 713 q 376 834 465 808 q 354 838 354 838 z "},"Š":{"ha":667,"x_min":24,"x_max":623,"o":"m 165 1245 l 243 1245 l 301 1127 l 358 1245 l 435 1245 l 334 1039 l 269 1039 l 165 1245 m 24 214 l 133 252 q 177 159 141 195 q 244 114 213 122 l 277 106 l 277 -4 q 76 98 157 -4 q 24 214 26 161 m 35 693 q 161 913 35 840 q 277 949 224 949 l 277 838 q 187 788 229 833 q 149 692 149 746 q 269 567 149 609 q 359 541 298 557 q 449 514 423 524 q 605 377 571 464 q 623 279 623 334 q 532 75 623 161 q 345 -4 449 -4 l 345 106 q 452 159 400 109 q 505 279 503 212 q 373 418 505 374 q 286 441 345 427 q 202 465 224 456 q 54 590 87 513 q 35 693 35 635 m 345 838 l 345 949 q 541 845 463 949 q 585 750 581 792 l 475 713 q 366 834 456 808 q 345 838 345 838 z "},"T":{"ha":635,"x_min":24,"x_max":612,"o":"m 24 834 l 24 949 l 612 949 l 612 834 l 377 834 l 377 0 l 258 0 l 258 834 l 24 834 z "},"Ť":{"ha":635,"x_min":24,"x_max":612,"o":"m 179 1245 l 256 1245 l 315 1127 l 372 1245 l 449 1245 l 347 1039 l 282 1039 l 179 1245 m 24 834 l 24 949 l 612 949 l 612 834 l 377 834 l 377 0 l 258 0 l 258 834 l 24 834 z "},"Þ":{"ha":643,"x_min":72,"x_max":609,"o":"m 72 0 l 72 949 l 190 949 l 190 0 l 72 0 m 260 282 l 260 397 l 313 397 q 488 540 484 403 q 312 685 487 685 l 260 685 l 260 800 q 567 705 498 806 q 608 543 606 647 q 460 302 609 353 q 260 282 384 278 z "},"U":{"ha":705,"x_min":49,"x_max":655,"o":"m 49 262 l 49 949 l 168 949 l 168 262 q 262 127 168 172 q 319 111 296 111 l 319 -7 q 161 49 240 -7 q 49 262 50 129 m 387 -7 l 387 111 q 479 148 431 111 q 537 262 536 193 l 537 949 l 655 949 l 655 262 q 519 33 655 110 q 387 -7 450 -7 z "},"Ú":{"ha":705,"x_min":49,"x_max":655,"o":"m 308 1039 l 358 1245 l 468 1245 l 387 1039 l 308 1039 m 49 262 l 49 949 l 168 949 l 168 262 q 262 127 168 172 q 319 111 296 111 l 319 -7 q 161 49 240 -7 q 49 262 50 129 m 387 -7 l 387 111 q 479 148 431 111 q 537 262 536 193 l 537 949 l 655 949 l 655 262 q 519 33 655 110 q 387 -7 450 -7 z "},"Û":{"ha":705,"x_min":49,"x_max":655,"o":"m 212 1039 l 313 1245 l 378 1245 l 481 1039 l 404 1039 l 346 1157 l 289 1039 l 212 1039 m 49 262 l 49 949 l 168 949 l 168 262 q 262 127 168 172 q 319 111 296 111 l 319 -7 q 161 49 240 -7 q 49 262 50 129 m 387 -7 l 387 111 q 479 148 431 111 q 537 262 536 193 l 537 949 l 655 949 l 655 262 q 519 33 655 110 q 387 -7 450 -7 z "},"Ü":{"ha":705,"x_min":49,"x_max":655,"o":"m 189 1107 q 229 1169 189 1150 q 256 1175 241 1175 q 319 1134 301 1175 q 324 1107 324 1120 q 283 1044 324 1062 q 256 1039 270 1039 q 194 1080 212 1039 q 189 1107 189 1093 m 369 1107 q 408 1168 369 1149 q 438 1175 423 1175 q 499 1134 481 1175 q 505 1107 505 1120 q 465 1044 505 1062 q 438 1039 452 1039 q 374 1080 392 1039 q 369 1107 369 1093 m 49 262 l 49 949 l 168 949 l 168 262 q 262 127 168 172 q 319 111 296 111 l 319 -7 q 161 49 240 -7 q 49 262 50 129 m 387 -7 l 387 111 q 479 148 431 111 q 537 262 536 193 l 537 949 l 655 949 l 655 262 q 519 33 655 110 q 387 -7 450 -7 z "},"Ù":{"ha":705,"x_min":49,"x_max":655,"o":"m 220 1245 l 330 1245 l 380 1039 l 301 1039 l 220 1245 m 49 262 l 49 949 l 168 949 l 168 262 q 262 127 168 172 q 319 111 296 111 l 319 -7 q 161 49 240 -7 q 49 262 50 129 m 387 -7 l 387 111 q 479 148 431 111 q 537 262 536 193 l 537 949 l 655 949 l 655 262 q 519 33 655 110 q 387 -7 450 -7 z "},"Ű":{"ha":705,"x_min":49,"x_max":655,"o":"m 419 1039 l 469 1245 l 579 1245 l 498 1039 l 419 1039 m 254 1039 l 304 1245 l 414 1245 l 332 1039 l 254 1039 m 49 262 l 49 949 l 168 949 l 168 262 q 262 127 168 172 q 319 111 296 111 l 319 -7 q 161 49 240 -7 q 49 262 50 129 m 387 -7 l 387 111 q 479 148 431 111 q 537 262 536 193 l 537 949 l 655 949 l 655 262 q 519 33 655 110 q 387 -7 450 -7 z "},"Ū":{"ha":705,"x_min":49,"x_max":655,"o":"m 133 1039 l 133 1112 l 562 1112 l 562 1039 l 133 1039 m 49 262 l 49 949 l 168 949 l 168 262 q 262 127 168 172 q 319 111 296 111 l 319 -7 q 161 49 240 -7 q 49 262 50 129 m 387 -7 l 387 111 q 479 148 431 111 q 537 262 536 193 l 537 949 l 655 949 l 655 262 q 519 33 655 110 q 387 -7 450 -7 z "},"Ų":{"ha":705,"x_min":49,"x_max":655,"o":"m 511 -251 q 320 -141 370 -251 q 302 -54 302 -99 l 391 -54 q 465 -159 391 -136 q 511 -165 488 -165 l 511 -251 m 49 262 l 49 949 l 168 949 l 168 262 q 262 127 168 172 q 319 111 296 111 l 319 -7 q 161 49 240 -7 q 49 262 50 129 m 387 -7 l 387 111 q 479 148 431 111 q 537 262 536 193 l 537 949 l 655 949 l 655 262 q 519 33 655 110 q 387 -7 450 -7 z "},"Ů":{"ha":705,"x_min":49,"x_max":655,"o":"m 237 1169 q 293 1265 237 1234 q 347 1279 319 1279 q 444 1223 412 1279 q 457 1169 457 1198 q 401 1073 457 1104 q 347 1059 376 1059 q 251 1115 282 1059 q 237 1169 237 1141 m 304 1169 q 334 1127 304 1137 q 347 1126 342 1126 q 389 1156 380 1126 q 391 1169 391 1164 q 361 1211 391 1202 q 347 1213 353 1213 q 305 1183 315 1213 q 304 1169 304 1175 m 49 262 l 49 949 l 168 949 l 168 262 q 262 127 168 172 q 319 111 296 111 l 319 -7 q 161 49 240 -7 q 49 262 50 129 m 387 -7 l 387 111 q 479 148 431 111 q 537 262 536 193 l 537 949 l 655 949 l 655 262 q 519 33 655 110 q 387 -7 450 -7 z "},"V":{"ha":643,"x_min":12,"x_max":631,"o":"m 12 949 l 132 949 l 373 125 l 330 0 l 288 0 l 12 949 m 343 446 l 511 949 l 631 949 q 529 635 618 910 q 410 267 425 315 l 396 267 l 343 446 z "},"W":{"ha":1074,"x_min":14,"x_max":1061,"o":"m 14 949 l 289 0 l 330 0 l 372 133 l 133 949 l 14 949 m 339 458 l 391 278 l 404 278 q 533 735 426 349 l 735 0 l 776 0 l 818 127 l 593 949 l 473 949 l 339 458 m 796 458 l 849 278 l 863 278 l 1061 949 l 941 949 l 796 458 z "},"X":{"ha":621,"x_min":31,"x_max":590,"o":"m 31 0 l 252 491 l 47 949 l 163 949 l 311 636 l 458 949 l 574 949 l 369 491 l 590 0 l 469 0 l 311 340 l 152 0 l 31 0 z "},"Y":{"ha":637,"x_min":30,"x_max":609,"o":"m 30 949 l 152 949 l 366 343 l 366 0 l 245 0 l 245 342 l 30 949 m 347 617 l 487 949 l 609 949 l 412 434 l 403 434 l 347 617 z "},"Ý":{"ha":637,"x_min":30,"x_max":609,"o":"m 267 1039 l 317 1245 l 427 1245 l 346 1039 l 267 1039 m 30 949 l 152 949 l 366 343 l 366 0 l 245 0 l 245 342 l 30 949 m 347 617 l 487 949 l 609 949 l 412 434 l 403 434 l 347 617 z "},"Ÿ":{"ha":637,"x_min":30,"x_max":609,"o":"m 148 1107 q 189 1169 148 1150 q 216 1175 201 1175 q 278 1134 260 1175 q 283 1107 283 1120 q 243 1044 283 1062 q 216 1039 229 1039 q 153 1080 171 1039 q 148 1107 148 1093 m 328 1107 q 368 1168 328 1149 q 397 1175 382 1175 q 458 1134 441 1175 q 464 1107 464 1120 q 425 1044 464 1062 q 397 1039 411 1039 q 334 1080 351 1039 q 328 1107 328 1093 m 30 949 l 152 949 l 366 343 l 366 0 l 245 0 l 245 342 l 30 949 m 347 617 l 487 949 l 609 949 l 412 434 l 403 434 l 347 617 z "},"Z":{"ha":593,"x_min":47,"x_max":545,"o":"m 47 0 l 47 115 l 414 833 l 47 833 l 47 949 l 544 949 l 544 837 l 178 119 l 545 119 l 544 0 l 47 0 z "},"Ź":{"ha":593,"x_min":47,"x_max":545,"o":"m 250 1039 l 300 1245 l 410 1245 l 328 1039 l 250 1039 m 47 0 l 47 115 l 414 833 l 47 833 l 47 949 l 544 949 l 544 837 l 178 119 l 545 119 l 544 0 l 47 0 z "},"Ž":{"ha":593,"x_min":47,"x_max":545,"o":"m 153 1245 l 231 1245 l 289 1127 l 346 1245 l 423 1245 l 321 1039 l 256 1039 l 153 1245 m 47 0 l 47 115 l 414 833 l 47 833 l 47 949 l 544 949 l 544 837 l 178 119 l 545 119 l 544 0 l 47 0 z "},"Ż":{"ha":593,"x_min":47,"x_max":545,"o":"m 220 1108 q 262 1173 220 1156 q 289 1179 275 1179 q 353 1135 335 1179 q 358 1108 358 1123 q 317 1044 358 1062 q 289 1039 302 1039 q 225 1080 243 1039 q 220 1108 220 1095 m 47 0 l 47 115 l 414 833 l 47 833 l 47 949 l 544 949 l 544 837 l 178 119 l 545 119 l 544 0 l 47 0 z "},"a":{"ha":635,"x_min":45,"x_max":590,"o":"m 45 171 q 118 45 45 96 q 264 1 180 1 l 264 107 q 145 197 146 110 l 145 233 q 161 277 146 263 q 307 323 178 292 q 442 366 407 347 l 442 210 q 357 109 442 122 q 331 107 343 107 l 331 1 q 480 49 426 3 q 590 1 522 1 l 590 109 q 553 153 555 111 l 553 525 q 487 677 553 612 q 331 736 425 736 l 331 632 q 426 581 395 632 q 442 521 442 553 l 442 495 q 281 416 442 461 q 114 365 136 376 q 45 236 45 324 l 45 171 m 54 552 l 155 514 q 217 620 155 590 q 266 631 240 631 l 266 736 q 106 669 172 736 q 54 552 54 617 z "},"á":{"ha":635,"x_min":45,"x_max":590,"o":"m 248 819 l 298 1025 l 408 1025 l 327 819 l 248 819 m 45 171 q 118 45 45 96 q 264 1 180 1 l 264 107 q 145 197 146 110 l 145 233 q 161 277 146 263 q 307 323 178 292 q 442 366 407 347 l 442 210 q 357 109 442 122 q 331 107 343 107 l 331 1 q 480 49 426 3 q 590 1 522 1 l 590 109 q 553 153 555 111 l 553 525 q 487 677 553 612 q 331 736 425 736 l 331 632 q 426 581 395 632 q 442 521 442 553 l 442 495 q 281 416 442 461 q 114 365 136 376 q 45 236 45 324 l 45 171 m 54 552 l 155 514 q 217 620 155 590 q 266 631 240 631 l 266 736 q 106 669 172 736 q 54 552 54 617 z "},"ă":{"ha":635,"x_min":45,"x_max":590,"o":"m 180 925 l 244 925 q 274 883 244 892 q 288 882 282 882 q 330 911 320 882 q 331 925 331 920 l 395 925 q 347 838 395 871 q 288 819 320 819 q 194 876 225 819 q 180 925 180 901 m 45 171 q 118 45 45 96 q 264 1 180 1 l 264 107 q 145 197 146 110 l 145 233 q 161 277 146 263 q 307 323 178 292 q 442 366 407 347 l 442 210 q 357 109 442 122 q 331 107 343 107 l 331 1 q 480 49 426 3 q 590 1 522 1 l 590 109 q 553 153 555 111 l 553 525 q 487 677 553 612 q 331 736 425 736 l 331 632 q 426 581 395 632 q 442 521 442 553 l 442 495 q 281 416 442 461 q 114 365 136 376 q 45 236 45 324 l 45 171 m 54 552 l 155 514 q 217 620 155 590 q 266 631 240 631 l 266 736 q 106 669 172 736 q 54 552 54 617 z "},"â":{"ha":635,"x_min":45,"x_max":590,"o":"m 152 819 l 254 1025 l 319 1025 l 422 819 l 345 819 l 286 937 l 229 819 l 152 819 m 45 171 q 118 45 45 96 q 264 1 180 1 l 264 107 q 145 197 146 110 l 145 233 q 161 277 146 263 q 307 323 178 292 q 442 366 407 347 l 442 210 q 357 109 442 122 q 331 107 343 107 l 331 1 q 480 49 426 3 q 590 1 522 1 l 590 109 q 553 153 555 111 l 553 525 q 487 677 553 612 q 331 736 425 736 l 331 632 q 426 581 395 632 q 442 521 442 553 l 442 495 q 281 416 442 461 q 114 365 136 376 q 45 236 45 324 l 45 171 m 54 552 l 155 514 q 217 620 155 590 q 266 631 240 631 l 266 736 q 106 669 172 736 q 54 552 54 617 z "},"´":{"ha":473,"x_min":156,"x_max":316,"o":"m 156 821 l 206 1027 l 316 1027 l 235 821 l 156 821 z "},"ä":{"ha":635,"x_min":45,"x_max":590,"o":"m 129 887 q 170 949 129 930 q 197 955 182 955 q 259 914 241 955 q 264 887 264 901 q 224 825 264 842 q 197 819 210 819 q 134 860 152 819 q 129 887 129 873 m 309 887 q 349 948 309 929 q 378 955 363 955 q 439 914 422 955 q 445 887 445 901 q 406 825 445 842 q 378 819 392 819 q 315 860 332 819 q 309 887 309 873 m 45 171 q 118 45 45 96 q 264 1 180 1 l 264 107 q 145 197 146 110 l 145 233 q 161 277 146 263 q 307 323 178 292 q 442 366 407 347 l 442 210 q 357 109 442 122 q 331 107 343 107 l 331 1 q 480 49 426 3 q 590 1 522 1 l 590 109 q 553 153 555 111 l 553 525 q 487 677 553 612 q 331 736 425 736 l 331 632 q 426 581 395 632 q 442 521 442 553 l 442 495 q 281 416 442 461 q 114 365 136 376 q 45 236 45 324 l 45 171 m 54 552 l 155 514 q 217 620 155 590 q 266 631 240 631 l 266 736 q 106 669 172 736 q 54 552 54 617 z "},"æ":{"ha":738,"x_min":35,"x_max":922,"o":"m 35 157 q 110 37 35 84 q 245 1 168 1 l 245 100 q 129 197 130 103 l 129 220 q 240 308 129 275 q 302 324 260 315 q 418 366 396 349 l 418 202 q 334 102 418 115 q 309 100 321 100 l 309 1 q 472 77 420 0 q 670 0 533 0 q 910 127 852 0 q 922 163 917 145 l 833 195 q 684 95 808 102 q 669 95 675 95 q 544 145 587 95 q 521 202 521 172 l 521 311 l 921 311 l 921 513 q 834 655 921 595 q 701 700 770 700 l 701 601 q 800 551 764 601 q 821 494 821 524 l 821 411 l 521 411 l 521 490 q 568 576 521 543 q 637 600 601 600 l 637 700 q 472 623 534 699 q 279 705 408 705 q 99 635 167 705 q 52 518 52 585 l 138 492 q 229 602 138 579 q 281 609 254 609 q 399 560 358 609 q 418 513 418 537 l 418 484 q 327 418 418 448 q 273 403 309 414 q 83 323 130 362 q 35 228 37 282 l 35 157 z "},"à":{"ha":635,"x_min":45,"x_max":590,"o":"m 165 1025 l 275 1025 l 326 819 l 247 819 l 165 1025 m 45 171 q 118 45 45 96 q 264 1 180 1 l 264 107 q 145 197 146 110 l 145 233 q 161 277 146 263 q 307 323 178 292 q 442 366 407 347 l 442 210 q 357 109 442 122 q 331 107 343 107 l 331 1 q 480 49 426 3 q 590 1 522 1 l 590 109 q 553 153 555 111 l 553 525 q 487 677 553 612 q 331 736 425 736 l 331 632 q 426 581 395 632 q 442 521 442 553 l 442 495 q 281 416 442 461 q 114 365 136 376 q 45 236 45 324 l 45 171 m 54 552 l 155 514 q 217 620 155 590 q 266 631 240 631 l 266 736 q 106 669 172 736 q 54 552 54 617 z "},"ā":{"ha":635,"x_min":45,"x_max":590,"o":"m 87 821 l 87 894 l 515 894 l 515 821 l 87 821 m 45 171 q 118 45 45 96 q 264 1 180 1 l 264 107 q 145 197 146 110 l 145 233 q 161 277 146 263 q 307 323 178 292 q 442 366 407 347 l 442 210 q 357 109 442 122 q 331 107 343 107 l 331 1 q 480 49 426 3 q 590 1 522 1 l 590 109 q 553 153 555 111 l 553 525 q 487 677 553 612 q 331 736 425 736 l 331 632 q 426 581 395 632 q 442 521 442 553 l 442 495 q 281 416 442 461 q 114 365 136 376 q 45 236 45 324 l 45 171 m 54 552 l 155 514 q 217 620 155 590 q 266 631 240 631 l 266 736 q 106 669 172 736 q 54 552 54 617 z "},"&":{"ha":876,"x_min":47,"x_max":829,"o":"m 468 167 q 345 115 415 115 q 202 182 256 115 q 167 286 167 228 q 233 419 168 362 l 155 509 q 47 289 49 419 q 155 65 47 151 q 343 0 237 0 q 547 79 460 1 l 468 167 m 534 730 q 477 826 526 792 q 433 845 456 841 l 433 958 q 606 848 544 943 q 643 758 633 806 l 534 730 m 358 845 q 271 785 301 838 q 256 722 256 755 q 305 621 256 677 q 315 610 312 613 l 598 301 q 663 441 648 355 q 666 468 666 456 l 785 468 q 681 208 777 320 l 829 43 l 707 11 l 228 540 q 149 674 160 617 q 145 722 145 697 q 237 907 145 837 q 358 958 290 948 l 358 845 z "},"ං":{"ha":621,"x_min":41,"x_max":581,"o":"m 345 61 l 345 172 q 458 258 439 172 q 465 336 465 289 l 465 422 q 412 571 465 540 q 345 586 385 586 l 345 697 l 373 697 q 576 491 551 697 q 581 422 581 460 l 581 336 q 397 62 581 79 q 373 61 385 61 l 345 61 m 248 61 q 45 267 71 61 q 41 336 41 298 l 41 422 q 224 696 41 680 q 248 697 236 697 l 277 697 l 277 586 q 161 496 180 586 q 156 422 156 467 l 156 336 q 205 190 156 221 q 277 172 233 172 l 277 61 l 248 61 z "},"ą":{"ha":635,"x_min":45,"x_max":652,"o":"m 652 -251 q 461 -141 511 -251 q 444 -54 444 -99 l 532 -54 q 606 -159 532 -136 q 652 -165 629 -165 l 652 -251 m 45 171 q 118 45 45 96 q 264 1 180 1 l 264 107 q 145 197 146 110 l 145 233 q 161 277 146 263 q 307 323 178 292 q 442 366 407 347 l 442 210 q 357 109 442 122 q 331 107 343 107 l 331 1 q 480 49 426 3 q 590 1 522 1 l 590 109 q 553 153 555 111 l 553 525 q 487 677 553 612 q 331 736 425 736 l 331 632 q 426 581 395 632 q 442 521 442 553 l 442 495 q 281 416 442 461 q 114 365 136 376 q 45 236 45 324 l 45 171 m 54 552 l 155 514 q 217 620 155 590 q 266 631 240 631 l 266 736 q 106 669 172 736 q 54 552 54 617 z "},"≈":{"ha":770,"x_min":68,"x_max":703,"o":"m 68 292 l 68 403 q 221 450 151 450 q 369 403 279 450 q 509 351 457 355 q 525 351 518 351 q 703 412 604 353 l 703 304 q 517 241 600 241 q 359 292 453 241 q 213 340 262 338 q 68 292 142 339 m 68 545 l 68 656 q 221 704 151 704 q 369 656 279 704 q 509 605 457 609 q 525 605 518 605 q 703 666 604 606 l 703 557 q 517 495 600 495 q 359 545 453 495 q 213 594 262 591 q 68 545 142 593 z "},"å":{"ha":635,"x_min":45,"x_max":590,"o":"m 186 949 q 241 1046 186 1015 q 296 1059 267 1059 q 392 1004 361 1059 q 406 949 406 978 q 350 853 406 884 q 296 840 324 840 q 199 895 231 840 q 186 949 186 921 m 252 949 q 282 907 252 917 q 296 906 290 906 q 338 936 328 906 q 339 949 339 944 q 309 991 339 982 q 296 993 301 993 q 254 963 263 993 q 252 949 252 955 m 45 171 q 118 45 45 96 q 264 1 180 1 l 264 107 q 145 197 146 110 l 145 233 q 161 277 146 263 q 307 323 178 292 q 442 366 407 347 l 442 210 q 357 109 442 122 q 331 107 343 107 l 331 1 q 480 49 426 3 q 590 1 522 1 l 590 109 q 553 153 555 111 l 553 525 q 487 677 553 612 q 331 736 425 736 l 331 632 q 426 581 395 632 q 442 521 442 553 l 442 495 q 281 416 442 461 q 114 365 136 376 q 45 236 45 324 l 45 171 m 54 552 l 155 514 q 217 620 155 590 q 266 631 240 631 l 266 736 q 106 669 172 736 q 54 552 54 617 z "},"^":{"ha":629,"x_min":75,"x_max":555,"o":"m 75 624 l 277 1025 l 353 1025 l 555 624 l 446 624 l 313 890 l 182 624 l 75 624 z "},"~":{"ha":852,"x_min":109,"x_max":743,"o":"m 109 403 l 109 515 q 262 563 191 563 q 410 515 320 563 q 549 464 498 468 q 566 464 559 464 q 743 525 644 465 l 743 415 q 557 353 640 353 q 400 403 494 353 q 254 452 302 449 q 109 403 183 450 z "},"*":{"ha":461,"x_min":39,"x_max":423,"o":"m 39 947 l 83 1006 l 193 937 l 193 1065 l 267 1065 l 267 932 l 381 1006 l 423 947 l 290 859 l 423 766 l 380 707 l 267 788 l 267 648 l 193 648 l 193 787 l 81 711 l 39 770 l 172 860 l 39 947 z "},"@":{"ha":1065,"x_min":39,"x_max":1025,"o":"m 39 419 q 187 783 39 633 q 575 943 340 935 q 597 943 587 943 q 888 845 764 943 q 1025 560 1024 736 q 859 225 1025 315 q 719 190 791 190 q 625 237 665 190 q 610 260 614 250 q 510 198 581 212 q 473 195 492 195 q 342 275 392 195 q 307 403 307 332 q 422 633 307 553 q 551 678 484 678 q 667 633 623 678 q 673 628 673 628 l 682 661 l 764 661 l 703 418 q 690 361 694 387 q 712 307 686 328 q 743 294 727 294 q 859 353 808 294 q 921 559 921 426 q 798 781 921 696 q 598 844 705 844 q 281 724 412 844 q 144 420 145 601 q 288 94 144 210 q 555 4 399 4 q 905 119 741 5 l 949 37 q 644 -87 829 -64 q 560 -92 601 -92 q 167 65 312 -92 q 39 419 39 205 z "},"ã":{"ha":635,"x_min":45,"x_max":590,"o":"m 104 844 l 104 937 q 199 967 157 967 q 296 936 233 967 q 377 911 343 911 q 486 949 425 913 l 486 857 q 372 819 423 819 q 271 850 335 819 q 194 873 225 873 q 104 844 152 872 m 45 171 q 118 45 45 96 q 264 1 180 1 l 264 107 q 145 197 146 110 l 145 233 q 161 277 146 263 q 307 323 178 292 q 442 366 407 347 l 442 210 q 357 109 442 122 q 331 107 343 107 l 331 1 q 480 49 426 3 q 590 1 522 1 l 590 109 q 553 153 555 111 l 553 525 q 487 677 553 612 q 331 736 425 736 l 331 632 q 426 581 395 632 q 442 521 442 553 l 442 495 q 281 416 442 461 q 114 365 136 376 q 45 236 45 324 l 45 171 m 54 552 l 155 514 q 217 620 155 590 q 266 631 240 631 l 266 736 q 106 669 172 736 q 54 552 54 617 z "},"b":{"ha":605,"x_min":56,"x_max":564,"o":"m 56 0 l 56 959 l 172 959 l 172 0 l 56 0 m 239 0 l 239 110 l 346 110 q 435 157 399 110 q 453 203 453 182 l 453 532 q 408 604 453 572 q 347 624 378 624 l 239 624 l 239 734 l 347 734 q 524 643 456 734 q 564 537 563 590 l 564 201 q 510 76 564 138 q 345 0 444 1 l 239 0 z "},"\\":{"ha":458,"x_min":56,"x_max":403,"o":"m 56 971 l 165 971 l 403 -31 l 292 -31 l 56 971 z "},"|":{"ha":228,"x_min":68,"x_max":160,"o":"m 68 -182 l 68 1023 l 160 1023 l 160 -182 l 68 -182 z "},"{":{"ha":343,"x_min":20,"x_max":316,"o":"m 20 472 q 91 511 79 496 q 104 553 103 528 l 104 722 q 193 974 104 925 q 316 997 236 997 l 316 909 q 235 872 254 909 q 214 651 214 831 q 214 636 214 643 l 214 519 q 164 472 212 484 q 214 412 213 454 l 214 281 q 260 50 214 87 q 316 37 281 37 l 316 -52 q 159 -1 203 -52 q 104 221 104 61 l 104 393 q 62 450 104 427 q 42 461 57 454 q 20 472 27 468 z "},"}":{"ha":343,"x_min":27,"x_max":323,"o":"m 27 -52 l 27 37 q 103 77 83 37 q 129 281 129 132 l 129 412 q 179 472 132 456 q 129 519 130 486 l 129 636 q 110 868 129 826 q 27 909 84 907 l 27 997 q 187 943 142 997 q 239 722 239 880 l 239 553 q 282 490 240 510 q 323 472 290 486 q 256 435 263 441 q 239 393 239 418 l 239 221 q 142 -31 239 16 q 27 -52 100 -52 z "},"[":{"ha":294,"x_min":68,"x_max":250,"o":"m 68 -49 l 68 1002 l 250 1002 l 250 905 l 182 905 l 178 49 l 250 49 l 250 -49 l 68 -49 z "},"]":{"ha":289,"x_min":45,"x_max":227,"o":"m 45 -49 l 45 49 l 115 49 l 111 905 l 45 905 l 45 1002 l 227 1002 l 227 -49 l 45 -49 z "},"˘":{"ha":331,"x_min":58,"x_max":273,"o":"m 58 713 l 122 713 q 152 671 122 681 q 165 670 160 670 q 208 700 198 670 q 209 713 209 708 l 273 713 q 225 627 273 659 q 165 608 198 608 q 72 665 103 608 q 58 713 58 689 z "},"¦":{"ha":232,"x_min":57,"x_max":164,"o":"m 57 -186 l 57 297 l 164 297 l 164 -186 l 57 -186 m 57 547 l 57 1029 l 164 1029 l 164 547 l 57 547 z "},"•":{"ha":477,"x_min":100,"x_max":377,"o":"m 100 468 q 164 586 100 545 q 239 608 198 608 q 357 541 317 608 q 377 468 377 509 q 312 349 377 389 q 239 328 278 328 q 121 393 161 328 q 100 468 100 429 z "},"c":{"ha":601,"x_min":53,"x_max":567,"o":"m 53 201 q 109 69 53 129 q 281 0 174 0 l 281 109 q 176 163 208 109 q 165 201 165 182 l 165 530 q 210 605 165 574 q 281 625 241 625 l 281 734 q 85 632 151 734 q 53 533 53 582 l 53 201 m 342 624 q 434 567 408 624 q 445 522 444 545 l 445 490 l 551 530 q 469 692 551 629 q 342 734 412 734 l 342 624 m 342 -1 q 510 72 438 -3 q 567 205 567 133 l 461 244 q 461 241 461 243 q 461 236 461 240 q 461 229 461 232 q 461 223 461 227 q 461 217 461 220 l 460 214 q 384 115 453 138 q 342 109 363 109 l 342 -1 z "},"ć":{"ha":601,"x_min":53,"x_max":567,"o":"m 271 815 l 321 1021 l 431 1021 l 350 815 l 271 815 m 53 201 q 109 69 53 129 q 281 0 174 0 l 281 109 q 176 163 208 109 q 165 201 165 182 l 165 530 q 210 605 165 574 q 281 625 241 625 l 281 734 q 85 632 151 734 q 53 533 53 582 l 53 201 m 342 624 q 434 567 408 624 q 445 522 444 545 l 445 490 l 551 530 q 469 692 551 629 q 342 734 412 734 l 342 624 m 342 -1 q 510 72 438 -3 q 567 205 567 133 l 461 244 q 461 241 461 243 q 461 236 461 240 q 461 229 461 232 q 461 223 461 227 q 461 217 461 220 l 460 214 q 384 115 453 138 q 342 109 363 109 l 342 -1 z "},"ˇ":{"ha":366,"x_min":47,"x_max":317,"o":"m 47 903 l 125 903 l 183 785 l 240 903 l 317 903 l 216 697 l 151 697 l 47 903 z "},"č":{"ha":601,"x_min":53,"x_max":567,"o":"m 175 1021 l 252 1021 l 311 903 l 368 1021 l 445 1021 l 343 815 l 278 815 l 175 1021 m 53 201 q 109 69 53 129 q 281 0 174 0 l 281 109 q 176 163 208 109 q 165 201 165 182 l 165 530 q 210 605 165 574 q 281 625 241 625 l 281 734 q 85 632 151 734 q 53 533 53 582 l 53 201 m 342 624 q 434 567 408 624 q 445 522 444 545 l 445 490 l 551 530 q 469 692 551 629 q 342 734 412 734 l 342 624 m 342 -1 q 510 72 438 -3 q 567 205 567 133 l 461 244 q 461 241 461 243 q 461 236 461 240 q 461 229 461 232 q 461 223 461 227 q 461 217 461 220 l 460 214 q 384 115 453 138 q 342 109 363 109 l 342 -1 z "},"ç":{"ha":601,"x_min":53,"x_max":567,"o":"m 149 -251 l 149 -165 q 259 -104 231 -165 q 270 -54 270 -81 l 358 -54 q 285 -210 358 -155 q 149 -251 231 -251 m 53 201 q 109 69 53 129 q 281 0 174 0 l 281 109 q 176 163 208 109 q 165 201 165 182 l 165 530 q 210 605 165 574 q 281 625 241 625 l 281 734 q 85 632 151 734 q 53 533 53 582 l 53 201 m 342 624 q 434 567 408 624 q 445 522 444 545 l 445 490 l 551 530 q 469 692 551 629 q 342 734 412 734 l 342 624 m 342 -1 q 510 72 438 -3 q 567 205 567 133 l 461 244 q 461 241 461 243 q 461 236 461 240 q 461 229 461 232 q 461 223 461 227 q 461 217 461 220 l 460 214 q 384 115 453 138 q 342 109 363 109 l 342 -1 z "},"¸":{"ha":559,"x_min":167,"x_max":376,"o":"m 167 -30 l 167 56 q 277 117 248 56 q 288 167 288 140 l 376 167 q 302 11 376 66 q 167 -30 248 -30 z "},"¢":{"ha":593,"x_min":52,"x_max":566,"o":"m 340 837 l 340 623 q 429 572 400 623 q 444 521 442 549 l 444 488 l 549 529 q 469 689 549 627 q 396 724 435 713 l 396 837 l 340 837 m 224 837 l 224 727 q 72 609 121 704 q 52 532 52 568 l 52 201 q 107 69 52 129 q 224 5 155 20 l 224 -104 l 279 -104 l 279 110 q 176 167 212 110 q 164 206 164 187 l 164 519 q 212 604 164 572 q 279 624 241 624 l 279 837 l 224 837 m 340 -104 l 396 -104 l 396 5 q 540 113 491 31 q 566 205 566 157 l 460 244 q 458 210 460 217 q 385 117 452 141 q 340 109 363 109 l 340 -104 z "},"ˆ":{"ha":366,"x_min":47,"x_max":317,"o":"m 47 697 l 149 903 l 214 903 l 317 697 l 240 697 l 182 815 l 125 697 l 47 697 z "},":":{"ha":270,"x_min":68,"x_max":202,"o":"m 68 104 q 107 165 68 148 q 134 171 121 171 q 195 132 178 171 q 201 104 201 119 q 161 43 201 61 q 134 38 148 38 q 73 77 91 38 q 68 104 68 91 m 69 498 q 110 559 69 543 q 136 564 122 564 q 197 525 179 564 q 202 498 202 511 q 163 437 202 454 q 136 431 149 431 q 75 472 91 431 q 69 498 69 486 z "},",":{"ha":281,"x_min":61,"x_max":221,"o":"m 61 -31 l 111 175 l 221 175 l 171 -31 l 61 -31 z "},"©":{"ha":1074,"x_min":47,"x_max":1034,"o":"m 47 460 q 193 102 47 250 q 494 -42 321 -28 q 519 -43 507 -43 l 519 41 q 241 168 358 43 q 125 460 125 293 q 266 779 125 652 q 514 883 378 879 q 519 883 517 883 l 519 962 q 255 868 385 963 q 53 537 83 745 q 47 460 47 499 m 347 324 q 399 199 347 252 q 519 153 446 153 l 519 232 q 435 289 460 232 q 427 324 427 307 l 427 591 q 467 671 427 643 q 519 688 490 688 l 519 766 q 366 671 414 766 q 347 593 347 632 l 347 324 m 567 -43 q 865 81 731 -41 q 1032 415 1015 216 q 1034 452 1034 434 q 878 827 1034 677 q 600 960 754 945 q 567 962 583 962 l 567 883 q 823 772 709 882 q 956 456 952 636 q 842 171 956 294 q 574 41 728 46 q 567 41 570 41 l 567 -43 m 567 152 q 692 220 642 152 q 726 315 726 264 l 647 343 l 647 323 q 601 240 646 264 q 567 231 583 231 l 567 152 m 567 688 q 631 647 606 688 q 646 593 646 623 l 646 576 l 724 605 q 659 734 724 682 q 567 766 616 766 l 567 688 z "},"¤":{"ha":842,"x_min":54,"x_max":774,"o":"m 54 239 l 172 345 q 167 381 167 359 l 167 608 q 174 647 167 633 l 54 751 l 118 825 l 220 735 q 389 808 285 807 l 389 705 q 282 643 312 705 q 271 601 271 621 l 271 388 q 317 305 271 340 q 389 282 350 282 l 389 179 q 220 256 285 180 l 118 167 l 54 239 m 445 179 l 445 282 q 547 343 515 282 q 557 387 557 366 l 557 600 q 511 685 557 652 q 445 705 481 705 l 445 808 q 608 734 548 807 l 709 825 l 774 751 l 655 646 q 661 609 661 624 l 661 381 q 655 345 661 366 l 773 239 l 709 167 l 609 255 q 445 179 544 180 z "},"d":{"ha":602,"x_min":41,"x_max":547,"o":"m 41 201 l 41 536 q 107 671 42 609 q 256 732 171 732 l 363 732 l 363 623 l 258 623 q 167 572 202 623 q 152 529 152 549 l 152 203 q 201 129 152 160 q 259 110 229 110 l 363 110 l 363 0 l 260 0 q 73 104 140 0 q 41 201 41 156 m 429 0 l 430 959 l 547 959 l 547 0 l 429 0 z "},"†":{"ha":614,"x_min":35,"x_max":579,"o":"m 35 642 l 35 750 l 248 750 l 248 1036 l 366 1036 l 366 750 l 579 750 l 579 642 l 366 642 l 366 -76 l 248 -76 l 248 642 l 35 642 z "},"‡":{"ha":614,"x_min":35,"x_max":579,"o":"m 35 209 l 35 317 l 248 317 l 248 643 l 35 643 l 35 751 l 248 751 l 248 1036 l 368 1036 l 368 751 l 579 751 l 579 643 l 368 643 l 368 317 l 579 317 l 579 209 l 368 209 l 368 -76 l 248 -76 l 248 209 l 35 209 z "},"ď":{"ha":602,"x_min":41,"x_max":818,"o":"m 658 780 l 708 986 l 818 986 l 768 780 l 658 780 m 41 201 l 41 536 q 107 671 42 609 q 256 732 171 732 l 363 732 l 363 623 l 258 623 q 167 572 202 623 q 152 529 152 549 l 152 203 q 201 129 152 160 q 259 110 229 110 l 363 110 l 363 0 l 260 0 q 73 104 140 0 q 41 201 41 156 m 429 0 l 430 959 l 547 959 l 547 0 l 429 0 z "},"đ":{"ha":562,"x_min":38,"x_max":608,"o":"m 38 191 l 38 511 q 100 642 38 581 q 244 700 163 700 l 349 700 l 349 597 l 245 597 q 157 548 190 597 q 142 506 142 526 l 142 194 q 190 121 142 152 q 245 103 217 103 l 349 103 l 349 0 l 248 0 q 68 99 132 0 q 38 191 38 148 m 312 785 l 312 873 l 412 873 l 412 959 l 521 959 l 521 873 l 608 873 l 608 785 l 521 785 l 521 0 l 412 0 l 412 785 l 312 785 z "},"°":{"ha":342,"x_min":47,"x_max":294,"o":"m 47 791 q 106 895 47 859 q 171 914 137 914 q 275 856 239 914 q 294 791 294 825 q 236 686 294 723 q 171 667 206 667 q 66 726 103 667 q 47 791 47 757 m 119 791 q 153 742 119 754 q 171 739 163 739 q 221 774 209 739 q 224 791 224 783 q 189 841 224 829 q 171 844 179 844 q 123 810 136 844 q 119 791 119 800 z "},"¨":{"ha":465,"x_min":75,"x_max":391,"o":"m 75 921 q 115 983 75 964 q 142 989 129 989 q 205 948 187 989 q 210 921 210 935 q 170 859 210 876 q 142 853 156 853 q 80 894 98 853 q 75 921 75 907 m 255 921 q 294 982 255 963 q 324 989 309 989 q 385 948 368 989 q 391 921 391 935 q 351 859 391 876 q 324 853 338 853 q 260 894 278 853 q 255 921 255 907 z "},"÷":{"ha":882,"x_min":115,"x_max":726,"o":"m 115 342 l 115 450 l 726 450 l 726 342 l 115 342 m 355 604 q 399 673 355 652 q 431 681 414 681 q 500 636 479 681 q 507 604 507 620 q 465 537 507 557 q 431 529 448 529 q 363 571 384 529 q 355 604 355 587 m 355 209 q 399 278 355 258 q 431 286 415 286 q 500 241 479 286 q 507 209 507 225 q 465 142 507 163 q 431 134 448 134 q 363 176 384 134 q 355 209 355 193 z "},"$":{"ha":681,"x_min":42,"x_max":640,"o":"m 42 214 l 149 252 q 195 159 159 195 q 262 114 231 122 l 293 106 l 293 -64 l 227 -64 l 227 8 q 71 130 127 35 q 42 214 43 176 m 53 693 q 179 910 53 837 q 227 933 202 925 l 227 1017 l 293 1017 l 293 838 q 205 788 245 833 q 167 692 167 746 q 278 575 167 612 q 293 570 286 572 l 293 442 q 220 465 235 458 q 72 590 104 513 q 53 693 53 635 m 361 -64 l 361 106 q 468 159 416 109 q 521 279 519 212 q 403 411 521 369 q 361 423 384 416 l 361 547 q 467 514 448 522 q 623 377 589 464 q 640 279 640 334 q 548 76 640 163 q 427 7 494 26 l 427 -64 l 361 -64 m 361 838 l 361 1017 l 427 1017 l 427 936 q 579 807 522 906 q 602 750 598 773 l 491 713 q 381 834 469 808 q 361 838 361 838 z "},"˙":{"ha":274,"x_min":68,"x_max":206,"o":"m 68 920 q 110 985 68 967 q 137 990 123 990 q 201 947 183 990 q 206 920 206 933 q 165 856 206 873 q 137 850 151 850 q 73 891 91 850 q 68 920 68 906 z "},"ı":{"ha":236,"x_min":65,"x_max":172,"o":"m 65 0 l 65 700 l 172 700 l 172 0 l 65 0 z "},"◌":{"ha":863,"x_min":56,"x_max":818,"o":"m 216 656 q 252 711 216 697 q 274 715 263 715 q 328 678 315 715 q 332 656 332 667 q 294 601 332 614 q 274 597 283 597 q 220 635 233 597 q 216 656 216 646 m 99 540 q 136 594 99 581 q 157 598 146 598 q 213 560 199 598 q 217 540 217 549 q 179 486 217 499 q 157 481 168 481 q 103 518 117 481 q 99 540 99 529 m 216 98 q 254 153 216 140 q 274 157 264 157 q 328 119 315 157 q 332 98 332 109 q 296 43 332 57 q 274 39 285 39 q 220 76 233 39 q 216 98 216 87 m 99 214 q 136 269 99 255 q 157 273 146 273 q 213 235 199 273 q 217 214 217 224 q 179 160 217 174 q 157 156 168 156 q 103 193 117 156 q 99 214 99 203 m 541 98 q 579 153 541 140 q 600 157 590 157 q 654 119 640 157 q 658 98 658 109 q 621 43 658 57 q 600 39 610 39 q 545 76 559 39 q 541 98 541 87 m 656 214 q 694 269 656 255 q 716 273 705 273 q 770 236 757 273 q 774 214 774 225 q 738 160 774 174 q 716 156 727 156 q 661 194 674 156 q 656 214 656 205 m 656 540 q 694 594 656 581 q 716 598 705 598 q 770 562 757 598 q 774 540 774 551 q 738 486 774 499 q 716 481 727 481 q 661 519 674 481 q 656 540 656 530 m 541 656 q 578 711 541 697 q 600 715 589 715 q 654 678 640 715 q 658 656 658 667 q 620 601 658 614 q 600 597 609 597 q 545 635 559 597 q 541 656 541 646 m 701 377 q 738 431 701 418 q 760 435 749 435 q 814 399 800 435 q 818 377 818 388 q 781 323 818 336 q 760 319 770 319 q 705 355 719 319 q 701 377 701 366 m 378 54 q 415 109 378 95 q 437 113 426 113 q 491 76 477 113 q 495 54 495 65 q 458 0 495 14 q 437 -4 448 -4 q 382 33 396 -4 q 378 54 378 43 m 56 377 q 92 431 56 418 q 114 435 103 435 q 168 399 155 435 q 172 377 172 388 q 136 323 172 336 q 114 319 125 319 q 60 355 73 319 q 56 377 56 366 m 378 700 q 415 754 378 741 q 437 758 426 758 q 491 722 477 758 q 495 700 495 711 q 458 646 495 659 q 437 642 448 642 q 382 678 396 642 q 378 700 378 689 z "},"e":{"ha":635,"x_min":53,"x_max":581,"o":"m 53 201 l 53 537 q 113 661 54 600 q 283 734 183 732 l 283 627 q 182 570 218 627 q 167 525 167 545 l 167 433 l 471 433 l 471 525 q 408 614 471 586 q 350 628 380 628 l 350 734 q 517 667 444 734 q 579 538 578 609 l 579 323 l 167 323 l 167 201 q 210 130 167 163 q 285 106 245 106 l 285 0 q 91 100 161 0 q 53 201 53 153 m 350 0 l 350 107 q 472 178 431 107 q 484 206 480 193 l 581 171 q 469 30 556 77 q 350 0 414 0 z "},"é":{"ha":635,"x_min":53,"x_max":581,"o":"m 277 815 l 327 1021 l 437 1021 l 355 815 l 277 815 m 53 201 l 53 537 q 113 661 54 600 q 283 734 183 732 l 283 627 q 182 570 218 627 q 167 525 167 545 l 167 433 l 471 433 l 471 525 q 408 614 471 586 q 350 628 380 628 l 350 734 q 517 667 444 734 q 579 538 578 609 l 579 323 l 167 323 l 167 201 q 210 130 167 163 q 285 106 245 106 l 285 0 q 91 100 161 0 q 53 201 53 153 m 350 0 l 350 107 q 472 178 431 107 q 484 206 480 193 l 581 171 q 469 30 556 77 q 350 0 414 0 z "},"ě":{"ha":635,"x_min":53,"x_max":581,"o":"m 180 1021 l 258 1021 l 316 903 l 373 1021 l 450 1021 l 349 815 l 283 815 l 180 1021 m 53 201 l 53 537 q 113 661 54 600 q 283 734 183 732 l 283 627 q 182 570 218 627 q 167 525 167 545 l 167 433 l 471 433 l 471 525 q 408 614 471 586 q 350 628 380 628 l 350 734 q 517 667 444 734 q 579 538 578 609 l 579 323 l 167 323 l 167 201 q 210 130 167 163 q 285 106 245 106 l 285 0 q 91 100 161 0 q 53 201 53 153 m 350 0 l 350 107 q 472 178 431 107 q 484 206 480 193 l 581 171 q 469 30 556 77 q 350 0 414 0 z "},"ê":{"ha":635,"x_min":53,"x_max":581,"o":"m 180 815 l 282 1021 l 347 1021 l 450 815 l 373 815 l 315 933 l 258 815 l 180 815 m 53 201 l 53 537 q 113 661 54 600 q 283 734 183 732 l 283 627 q 182 570 218 627 q 167 525 167 545 l 167 433 l 471 433 l 471 525 q 408 614 471 586 q 350 628 380 628 l 350 734 q 517 667 444 734 q 579 538 578 609 l 579 323 l 167 323 l 167 201 q 210 130 167 163 q 285 106 245 106 l 285 0 q 91 100 161 0 q 53 201 53 153 m 350 0 l 350 107 q 472 178 431 107 q 484 206 480 193 l 581 171 q 469 30 556 77 q 350 0 414 0 z "},"ë":{"ha":635,"x_min":53,"x_max":581,"o":"m 157 883 q 198 945 157 926 q 225 951 212 951 q 288 910 270 951 q 293 883 293 897 q 252 821 293 838 q 225 815 239 815 q 163 856 180 815 q 157 883 157 869 m 338 883 q 377 944 338 925 q 407 951 392 951 q 468 910 450 951 q 473 883 473 897 q 434 821 473 838 q 407 815 420 815 q 343 856 361 815 q 338 883 338 869 m 53 201 l 53 537 q 113 661 54 600 q 283 734 183 732 l 283 627 q 182 570 218 627 q 167 525 167 545 l 167 433 l 471 433 l 471 525 q 408 614 471 586 q 350 628 380 628 l 350 734 q 517 667 444 734 q 579 538 578 609 l 579 323 l 167 323 l 167 201 q 210 130 167 163 q 285 106 245 106 l 285 0 q 91 100 161 0 q 53 201 53 153 m 350 0 l 350 107 q 472 178 431 107 q 484 206 480 193 l 581 171 q 469 30 556 77 q 350 0 414 0 z "},"ė":{"ha":635,"x_min":53,"x_max":581,"o":"m 245 884 q 288 949 245 932 q 315 955 301 955 q 378 911 361 955 q 384 884 384 899 q 343 821 384 838 q 315 815 328 815 q 251 856 269 815 q 245 884 245 871 m 53 201 l 53 537 q 113 661 54 600 q 283 734 183 732 l 283 627 q 182 570 218 627 q 167 525 167 545 l 167 433 l 471 433 l 471 525 q 408 614 471 586 q 350 628 380 628 l 350 734 q 517 667 444 734 q 579 538 578 609 l 579 323 l 167 323 l 167 201 q 210 130 167 163 q 285 106 245 106 l 285 0 q 91 100 161 0 q 53 201 53 153 m 350 0 l 350 107 q 472 178 431 107 q 484 206 480 193 l 581 171 q 469 30 556 77 q 350 0 414 0 z "},"è":{"ha":635,"x_min":53,"x_max":581,"o":"m 194 1021 l 304 1021 l 354 815 l 275 815 l 194 1021 m 53 201 l 53 537 q 113 661 54 600 q 283 734 183 732 l 283 627 q 182 570 218 627 q 167 525 167 545 l 167 433 l 471 433 l 471 525 q 408 614 471 586 q 350 628 380 628 l 350 734 q 517 667 444 734 q 579 538 578 609 l 579 323 l 167 323 l 167 201 q 210 130 167 163 q 285 106 245 106 l 285 0 q 91 100 161 0 q 53 201 53 153 m 350 0 l 350 107 q 472 178 431 107 q 484 206 480 193 l 581 171 q 469 30 556 77 q 350 0 414 0 z "},"…":{"ha":861,"x_min":56,"x_max":806,"o":"m 56 38 q 96 99 56 83 q 122 104 109 104 q 183 65 165 104 q 189 38 189 52 q 149 -24 189 -7 q 122 -30 136 -30 q 60 12 76 -30 q 56 38 56 24 m 365 38 q 404 99 365 81 q 431 104 418 104 q 492 65 475 104 q 498 38 498 52 q 458 -24 498 -7 q 431 -30 445 -30 q 370 11 388 -30 q 365 38 365 24 m 673 38 q 712 99 673 81 q 739 104 726 104 q 800 65 783 104 q 806 38 806 52 q 766 -24 806 -7 q 739 -30 753 -30 q 678 11 696 -30 q 673 38 673 24 z "},"ē":{"ha":635,"x_min":53,"x_max":581,"o":"m 100 815 l 100 888 l 529 888 l 529 815 l 100 815 m 53 201 l 53 537 q 113 661 54 600 q 283 734 183 732 l 283 627 q 182 570 218 627 q 167 525 167 545 l 167 433 l 471 433 l 471 525 q 408 614 471 586 q 350 628 380 628 l 350 734 q 517 667 444 734 q 579 538 578 609 l 579 323 l 167 323 l 167 201 q 210 130 167 163 q 285 106 245 106 l 285 0 q 91 100 161 0 q 53 201 53 153 m 350 0 l 350 107 q 472 178 431 107 q 484 206 480 193 l 581 171 q 469 30 556 77 q 350 0 414 0 z "},"—":{"ha":1229,"x_min":35,"x_max":1194,"o":"m 35 343 l 35 452 l 1194 452 l 1194 343 l 35 343 z "},"–":{"ha":722,"x_min":35,"x_max":686,"o":"m 35 345 l 35 453 l 686 453 l 686 345 l 35 345 z "},"ę":{"ha":635,"x_min":53,"x_max":581,"o":"m 486 -251 l 486 -165 q 376 -104 404 -165 q 365 -54 365 -81 l 277 -54 q 350 -210 277 -155 q 486 -251 404 -251 m 53 201 l 53 537 q 113 661 54 600 q 283 734 183 732 l 283 627 q 182 570 218 627 q 167 525 167 545 l 167 433 l 471 433 l 471 525 q 408 614 471 586 q 350 628 380 628 l 350 734 q 517 667 444 734 q 579 538 578 609 l 579 323 l 167 323 l 167 201 q 210 130 167 163 q 285 106 245 106 l 285 0 q 91 100 161 0 q 53 201 53 153 m 350 0 l 350 107 q 472 178 431 107 q 484 206 480 193 l 581 171 q 469 30 556 77 q 350 0 414 0 z "},"=":{"ha":567,"x_min":68,"x_max":499,"o":"m 68 240 l 68 350 l 499 350 l 499 240 l 68 240 m 68 441 l 68 551 l 499 551 l 499 441 l 68 441 z "},"℮":{"ha":720,"x_min":41,"x_max":644,"o":"m 305 -1 q 98 102 176 -1 q 41 277 41 178 l 41 680 q 129 884 41 802 q 305 956 203 956 l 305 840 q 183 761 224 838 q 159 651 159 713 l 159 499 l 526 499 l 526 651 q 444 823 526 777 q 380 840 414 838 l 380 956 q 585 854 505 956 q 644 680 644 776 l 644 382 l 159 382 l 159 305 q 247 129 159 171 q 305 115 275 117 l 305 -1 m 381 -1 l 381 117 q 500 175 454 118 q 528 231 522 202 l 644 199 q 526 39 627 98 q 381 -1 458 -1 z "},"ð":{"ha":570,"x_min":38,"x_max":547,"o":"m 38 191 l 38 510 q 95 631 38 572 q 260 700 161 700 l 260 597 q 153 532 183 597 q 144 492 144 511 l 144 209 q 190 125 144 159 q 260 102 222 102 l 260 -1 q 69 99 136 -1 q 38 191 38 148 m 260 906 l 260 968 q 453 863 387 944 l 528 886 l 547 822 l 490 804 q 532 595 532 719 l 532 191 q 476 68 532 127 q 316 -1 412 0 l 316 102 q 419 165 388 102 q 429 206 429 187 l 427 499 q 378 581 427 552 q 316 597 350 597 l 316 700 q 423 665 380 699 q 400 777 420 734 l 317 753 l 298 815 l 369 837 q 260 906 335 875 z "},"!":{"ha":251,"x_min":58,"x_max":191,"o":"m 58 50 q 98 113 58 94 q 125 118 111 118 q 186 77 168 118 q 191 50 191 64 q 152 -11 191 7 q 125 -16 138 -16 q 64 23 81 -16 q 58 50 58 37 m 71 225 l 71 949 l 182 949 l 182 225 l 71 225 z "},"¡":{"ha":255,"x_min":28,"x_max":170,"o":"m 28 667 q 68 730 28 711 q 99 738 84 738 q 163 696 144 738 q 170 667 170 682 q 129 604 170 623 q 99 597 114 597 q 37 636 56 597 q 28 667 28 651 m 43 -194 l 43 538 l 157 538 l 157 -194 l 43 -194 z "},"f":{"ha":380,"x_min":31,"x_max":365,"o":"m 31 563 l 31 674 l 121 674 l 121 753 q 171 891 121 829 q 315 958 227 956 l 365 958 l 339 848 l 313 848 q 235 753 236 844 l 235 673 l 327 674 l 327 563 l 235 563 l 235 0 l 121 0 l 121 563 l 31 563 z "},"ﬁ":{"ha":670,"x_min":64,"x_max":530,"o":"m 64 571 l 149 571 l 149 0 l 256 0 l 256 571 l 411 571 l 411 0 l 518 0 l 518 671 l 256 671 l 256 749 q 327 842 259 834 l 357 842 l 380 944 l 334 944 q 167 830 214 944 q 149 749 149 788 l 149 671 l 64 671 l 64 571 m 397 821 q 437 761 397 779 q 464 755 450 755 q 525 793 506 755 q 530 821 530 807 q 491 882 530 864 q 464 887 479 887 q 403 848 420 887 q 397 821 397 834 z "},"ﬂ":{"ha":533,"x_min":64,"x_max":530,"o":"m 64 571 l 149 571 l 149 0 l 256 0 l 256 571 l 343 571 l 343 671 l 256 670 l 256 749 q 288 826 256 799 q 332 842 307 841 l 422 842 l 422 0 l 530 0 l 530 944 l 334 944 q 167 830 214 944 q 149 749 149 788 l 149 671 l 64 671 l 64 571 z "},"ƒ":{"ha":518,"x_min":35,"x_max":483,"o":"m 35 -228 l 60 -134 l 115 -134 q 191 -54 184 -122 l 191 570 l 106 570 l 106 671 l 191 671 l 191 736 q 251 878 191 814 q 400 944 312 943 l 483 944 l 460 842 l 419 842 q 298 731 305 829 l 298 670 l 388 671 l 388 570 l 298 570 l 298 -41 q 193 -214 298 -176 q 110 -228 156 -228 l 35 -228 z "},"⁄":{"ha":693,"x_min":16,"x_max":677,"o":"m 16 -1 l 602 951 l 677 951 l 95 -1 l 16 -1 z "},"g":{"ha":602,"x_min":34,"x_max":549,"o":"m 34 -251 l 62 -145 l 317 -145 q 429 -85 393 -142 q 439 -52 439 -66 l 439 46 q 328 4 384 7 l 328 109 q 423 159 388 109 q 439 205 439 182 l 439 537 q 382 618 439 589 q 328 632 355 632 l 328 739 q 435 701 389 739 q 439 699 438 700 l 439 739 l 549 739 l 549 -52 q 496 -172 549 -110 q 332 -251 430 -250 l 34 -251 m 47 203 l 47 543 q 104 667 49 606 q 269 739 171 738 l 269 632 q 168 575 202 632 q 156 538 156 555 l 156 205 q 198 133 156 164 q 269 111 229 111 l 269 4 q 79 110 144 5 q 47 203 47 160 z "},"ğ":{"ha":602,"x_min":34,"x_max":549,"o":"m 184 926 l 248 926 q 278 884 248 894 q 292 883 286 883 q 334 913 324 883 q 335 926 335 921 l 399 926 q 351 840 399 872 q 292 821 324 821 q 198 878 229 821 q 184 926 184 902 m 34 -251 l 62 -145 l 317 -145 q 429 -85 393 -142 q 439 -52 439 -66 l 439 46 q 328 4 384 7 l 328 109 q 423 159 388 109 q 439 205 439 182 l 439 537 q 382 618 439 589 q 328 632 355 632 l 328 739 q 435 701 389 739 q 439 699 438 700 l 439 739 l 549 739 l 549 -52 q 496 -172 549 -110 q 332 -251 430 -250 l 34 -251 m 47 203 l 47 543 q 104 667 49 606 q 269 739 171 738 l 269 632 q 168 575 202 632 q 156 538 156 555 l 156 205 q 198 133 156 164 q 269 111 229 111 l 269 4 q 79 110 144 5 q 47 203 47 160 z "},"ß":{"ha":708,"x_min":35,"x_max":673,"o":"m 35 0 l 35 620 q 52 791 37 739 q 307 956 102 955 q 549 745 530 956 q 551 703 551 724 l 551 551 l 473 551 q 415 507 426 548 q 414 496 414 502 q 476 427 414 456 q 530 406 500 415 q 673 212 671 355 q 572 33 673 91 q 444 0 515 0 l 270 0 l 270 96 l 423 96 q 563 167 534 99 q 571 208 571 186 q 528 294 571 266 q 453 332 522 297 q 350 397 374 372 q 312 503 312 439 q 418 636 312 604 q 450 643 434 640 l 450 659 q 411 818 450 779 q 307 853 376 853 q 146 675 148 852 l 146 0 l 35 0 z "},"`":{"ha":334,"x_min":56,"x_max":216,"o":"m 56 1027 l 165 1027 l 216 821 l 137 821 l 56 1027 z "},">":{"ha":576,"x_min":47,"x_max":528,"o":"m 47 107 l 47 217 l 381 396 l 47 567 l 47 678 l 528 427 l 528 363 l 47 107 z "},"≥":{"ha":600,"x_min":38,"x_max":559,"o":"m 41 202 l 41 312 l 401 487 l 41 659 l 41 769 l 559 518 l 559 457 l 41 202 m 38 38 l 38 134 l 559 134 l 559 38 l 38 38 z "},"«":{"ha":633,"x_min":33,"x_max":605,"o":"m 33 368 l 33 419 l 319 631 l 319 515 l 149 396 l 319 269 l 319 155 l 33 368 m 319 368 l 319 419 l 605 631 l 605 515 l 435 396 l 605 269 l 605 155 l 319 368 z "},"»":{"ha":620,"x_min":20,"x_max":593,"o":"m 20 168 l 20 275 l 203 396 l 20 507 l 20 616 l 307 427 l 307 359 l 20 168 m 307 168 l 307 275 l 490 396 l 307 507 l 307 616 l 593 427 l 593 359 l 307 168 z "},"‹":{"ha":458,"x_min":72,"x_max":384,"o":"m 72 396 l 250 678 l 384 678 l 206 396 l 384 107 l 250 107 l 72 396 z "},"›":{"ha":458,"x_min":73,"x_max":385,"o":"m 73 107 l 251 396 l 73 678 l 208 678 l 385 396 l 208 107 l 73 107 z "},"h":{"ha":621,"x_min":56,"x_max":574,"o":"m 56 -4 l 56 958 l 163 958 l 163 674 q 286 720 213 719 l 286 614 q 183 560 225 614 q 164 513 164 534 l 164 -4 l 56 -4 m 350 614 l 350 720 q 540 629 476 720 q 574 525 574 581 l 574 -4 l 465 -4 l 465 513 q 419 595 465 564 q 350 614 389 614 z "},"˝":{"ha":416,"x_min":95,"x_max":420,"o":"m 260 821 l 311 1027 l 420 1027 l 339 821 l 260 821 m 95 821 l 145 1027 l 255 1027 l 174 821 l 95 821 z "},"-":{"ha":549,"x_min":61,"x_max":490,"o":"m 61 345 l 61 453 l 490 453 l 490 345 l 61 345 z "},"i":{"ha":256,"x_min":62,"x_max":194,"o":"m 62 834 q 102 894 62 876 q 129 899 115 899 q 189 861 170 899 q 194 834 194 848 q 156 774 194 793 q 129 769 142 769 q 68 807 87 769 q 62 834 62 821 m 72 0 l 72 715 l 186 715 l 186 0 l 72 0 z "},"í":{"ha":236,"x_min":65,"x_max":240,"o":"m 80 815 l 130 1021 l 240 1021 l 159 815 l 80 815 m 65 0 l 65 700 l 172 700 l 172 0 l 65 0 z "},"î":{"ha":236,"x_min":-16,"x_max":254,"o":"m -16 815 l 85 1021 l 151 1021 l 254 815 l 176 815 l 118 933 l 61 815 l -16 815 m 65 0 l 65 700 l 172 700 l 172 0 l 65 0 z "},"ï":{"ha":236,"x_min":-39,"x_max":277,"o":"m -39 883 q 1 945 -39 926 q 28 951 14 951 q 91 910 73 951 q 96 883 96 897 q 56 821 96 838 q 28 815 42 815 q -34 856 -16 815 q -39 883 -39 869 m 141 883 q 180 944 141 925 q 210 951 195 951 q 271 910 254 951 q 277 883 277 897 q 237 821 277 838 q 210 815 224 815 q 146 856 164 815 q 141 883 141 869 m 65 0 l 65 700 l 172 700 l 172 0 l 65 0 z "},"ì":{"ha":236,"x_min":-3,"x_max":172,"o":"m -3 1021 l 107 1021 l 157 815 l 79 815 l -3 1021 m 65 0 l 65 700 l 172 700 l 172 0 l 65 0 z "},"ī":{"ha":236,"x_min":-95,"x_max":334,"o":"m -95 815 l -95 888 l 334 888 l 334 815 l -95 815 m 65 0 l 65 700 l 172 700 l 172 0 l 65 0 z "},"∞":{"ha":1082,"x_min":41,"x_max":1046,"o":"m 319 -1 l 319 102 q 399 148 377 102 q 400 151 400 149 l 488 353 l 401 549 q 319 598 380 597 l 319 700 q 475 629 418 700 q 495 595 487 613 l 545 475 l 594 594 q 712 692 627 667 q 770 700 741 700 l 770 597 q 688 548 708 595 l 602 353 l 689 152 q 770 103 709 104 l 770 0 q 616 75 673 0 q 598 104 605 90 l 545 231 l 491 104 q 370 5 454 28 q 319 -1 345 -1 m 263 -1 q 72 100 138 -1 q 41 191 41 149 l 41 510 q 98 631 41 572 q 263 700 164 700 l 263 598 q 156 533 186 598 q 146 492 146 511 l 146 209 q 193 125 146 159 q 263 102 225 102 l 263 -1 m 826 -1 l 826 102 q 929 164 895 102 q 941 208 941 187 l 941 492 q 890 581 941 551 q 826 597 861 597 l 826 700 q 1012 602 947 700 q 1046 510 1046 553 l 1046 191 q 990 69 1046 129 q 826 -1 924 0 z "},"∫":{"ha":422,"x_min":20,"x_max":401,"o":"m 20 -193 q 106 -171 62 -203 q 172 -4 172 -121 l 172 848 q 281 1067 172 1001 q 401 1093 343 1104 l 401 1032 q 317 1013 362 1046 q 252 848 252 964 l 252 -4 q 145 -225 252 -157 q 20 -254 81 -264 l 20 -193 z "},"į":{"ha":256,"x_min":62,"x_max":294,"o":"m 294 -248 q 103 -138 153 -248 q 85 -52 85 -96 l 174 -52 q 248 -156 174 -133 q 294 -163 271 -163 l 294 -248 m 62 834 q 102 894 62 876 q 129 899 115 899 q 189 861 170 899 q 194 834 194 848 q 156 774 194 793 q 129 769 142 769 q 68 807 87 769 q 62 834 62 821 m 72 0 l 72 715 l 186 715 l 186 0 l 72 0 z "},"j":{"ha":279,"x_min":-57,"x_max":218,"o":"m 95 715 l 210 715 l 210 -52 q 156 -180 210 -117 q -5 -258 91 -256 l -57 -258 l -31 -148 l -4 -148 q 83 -92 52 -145 q 95 -52 95 -71 l 95 715 m 87 834 q 126 894 87 876 q 153 899 140 899 q 213 859 197 899 q 218 834 218 848 q 179 774 218 791 q 153 769 167 769 q 92 807 111 769 q 87 834 87 821 z "},"k":{"ha":648,"x_min":56,"x_max":621,"o":"m 56 0 l 56 958 l 172 958 l 172 0 l 56 0 m 206 368 l 483 732 l 620 732 l 340 368 l 621 0 l 486 0 l 206 368 z "},"l":{"ha":235,"x_min":57,"x_max":178,"o":"m 57 0 l 57 958 l 178 958 l 178 0 l 57 0 z "},"ĺ":{"ha":235,"x_min":57,"x_max":237,"o":"m 77 1069 l 127 1275 l 237 1275 l 156 1069 l 77 1069 m 57 0 l 57 958 l 178 958 l 178 0 l 57 0 z "},"ľ":{"ha":349,"x_min":50,"x_max":397,"o":"m 237 780 l 288 986 l 397 986 l 347 780 l 237 780 m 50 0 l 50 958 l 171 958 l 171 0 l 50 0 z "},"<":{"ha":576,"x_min":47,"x_max":528,"o":"m 47 363 l 47 427 l 528 678 l 528 567 l 194 396 l 528 217 l 528 107 l 47 363 z "},"≤":{"ha":600,"x_min":31,"x_max":559,"o":"m 549 202 l 31 457 l 31 517 l 549 768 l 549 659 l 189 487 l 549 312 l 549 202 m 38 38 l 38 133 l 559 133 l 559 38 l 38 38 z "},"¬":{"ha":704,"x_min":54,"x_max":636,"o":"m 54 473 l 54 574 l 636 574 l 636 282 l 533 282 l 533 473 l 54 473 z "},"◊":{"ha":571,"x_min":-4,"x_max":567,"o":"m -4 477 l 251 958 l 315 958 l 567 477 l 311 -3 l 247 -3 l -4 477 m 107 477 l 278 144 l 457 477 l 282 811 l 107 477 z "},"ł":{"ha":575,"x_min":103,"x_max":491,"o":"m 239 -5 l 359 -5 l 359 488 l 491 590 l 427 673 l 359 620 l 359 952 l 239 952 l 239 526 l 103 420 l 167 338 l 239 393 l 239 -5 z "},"m":{"ha":989,"x_min":52,"x_max":937,"o":"m 52 0 l 52 536 q 109 671 52 612 q 270 736 172 736 l 270 625 q 174 562 197 625 q 167 521 167 541 l 167 0 l 52 0 m 331 625 l 331 736 q 494 665 434 734 q 656 736 562 734 l 656 625 q 559 562 583 625 q 552 521 552 543 l 552 0 l 437 0 l 437 521 q 378 616 437 590 q 331 625 357 625 m 718 625 l 718 736 q 909 631 846 736 q 937 536 937 582 l 937 0 l 822 0 l 822 521 q 760 618 822 595 q 718 625 741 625 z "},"¯":{"ha":692,"x_min":47,"x_max":658,"o":"m 47 1061 l 658 1061 l 658 966 l 47 966 l 47 1061 z "},"−":{"ha":564,"x_min":61,"x_max":490,"o":"m 61 345 l 61 453 l 490 453 l 490 345 l 61 345 z "},"×":{"ha":799,"x_min":145,"x_max":776,"o":"m 222 250 l 145 328 l 381 566 l 145 803 l 222 882 l 460 644 l 697 882 l 776 803 l 538 566 l 776 328 l 697 250 l 460 488 l 222 250 z "},"n":{"ha":633,"x_min":52,"x_max":582,"o":"m 52 0 l 52 536 q 110 663 52 601 q 288 736 182 736 l 288 624 q 182 570 218 624 q 167 522 167 547 l 167 0 l 52 0 m 347 624 l 347 736 q 544 635 473 736 q 582 536 582 582 l 582 0 l 467 0 l 467 522 q 425 597 467 564 q 347 624 391 624 z "},"ń":{"ha":633,"x_min":52,"x_max":582,"o":"m 278 819 l 328 1025 l 438 1025 l 357 819 l 278 819 m 52 0 l 52 536 q 110 663 52 601 q 288 736 182 736 l 288 624 q 182 570 218 624 q 167 522 167 547 l 167 0 l 52 0 m 347 624 l 347 736 q 544 635 473 736 q 582 536 582 582 l 582 0 l 467 0 l 467 522 q 425 597 467 564 q 347 624 391 624 z "},"ň":{"ha":633,"x_min":52,"x_max":582,"o":"m 182 1025 l 259 1025 l 317 907 l 374 1025 l 452 1025 l 350 819 l 285 819 l 182 1025 m 52 0 l 52 536 q 110 663 52 601 q 288 736 182 736 l 288 624 q 182 570 218 624 q 167 522 167 547 l 167 0 l 52 0 m 347 624 l 347 736 q 544 635 473 736 q 582 536 582 582 l 582 0 l 467 0 l 467 522 q 425 597 467 564 q 347 624 391 624 z "},"≠":{"ha":567,"x_min":68,"x_max":499,"o":"m 98 -99 l 208 -99 l 288 240 l 499 240 l 499 350 l 313 350 l 335 441 l 499 441 l 499 551 l 361 551 l 444 903 l 335 903 l 251 551 l 68 551 l 68 441 l 225 441 l 203 350 l 68 350 l 68 240 l 178 240 l 98 -99 z "},"ñ":{"ha":633,"x_min":52,"x_max":582,"o":"m 126 844 l 126 937 q 221 967 179 967 q 317 936 255 967 q 399 911 365 911 q 507 949 446 913 l 507 857 q 393 819 445 819 q 293 850 357 819 q 216 873 247 873 q 126 844 174 872 m 52 0 l 52 536 q 110 663 52 601 q 288 736 182 736 l 288 624 q 182 570 218 624 q 167 522 167 547 l 167 0 l 52 0 m 347 624 l 347 736 q 544 635 473 736 q 582 536 582 582 l 582 0 l 467 0 l 467 522 q 425 597 467 564 q 347 624 391 624 z "},"#":{"ha":1019,"x_min":46,"x_max":966,"o":"m 46 269 l 68 373 l 283 373 l 319 578 l 92 578 l 110 682 l 336 682 l 380 925 l 486 925 l 442 682 l 644 682 l 686 925 l 792 925 l 750 682 l 966 682 l 949 576 l 731 578 l 696 372 l 918 372 l 903 267 l 677 269 l 635 30 l 530 30 l 571 269 l 370 269 l 328 30 l 222 30 l 264 269 l 46 269 m 389 373 l 590 372 l 625 578 l 425 578 l 389 373 z "},"o":{"ha":620,"x_min":52,"x_max":568,"o":"m 52 201 l 52 536 q 109 661 52 600 q 285 734 179 734 l 285 624 q 174 557 205 624 q 164 517 164 537 l 164 218 q 210 133 164 168 q 285 109 243 109 l 285 -1 q 85 103 156 -1 q 52 201 52 155 m 343 -1 l 343 109 q 446 174 415 109 q 457 216 457 195 l 457 517 q 410 605 457 572 q 342 624 380 624 l 342 734 q 534 632 467 734 q 568 536 568 582 l 568 201 q 511 72 568 134 q 343 -1 445 0 z "},"ó":{"ha":620,"x_min":52,"x_max":568,"o":"m 274 815 l 324 1021 l 434 1021 l 353 815 l 274 815 m 52 201 l 52 536 q 109 661 52 600 q 285 734 179 734 l 285 624 q 174 557 205 624 q 164 517 164 537 l 164 218 q 210 133 164 168 q 285 109 243 109 l 285 -1 q 85 103 156 -1 q 52 201 52 155 m 343 -1 l 343 109 q 446 174 415 109 q 457 216 457 195 l 457 517 q 410 605 457 572 q 342 624 380 624 l 342 734 q 534 632 467 734 q 568 536 568 582 l 568 201 q 511 72 568 134 q 343 -1 445 0 z "},"ô":{"ha":620,"x_min":52,"x_max":568,"o":"m 178 815 l 279 1021 l 345 1021 l 448 815 l 370 815 l 312 933 l 255 815 l 178 815 m 52 201 l 52 536 q 109 661 52 600 q 285 734 179 734 l 285 624 q 174 557 205 624 q 164 517 164 537 l 164 218 q 210 133 164 168 q 285 109 243 109 l 285 -1 q 85 103 156 -1 q 52 201 52 155 m 343 -1 l 343 109 q 446 174 415 109 q 457 216 457 195 l 457 517 q 410 605 457 572 q 342 624 380 624 l 342 734 q 534 632 467 734 q 568 536 568 582 l 568 201 q 511 72 568 134 q 343 -1 445 0 z "},"ö":{"ha":620,"x_min":52,"x_max":568,"o":"m 156 883 q 197 945 156 926 q 224 951 209 951 q 286 910 269 951 q 292 883 292 897 q 251 821 292 838 q 224 815 237 815 q 161 856 179 815 q 156 883 156 869 m 336 883 q 376 944 336 925 q 406 951 391 951 q 467 910 449 951 q 472 883 472 897 q 433 821 472 838 q 406 815 419 815 q 342 856 359 815 q 336 883 336 869 m 52 201 l 52 536 q 109 661 52 600 q 285 734 179 734 l 285 624 q 174 557 205 624 q 164 517 164 537 l 164 218 q 210 133 164 168 q 285 109 243 109 l 285 -1 q 85 103 156 -1 q 52 201 52 155 m 343 -1 l 343 109 q 446 174 415 109 q 457 216 457 195 l 457 517 q 410 605 457 572 q 342 624 380 624 l 342 734 q 534 632 467 734 q 568 536 568 582 l 568 201 q 511 72 568 134 q 343 -1 445 0 z "},"œ":{"ha":972,"x_min":38,"x_max":933,"o":"m 483 79 q 681 0 551 0 q 920 127 860 0 q 933 163 928 145 l 842 195 q 708 96 821 107 q 680 95 693 95 q 553 145 600 95 q 530 202 530 172 l 530 311 l 932 311 l 932 513 q 846 655 932 594 q 711 700 780 700 l 711 601 q 810 551 773 601 q 830 494 830 524 l 830 411 l 530 411 l 530 490 q 579 578 530 543 q 648 600 612 600 l 648 700 q 481 623 547 699 q 316 700 415 699 l 316 597 q 419 536 389 597 q 430 492 430 514 l 430 205 q 384 121 430 153 q 316 99 354 99 l 316 -1 q 483 79 420 0 m 38 191 q 92 72 38 132 q 260 -1 159 0 l 260 99 q 157 160 191 99 q 144 208 144 184 l 144 492 q 194 581 144 549 q 260 597 224 597 l 260 700 q 71 601 137 700 q 38 510 38 552 l 38 191 z "},"˛":{"ha":297,"x_min":-65,"x_max":144,"o":"m 144 -251 q -47 -141 3 -251 q -65 -54 -65 -99 l 23 -54 q 98 -159 23 -136 q 144 -165 121 -165 l 144 -251 z "},"ò":{"ha":620,"x_min":52,"x_max":568,"o":"m 191 1021 l 301 1021 l 351 815 l 273 815 l 191 1021 m 52 201 l 52 536 q 109 661 52 600 q 285 734 179 734 l 285 624 q 174 557 205 624 q 164 517 164 537 l 164 218 q 210 133 164 168 q 285 109 243 109 l 285 -1 q 85 103 156 -1 q 52 201 52 155 m 343 -1 l 343 109 q 446 174 415 109 q 457 216 457 195 l 457 517 q 410 605 457 572 q 342 624 380 624 l 342 734 q 534 632 467 734 q 568 536 568 582 l 568 201 q 511 72 568 134 q 343 -1 445 0 z "},"ő":{"ha":620,"x_min":52,"x_max":568,"o":"m 365 815 l 415 1021 l 525 1021 l 444 815 l 365 815 m 199 815 l 250 1021 l 359 1021 l 278 815 l 199 815 m 52 201 l 52 536 q 109 661 52 600 q 285 734 179 734 l 285 624 q 174 557 205 624 q 164 517 164 537 l 164 218 q 210 133 164 168 q 285 109 243 109 l 285 -1 q 85 103 156 -1 q 52 201 52 155 m 343 -1 l 343 109 q 446 174 415 109 q 457 216 457 195 l 457 517 q 410 605 457 572 q 342 624 380 624 l 342 734 q 534 632 467 734 q 568 536 568 582 l 568 201 q 511 72 568 134 q 343 -1 445 0 z "},"ō":{"ha":620,"x_min":52,"x_max":568,"o":"m 99 815 l 99 888 l 528 888 l 528 815 l 99 815 m 52 201 l 52 536 q 109 661 52 600 q 285 734 179 734 l 285 624 q 174 557 205 624 q 164 517 164 537 l 164 218 q 210 133 164 168 q 285 109 243 109 l 285 -1 q 85 103 156 -1 q 52 201 52 155 m 343 -1 l 343 109 q 446 174 415 109 q 457 216 457 195 l 457 517 q 410 605 457 572 q 342 624 380 624 l 342 734 q 534 632 467 734 q 568 536 568 582 l 568 201 q 511 72 568 134 q 343 -1 445 0 z "},"½":{"ha":769,"x_min":0,"x_max":722,"o":"m 418 0 l 418 69 l 713 69 l 713 0 l 418 0 m 0 0 l 586 949 l 661 949 l 79 0 l 0 0 m 77 863 l 77 918 l 115 949 l 189 949 l 189 475 l 115 475 l 115 863 l 77 863 m 410 346 q 477 456 414 418 q 541 476 507 473 l 541 404 q 486 369 505 404 q 476 332 477 353 l 410 346 m 418 102 q 529 228 418 179 q 544 235 534 231 q 557 240 553 239 q 643 304 629 273 q 648 330 648 316 q 574 404 646 403 l 574 476 q 715 378 689 476 q 722 330 722 355 q 632 203 720 248 q 598 189 621 198 q 507 130 524 159 q 500 102 500 115 l 418 102 z "},"¼":{"ha":682,"x_min":0,"x_max":661,"o":"m 524 0 l 524 475 l 597 475 l 597 149 l 633 149 l 633 83 l 597 83 l 597 0 l 524 0 m 77 863 l 77 918 l 115 949 l 189 949 l 189 475 l 115 475 l 115 863 l 77 863 m 316 83 l 316 149 l 490 446 l 490 313 l 396 149 l 490 149 l 490 83 l 316 83 m 0 0 l 586 949 l 661 949 l 79 0 l 0 0 z "},"¹":{"ha":171,"x_min":14,"x_max":107,"o":"m 14 871 l 14 921 l 49 948 l 107 948 l 107 522 l 49 522 l 49 871 l 14 871 z "},"ª":{"ha":323,"x_min":26,"x_max":300,"o":"m 27 490 l 27 545 l 293 545 l 293 490 l 27 490 m 27 673 q 76 602 27 627 q 136 589 103 589 l 136 640 q 76 686 79 643 l 76 704 q 84 726 77 719 q 172 753 91 731 q 225 770 209 762 l 225 692 q 170 640 222 642 l 170 589 q 244 612 217 589 q 298 589 266 589 l 298 642 q 281 665 282 643 l 281 849 q 235 936 281 903 q 170 955 206 955 l 170 903 q 221 868 209 903 q 225 848 225 859 l 225 836 q 125 791 225 817 q 61 770 73 776 q 27 705 27 749 l 27 673 m 31 863 l 81 844 q 121 901 81 888 q 137 903 129 902 l 137 955 q 47 910 80 955 q 31 863 31 887 z "},"º":{"ha":312,"x_min":35,"x_max":277,"o":"m 35 528 l 35 586 l 277 586 l 277 528 l 35 528 m 41 716 l 41 865 q 79 933 41 903 q 145 955 109 954 l 145 905 q 94 869 104 905 q 91 857 91 863 l 91 724 q 119 681 91 696 q 145 675 133 675 l 145 627 q 50 684 79 627 q 41 716 41 701 m 171 627 l 171 675 q 220 711 208 675 q 222 723 221 718 l 222 857 q 191 901 222 888 q 171 905 182 905 l 171 955 q 263 898 235 955 q 271 865 271 880 l 271 716 q 233 647 271 675 q 171 627 206 627 z "},"ø":{"ha":620,"x_min":9,"x_max":667,"o":"m 9 102 l 92 176 q 90 199 90 187 l 90 510 q 146 631 90 572 q 312 700 213 700 l 312 597 q 205 532 235 597 q 195 492 195 511 l 195 270 l 473 526 q 368 597 446 595 l 368 700 q 553 600 492 699 l 613 654 l 667 594 l 582 518 q 583 499 583 514 l 583 191 q 528 68 583 127 q 368 -1 464 0 l 368 102 q 471 165 439 102 q 480 206 480 187 l 480 423 l 205 171 q 312 102 240 106 l 312 -1 q 125 96 189 0 l 64 41 l 9 102 z "},"õ":{"ha":620,"x_min":52,"x_max":568,"o":"m 123 840 l 123 933 q 218 963 176 963 q 315 932 252 963 q 396 907 362 907 q 505 945 444 909 l 505 853 q 391 815 442 815 q 290 846 354 815 q 213 869 244 869 q 123 840 171 868 m 52 201 l 52 536 q 109 661 52 600 q 285 734 179 734 l 285 624 q 174 557 205 624 q 164 517 164 537 l 164 218 q 210 133 164 168 q 285 109 243 109 l 285 -1 q 85 103 156 -1 q 52 201 52 155 m 343 -1 l 343 109 q 446 174 415 109 q 457 216 457 195 l 457 517 q 410 605 457 572 q 342 624 380 624 l 342 734 q 534 632 467 734 q 568 536 568 582 l 568 201 q 511 72 568 134 q 343 -1 445 0 z "},"p":{"ha":625,"x_min":54,"x_max":571,"o":"m 243 0 l 243 110 l 345 110 q 450 170 422 110 q 458 203 458 187 l 458 530 q 418 598 458 568 q 336 624 384 624 l 237 624 l 237 734 l 336 734 q 537 631 468 734 q 571 534 571 581 l 571 199 q 514 72 571 133 q 343 0 446 0 l 243 0 m 54 -258 l 54 734 l 174 734 l 174 -258 l 54 -258 z "},"¶":{"ha":567,"x_min":47,"x_max":494,"o":"m 47 701 q 152 479 47 545 q 277 446 206 446 l 277 -7 l 351 -7 l 351 956 l 277 956 q 91 854 157 956 q 47 701 47 787 m 420 -7 l 494 -7 l 494 956 l 420 956 l 420 -7 z "},"(":{"ha":294,"x_min":54,"x_max":254,"o":"m 54 256 q 109 72 54 136 q 254 -27 156 19 l 254 46 q 161 165 182 91 q 149 264 149 209 l 149 708 q 216 880 149 829 q 252 903 229 890 l 252 975 q 111 887 149 930 q 54 692 54 818 l 54 256 z "},")":{"ha":300,"x_min":42,"x_max":245,"o":"m 42 -30 l 42 42 q 125 127 102 80 q 152 278 152 186 l 152 707 q 68 890 151 831 q 42 906 56 898 l 42 978 q 224 825 183 925 q 245 692 245 769 l 245 262 q 117 9 245 95 q 42 -30 83 -12 z "},"∂":{"ha":570,"x_min":38,"x_max":532,"o":"m 38 191 l 38 510 q 95 631 38 572 q 260 700 161 700 l 260 597 q 155 530 184 597 q 144 486 144 507 l 144 209 q 190 125 144 159 q 260 102 222 102 l 260 -1 q 69 99 136 -1 q 38 191 38 148 m 95 906 l 95 968 q 479 826 387 968 q 532 605 532 742 l 532 191 q 476 68 532 127 q 316 -1 412 0 l 316 102 q 418 165 387 102 q 429 209 429 187 l 427 494 q 378 581 427 549 q 316 597 350 597 l 316 700 q 423 665 380 699 q 235 890 423 840 q 95 906 171 906 z "},"%":{"ha":613,"x_min":56,"x_max":556,"o":"m 56 788 q 102 864 56 840 q 144 875 122 875 q 221 827 197 875 q 231 788 231 808 q 183 709 231 734 q 144 700 164 700 q 65 749 90 700 q 56 788 56 768 m 130 -24 l 368 978 l 477 978 l 241 -24 l 130 -24 m 380 164 q 429 243 380 218 q 468 252 448 252 q 547 203 522 252 q 556 164 556 184 q 510 88 556 113 q 468 77 490 77 q 389 125 414 77 q 380 164 380 144 z "},".":{"ha":247,"x_min":47,"x_max":199,"o":"m 47 69 q 91 138 47 118 q 123 146 107 146 q 193 102 171 146 q 199 69 199 85 q 157 3 199 23 q 123 -5 140 -5 q 56 37 76 -5 q 47 69 47 53 z "},"·":{"ha":269,"x_min":81,"x_max":233,"o":"m 81 465 q 125 534 81 514 q 157 543 141 543 q 227 498 205 543 q 233 465 233 481 q 191 399 233 419 q 157 391 174 391 q 90 433 110 391 q 81 465 81 449 z "},"‰":{"ha":1217,"x_min":23,"x_max":1192,"o":"m 164 477 l 164 548 q 98 652 111 555 q 95 708 95 678 l 95 735 q 148 876 96 849 q 164 882 156 880 l 164 951 q 43 852 79 949 q 23 716 23 796 q 134 481 23 514 q 164 477 149 477 m 203 477 q 327 586 293 480 q 345 716 345 640 q 239 944 345 909 q 203 951 221 951 l 203 882 q 264 803 247 876 q 273 735 273 772 l 273 708 q 212 549 273 568 q 203 548 208 548 l 203 477 m 662 0 l 662 71 q 595 175 609 77 q 593 231 593 201 l 593 258 q 646 399 594 372 q 662 404 654 403 l 662 473 q 541 374 576 472 q 521 239 521 319 q 632 4 521 37 q 662 0 647 0 m 701 0 q 825 109 791 3 q 842 239 842 163 q 736 467 842 431 q 701 473 719 473 l 701 404 q 762 326 745 399 q 770 258 770 294 l 770 231 q 709 72 770 91 q 701 71 705 71 l 701 0 m 1012 0 l 1012 71 q 948 168 962 77 q 944 231 944 197 l 944 258 q 997 399 944 372 q 1013 404 1005 403 l 1013 473 q 892 374 928 472 q 872 239 872 319 q 981 5 872 39 q 1012 0 997 0 m 1053 0 q 1173 102 1138 3 q 1192 239 1192 159 q 1086 467 1192 431 q 1051 473 1069 473 l 1051 404 q 1114 326 1096 399 q 1120 258 1120 294 q 1120 231 1120 254 q 1062 73 1120 94 q 1053 71 1057 71 l 1053 0 m 106 0 l 184 0 l 766 949 l 692 949 l 106 0 z "},"π":{"ha":643,"x_min":-1,"x_max":646,"o":"m -1 591 l -1 701 l 646 701 l 646 591 l 541 591 l 541 193 q 602 95 541 104 q 627 94 613 94 l 627 -5 q 448 109 486 -5 q 437 180 437 142 l 437 591 l 210 591 l 210 -3 l 104 -3 l 104 591 l -1 591 z "},"+":{"ha":586,"x_min":38,"x_max":547,"o":"m 38 345 l 38 453 l 236 453 l 236 675 l 346 675 l 346 453 l 547 453 l 547 345 l 346 345 l 346 118 l 236 118 l 236 345 l 38 345 z "},"±":{"ha":585,"x_min":38,"x_max":564,"o":"m 38 118 l 38 227 l 548 227 l 548 118 l 38 118 m 56 563 l 56 671 l 254 671 l 254 894 l 363 894 l 363 671 l 564 671 l 564 563 l 363 563 l 363 336 l 254 336 l 254 563 l 56 563 z "},"∏":{"ha":670,"x_min":20,"x_max":650,"o":"m 20 834 l 20 945 l 650 945 l 650 834 l 576 834 l 576 -190 l 468 -190 l 468 834 l 201 834 l 201 -190 l 92 -190 l 92 834 l 20 834 z "},"q":{"ha":618,"x_min":53,"x_max":563,"o":"m 281 0 q 85 102 153 0 q 53 199 53 153 l 53 534 q 110 663 53 602 q 281 734 176 734 l 380 734 l 380 624 l 281 624 q 172 560 201 624 q 165 530 165 544 l 165 203 q 212 127 165 156 q 279 110 241 110 l 376 110 l 376 0 l 281 0 m 445 -258 l 445 734 l 563 734 l 563 -258 l 445 -258 z "},"?":{"ha":639,"x_min":47,"x_max":590,"o":"m 47 829 q 235 948 126 928 q 302 954 267 954 q 547 826 472 954 q 590 666 587 757 q 563 534 590 591 q 498 448 536 476 q 422 401 460 419 q 357 378 384 382 l 330 374 l 330 157 l 220 157 l 220 473 q 469 589 426 477 q 481 667 481 624 q 400 817 481 768 q 298 844 355 844 q 119 754 187 842 l 47 829 m 208 37 q 247 99 208 80 q 274 104 260 104 q 335 65 316 104 q 342 37 342 52 q 301 -24 342 -7 q 274 -30 288 -30 q 213 9 231 -30 q 208 37 208 22 z "},"¿":{"ha":604,"x_min":23,"x_max":566,"o":"m 566 107 q 378 -12 487 8 q 311 -18 346 -18 q 66 110 141 -18 q 23 270 26 179 q 50 402 23 345 q 115 488 77 460 q 191 535 153 517 q 256 557 229 553 l 283 562 l 283 779 l 393 779 l 393 463 q 144 347 187 458 q 132 269 132 312 q 213 119 132 168 q 315 92 258 92 q 494 182 426 94 l 566 107 m 406 899 q 366 837 406 856 q 339 831 353 831 q 278 871 297 831 q 271 899 271 884 q 312 960 271 943 q 339 966 326 966 q 400 926 382 966 q 406 899 406 913 z "},"\"":{"ha":403,"x_min":56,"x_max":347,"o":"m 56 631 l 56 998 l 165 998 l 165 631 l 56 631 m 237 631 l 237 998 l 347 998 l 347 631 l 237 631 z "},"„":{"ha":393,"x_min":23,"x_max":355,"o":"m 195 -31 l 245 175 l 355 175 l 305 -31 l 195 -31 m 23 -31 l 73 175 l 183 175 l 133 -31 l 23 -31 z "},"“":{"ha":387,"x_min":47,"x_max":339,"o":"m 47 631 l 47 998 l 157 998 l 157 631 l 47 631 m 229 631 l 229 998 l 339 998 l 339 631 l 229 631 z "},"”":{"ha":387,"x_min":47,"x_max":339,"o":"m 47 631 l 47 998 l 157 998 l 157 631 l 47 631 m 229 631 l 229 998 l 339 998 l 339 631 l 229 631 z "},"‘":{"ha":205,"x_min":47,"x_max":157,"o":"m 47 631 l 47 998 l 157 998 l 157 631 l 47 631 z "},"’":{"ha":205,"x_min":47,"x_max":157,"o":"m 47 631 l 47 998 l 157 998 l 157 631 l 47 631 z "},"‚":{"ha":205,"x_min":47,"x_max":157,"o":"m 47 631 l 47 998 l 157 998 l 157 631 l 47 631 z "},"'":{"ha":221,"x_min":56,"x_max":165,"o":"m 56 631 l 56 998 l 165 998 l 165 631 l 56 631 z "},"r":{"ha":397,"x_min":57,"x_max":377,"o":"m 57 0 l 57 734 l 172 734 l 172 633 q 278 722 208 693 q 353 736 316 736 l 377 736 l 350 625 q 217 545 275 624 q 172 416 172 483 l 172 0 l 57 0 z "},"ŕ":{"ha":397,"x_min":57,"x_max":377,"o":"m 190 815 l 240 1021 l 350 1021 l 269 815 l 190 815 m 57 0 l 57 734 l 172 734 l 172 633 q 278 722 208 693 q 353 736 316 736 l 377 736 l 350 625 q 217 545 275 624 q 172 416 172 483 l 172 0 l 57 0 z "},"√":{"ha":810,"x_min":8,"x_max":796,"o":"m 8 696 l 256 785 l 492 201 l 677 1111 l 796 1111 l 574 -1 l 449 -1 l 182 654 l 39 604 l 8 696 z "},"ř":{"ha":397,"x_min":57,"x_max":377,"o":"m 81 1021 l 159 1021 l 217 903 l 274 1021 l 351 1021 l 250 815 l 184 815 l 81 1021 m 57 0 l 57 734 l 172 734 l 172 633 q 278 722 208 693 q 353 736 316 736 l 377 736 l 350 625 q 217 545 275 624 q 172 416 172 483 l 172 0 l 57 0 z "},"®":{"ha":533,"x_min":43,"x_max":491,"o":"m 245 699 l 245 735 l 262 735 q 311 772 309 736 q 254 814 308 812 l 245 814 l 245 850 q 347 773 346 848 q 320 718 346 732 q 347 667 345 703 l 353 586 l 316 586 l 312 652 q 273 697 308 692 q 245 699 260 699 m 255 491 q 90 578 155 495 q 43 715 43 639 q 141 903 43 837 q 256 941 197 939 l 256 898 q 122 825 174 895 q 85 715 85 776 q 161 567 87 621 q 254 534 203 537 l 255 491 m 278 491 l 278 534 q 416 614 366 540 q 448 716 448 662 q 370 867 448 812 q 278 898 327 897 l 278 941 q 435 864 370 939 q 491 716 491 800 q 400 536 491 602 q 278 491 345 495 m 187 585 l 187 850 l 227 850 l 227 585 l 187 585 z "},"˚":{"ha":331,"x_min":56,"x_max":275,"o":"m 56 713 q 111 810 56 779 q 165 823 137 823 q 262 768 231 823 q 275 713 275 742 q 220 617 275 648 q 165 604 194 604 q 69 659 100 604 q 56 713 56 685 m 122 713 q 152 671 122 681 q 165 670 160 670 q 208 700 198 670 q 209 713 209 708 q 179 755 209 746 q 165 757 171 757 q 123 727 133 757 q 122 713 122 719 z "},"s":{"ha":587,"x_min":27,"x_max":560,"o":"m 27 193 l 134 213 q 198 117 134 152 q 258 100 229 102 l 258 -7 q 61 88 126 -7 q 27 193 27 138 m 34 526 q 146 709 34 650 q 255 738 201 738 l 255 632 q 159 581 193 632 q 141 526 141 555 q 209 456 141 483 q 408 399 260 434 q 540 308 500 380 q 560 222 560 270 q 456 30 560 92 q 316 -7 395 -7 l 316 100 q 420 144 378 100 q 450 217 450 175 q 343 304 450 271 q 256 327 316 312 q 164 351 193 342 q 39 475 61 392 q 34 526 34 499 m 315 631 l 315 738 q 503 651 431 738 q 548 534 548 595 l 441 517 q 359 621 441 591 q 315 631 335 631 z "},"ś":{"ha":587,"x_min":27,"x_max":560,"o":"m 245 817 l 296 1023 l 406 1023 l 324 817 l 245 817 m 27 193 l 134 213 q 198 117 134 152 q 258 100 229 102 l 258 -7 q 61 88 126 -7 q 27 193 27 138 m 34 526 q 146 709 34 650 q 255 738 201 738 l 255 632 q 159 581 193 632 q 141 526 141 555 q 209 456 141 483 q 408 399 260 434 q 540 308 500 380 q 560 222 560 270 q 456 30 560 92 q 316 -7 395 -7 l 316 100 q 420 144 378 100 q 450 217 450 175 q 343 304 450 271 q 256 327 316 312 q 164 351 193 342 q 39 475 61 392 q 34 526 34 499 m 315 631 l 315 738 q 503 651 431 738 q 548 534 548 595 l 441 517 q 359 621 441 591 q 315 631 335 631 z "},"š":{"ha":587,"x_min":31,"x_max":564,"o":"m 152 1023 l 229 1023 l 288 905 l 345 1023 l 422 1023 l 320 817 l 255 817 l 152 1023 m 31 193 l 138 213 q 202 117 138 152 q 262 100 233 102 l 262 -7 q 65 88 130 -7 q 31 193 31 138 m 38 526 q 151 709 38 650 q 259 738 205 738 l 259 632 q 163 581 197 632 q 145 526 145 555 q 213 456 145 483 q 412 399 264 434 q 544 308 505 380 q 564 222 564 270 q 460 30 564 92 q 320 -7 399 -7 l 320 100 q 425 144 382 100 q 454 217 454 175 q 347 304 454 271 q 260 327 320 312 q 168 351 197 342 q 43 475 65 392 q 38 526 38 499 m 319 631 l 319 738 q 507 651 435 738 q 552 534 552 595 l 445 517 q 363 621 445 591 q 319 631 339 631 z "},"§":{"ha":817,"x_min":73,"x_max":743,"o":"m 73 480 q 174 681 75 606 q 156 779 156 724 q 289 1002 156 939 q 407 1031 347 1031 l 548 1031 l 548 918 l 433 918 q 275 827 304 918 q 269 783 269 806 q 374 666 270 707 l 374 533 q 323 549 336 544 q 245 593 271 571 q 191 479 193 549 q 323 347 191 389 q 374 334 346 340 l 374 212 q 256 245 262 243 q 243 251 248 248 q 98 370 132 302 q 73 480 73 416 m 267 -73 l 381 -73 q 537 9 502 -73 q 548 66 548 35 q 441 186 547 148 l 441 315 q 490 300 468 308 q 576 252 551 278 q 625 365 625 297 q 500 498 625 457 q 441 515 476 507 l 441 639 q 570 598 541 610 q 726 461 692 548 q 743 363 743 418 q 647 160 742 241 q 661 65 661 122 q 559 -138 661 -66 q 407 -186 491 -186 l 267 -186 l 267 -73 z "},";":{"ha":328,"x_min":68,"x_max":260,"o":"m 68 -31 l 118 175 l 227 175 l 176 -31 l 68 -31 m 127 453 q 167 515 127 496 q 194 521 180 521 q 255 480 237 521 q 260 453 260 467 q 221 392 260 410 q 194 387 208 387 q 133 426 151 387 q 127 453 127 439 z "},"අ":{"ha":735,"x_min":41,"x_max":694,"o":"m 480 -229 l 593 -229 l 593 0 l 670 0 l 670 119 l 593 119 l 593 541 q 694 669 595 643 l 670 788 q 529 705 578 760 q 326 785 450 785 q 127 701 199 785 q 85 620 98 665 l 189 586 q 285 673 209 652 q 330 678 308 678 q 465 612 426 678 q 480 564 476 590 l 480 553 l 480 545 l 347 545 q 79 420 153 545 q 41 270 41 357 q 190 31 41 96 q 349 0 260 0 l 406 0 l 406 115 l 349 115 q 175 203 216 115 q 161 270 161 233 q 275 419 161 391 q 340 427 305 427 l 480 427 l 480 -229 z "},"ආ":{"ha":1088,"x_min":41,"x_max":1047,"o":"m 480 -229 l 593 -229 l 593 0 l 670 0 l 670 119 l 593 119 l 593 541 q 694 669 595 643 l 670 788 q 529 705 578 760 q 326 785 450 785 q 127 701 199 785 q 85 620 98 665 l 189 586 q 285 673 209 652 q 330 678 308 678 q 465 612 426 678 q 480 564 476 590 l 480 553 l 480 545 l 347 545 q 79 420 153 545 q 41 270 41 357 q 190 31 41 96 q 349 0 260 0 l 406 0 l 406 115 l 349 115 q 175 203 216 115 q 161 270 161 233 q 275 419 161 391 q 340 427 305 427 l 480 427 l 480 -229 m 765 0 l 792 0 q 1047 269 1046 3 l 1047 490 q 792 758 1044 757 l 765 758 l 765 640 l 792 640 q 928 483 926 637 l 928 269 q 792 118 926 119 l 765 118 l 765 0 z "},"ඈ":{"ha":1085,"x_min":41,"x_max":1044,"o":"m 480 -229 l 593 -229 l 593 0 l 670 0 l 670 119 l 593 119 l 593 541 q 694 669 595 643 l 670 788 q 529 705 578 760 q 326 785 450 785 q 127 701 199 785 q 85 620 98 665 l 189 586 q 285 673 209 652 q 330 678 308 678 q 465 612 426 678 q 480 564 476 590 l 480 553 l 480 545 l 347 545 q 79 420 153 545 q 41 270 41 357 q 190 31 41 96 q 349 0 260 0 l 406 0 l 406 115 l 349 115 q 175 203 216 115 q 161 270 161 233 q 275 419 161 391 q 340 427 305 427 l 480 427 l 480 -229 m 765 286 l 765 228 q 1009 0 768 1 l 1044 0 l 1044 119 l 1009 119 q 884 222 892 119 q 883 244 883 233 l 883 286 q 906 357 883 330 q 1044 468 936 391 l 1044 567 l 910 567 l 1044 680 l 1044 779 l 765 779 l 765 680 l 898 680 l 765 567 l 765 468 l 886 468 q 773 347 789 396 q 765 286 765 324 z "},"ඇ":{"ha":1084,"x_min":41,"x_max":1043,"o":"m 480 -229 l 593 -229 l 593 0 l 670 0 l 670 119 l 593 119 l 593 541 q 694 669 595 643 l 670 788 q 529 705 578 760 q 326 785 450 785 q 127 701 199 785 q 85 620 98 665 l 189 586 q 285 673 209 652 q 330 678 308 678 q 465 612 426 678 q 480 564 476 590 l 480 553 l 480 545 l 347 545 q 79 420 153 545 q 41 270 41 357 q 190 31 41 96 q 349 0 260 0 l 406 0 l 406 115 l 349 115 q 175 203 216 115 q 161 270 161 233 q 275 419 161 391 q 340 427 305 427 l 480 427 l 480 -229 m 1008 0 l 1043 0 l 1043 119 l 1008 119 q 882 260 883 121 l 883 380 q 905 495 882 453 q 1043 666 930 540 l 1043 779 l 764 779 l 764 662 l 901 662 q 783 507 803 553 q 764 388 764 464 l 764 264 q 914 14 764 64 q 1008 0 958 0 z "},"ඓ":{"ha":1415,"x_min":41,"x_max":1374,"o":"m 338 654 q 465 570 445 654 q 468 557 467 563 l 575 585 q 498 720 564 666 q 366 765 441 765 l 282 765 q 56 605 104 765 q 41 503 41 556 l 41 269 q 146 20 41 83 q 255 -7 193 -7 l 283 -7 l 283 104 q 160 209 178 104 q 156 269 156 235 l 156 503 q 254 650 156 629 q 290 654 271 654 l 338 654 m 316 369 l 388 369 q 458 338 446 369 q 464 308 464 324 l 464 216 q 349 104 461 106 l 349 -7 l 384 -7 q 556 102 507 -7 q 579 213 579 152 l 579 346 q 460 479 579 469 q 434 480 448 480 l 316 480 l 316 369 m 704 543 l 795 519 q 879 570 819 566 q 967 521 943 570 q 975 480 975 502 l 914 476 l 647 476 l 647 382 l 741 382 q 703 260 703 334 q 795 61 703 137 q 987 -3 873 -3 l 987 118 q 834 202 873 118 q 821 262 821 231 q 886 374 821 349 q 926 382 905 382 l 1070 382 l 1070 477 q 1019 614 1069 563 q 880 665 966 665 q 728 593 779 665 q 704 543 712 571 m 1192 623 l 1192 707 q 1062 830 1072 713 q 1061 850 1061 841 l 1061 906 q 1237 807 1200 906 q 1255 675 1255 758 l 1255 332 q 1062 118 1252 119 l 1062 -3 q 1370 259 1339 -3 q 1374 332 1374 294 l 1374 701 q 1099 1023 1374 1005 q 1061 1024 1080 1024 l 981 1024 l 981 852 q 1099 647 981 701 q 1192 623 1139 628 z "},"ඖ":{"ha":1373,"x_min":41,"x_max":1345,"o":"m 251 -5 q 401 64 349 -4 q 552 -5 456 -4 q 731 84 675 -5 q 762 198 762 134 l 762 701 q 621 990 762 924 q 429 1024 548 1024 l 429 906 q 609 844 563 906 q 646 693 646 792 l 646 208 q 601 126 646 155 q 545 111 576 111 q 456 172 479 111 q 449 208 449 190 l 449 267 l 354 267 l 354 208 q 308 123 354 151 q 258 111 285 111 q 165 174 187 111 q 159 208 159 191 l 159 472 q 202 536 159 525 q 217 537 210 537 q 271 496 259 537 q 274 475 274 486 l 274 427 q 345 321 274 349 q 395 312 369 312 q 505 370 471 312 q 522 439 522 400 l 522 636 l 435 636 l 435 449 q 404 411 435 416 q 396 410 399 410 q 355 449 361 418 l 355 498 q 271 633 355 597 q 206 647 240 647 q 72 582 121 647 q 41 481 41 538 l 41 198 q 136 23 41 77 q 251 -5 186 -5 m 163 735 q 262 890 163 846 q 351 907 304 907 l 351 1024 q 133 943 225 1024 q 47 765 49 868 l 163 735 m 1105 -11 q 1293 66 1222 -11 q 1345 213 1345 127 l 1345 613 q 1264 755 1344 715 q 1198 772 1232 772 q 1076 708 1115 772 q 1055 629 1055 674 l 1055 579 q 1017 529 1055 537 q 1005 528 1010 528 q 959 562 968 528 q 956 579 956 571 l 956 765 l 869 765 l 869 556 q 948 420 869 456 q 1008 408 977 408 q 1119 468 1082 408 q 1137 537 1137 499 l 1137 605 q 1175 656 1137 648 q 1187 658 1181 658 q 1233 623 1223 658 q 1236 605 1236 613 l 1236 212 q 1161 106 1236 133 q 1109 98 1137 98 q 996 151 1032 98 q 978 212 978 178 l 978 274 l 869 274 l 869 213 q 979 20 869 81 q 1105 -11 1038 -11 z "},"බ":{"ha":810,"x_min":41,"x_max":769,"o":"m 41 247 q 178 14 41 56 q 286 0 224 0 l 286 118 q 167 175 191 118 q 155 251 155 205 l 155 374 q 216 479 155 453 q 252 486 233 486 q 339 430 313 486 q 350 374 350 404 l 350 190 q 449 16 350 69 q 551 -8 495 -8 q 722 69 658 -8 q 769 214 769 129 l 769 688 q 494 1023 769 1004 q 458 1024 476 1024 l 437 1024 l 437 906 l 458 906 q 648 708 636 906 q 650 674 650 692 l 650 213 q 590 122 650 142 q 557 117 574 117 q 475 167 499 117 q 465 213 465 189 l 465 377 q 361 581 465 521 q 258 606 313 606 q 88 528 152 606 q 41 385 41 468 l 41 247 m 56 765 l 171 735 q 270 890 171 846 q 359 907 312 907 l 359 1024 q 141 943 233 1024 q 56 765 57 868 z "},"භ":{"ha":1015,"x_min":41,"x_max":974,"o":"m 514 444 q 514 450 514 446 q 514 463 514 454 q 513 477 514 471 l 513 483 q 639 646 515 644 l 639 765 q 441 670 503 764 q 307 762 403 747 q 271 765 288 765 q 117 692 168 765 q 94 643 102 669 l 184 620 q 269 670 209 666 q 362 608 343 670 q 366 576 366 593 l 41 576 l 41 472 l 137 472 q 94 342 94 426 l 94 267 q 203 28 94 100 q 353 -11 266 -11 l 353 109 q 220 210 245 109 q 213 267 213 237 l 213 335 q 305 468 213 449 q 353 472 327 472 l 396 472 l 396 349 l 456 349 q 555 229 555 346 q 429 109 552 110 l 429 -11 q 659 171 639 -11 q 662 210 662 190 l 662 255 q 553 438 662 408 q 514 444 534 442 m 715 -11 q 951 142 892 -11 q 974 282 974 203 l 974 469 q 838 739 974 674 q 715 765 784 765 l 715 646 q 856 469 853 639 l 856 282 q 755 113 856 138 q 715 109 735 109 l 715 -11 z "},"ච":{"ha":810,"x_min":41,"x_max":769,"o":"m 381 -3 q 142 111 221 -3 q 96 260 96 179 q 134 382 98 335 l 41 382 l 41 476 l 308 476 l 369 480 q 307 564 369 545 q 273 570 289 570 q 193 529 216 570 q 189 519 190 524 l 98 543 q 237 662 126 643 q 274 665 256 665 q 412 614 359 663 q 464 477 464 562 l 464 382 l 320 382 q 227 316 252 382 q 216 262 216 290 q 283 138 216 179 q 381 115 326 115 l 381 -3 m 457 -3 l 457 115 q 650 332 648 118 l 650 686 q 541 894 650 857 q 457 906 506 906 l 457 1024 q 768 732 754 1024 q 769 701 769 716 l 769 332 q 490 -1 769 15 q 457 -3 473 -3 m 208 735 l 92 765 q 197 959 92 880 q 381 1024 283 1024 l 381 907 q 243 842 296 907 q 208 735 208 795 z "},"ඡ":{"ha":863,"x_min":41,"x_max":829,"o":"m 387 -12 l 465 -12 q 787 149 730 -12 q 804 267 804 201 l 804 358 q 712 446 798 444 l 586 446 q 492 499 525 446 q 477 555 477 526 q 530 648 477 616 q 586 663 557 663 q 677 612 646 663 q 686 589 682 600 l 791 597 q 688 742 774 693 q 623 766 656 760 l 829 1038 l 708 1070 l 431 705 q 420 694 429 703 q 252 772 370 772 q 61 678 121 772 q 41 636 49 658 l 144 602 q 254 665 167 663 q 358 598 330 665 q 368 545 368 574 l 267 545 q 57 425 94 545 q 45 334 45 384 l 163 334 q 217 433 163 412 q 275 441 241 441 l 399 441 q 567 339 457 347 q 585 339 576 339 l 686 340 l 686 267 q 567 113 686 140 q 469 103 526 103 l 380 103 q 180 180 221 103 q 163 267 163 216 l 45 267 q 195 16 45 72 q 387 -12 270 -12 z "},"ද":{"ha":734,"x_min":41,"x_max":734,"o":"m 495 -277 q 293 -186 359 -277 q 255 -61 255 -133 l 372 -61 q 437 -156 372 -126 q 498 -168 467 -168 q 606 -111 571 -168 q 621 -77 617 -95 l 734 -106 q 598 -259 707 -217 q 495 -277 551 -277 m 41 270 q 193 517 41 452 q 347 545 260 545 l 481 545 q 396 667 481 635 q 330 678 365 678 q 205 620 247 678 q 189 586 194 604 l 85 620 q 224 768 113 726 q 326 785 273 785 q 533 700 457 785 q 593 534 593 633 l 593 427 l 340 427 q 170 327 203 427 q 161 270 161 301 q 263 129 161 164 q 349 115 301 115 l 400 115 q 567 216 522 117 l 675 187 q 491 14 631 54 q 400 0 445 0 l 349 0 q 92 104 175 0 q 41 270 41 172 z "},"ඩ":{"ha":852,"x_min":41,"x_max":811,"o":"m 315 -5 q 456 64 407 -4 q 608 -5 511 -5 q 781 85 727 -5 q 811 198 811 134 l 811 701 q 633 1005 811 949 q 494 1024 575 1024 l 494 906 q 667 823 628 906 q 690 686 690 773 l 690 206 q 650 127 690 155 q 594 113 625 113 q 505 179 522 113 q 500 206 500 194 l 500 267 l 406 267 l 406 206 q 363 126 406 151 q 312 113 340 113 q 220 179 240 113 q 216 206 216 193 l 216 308 q 292 382 218 381 l 500 382 l 500 477 q 448 614 499 564 q 309 665 395 665 q 159 595 210 665 q 133 543 141 571 l 225 518 q 309 570 248 566 q 397 518 373 570 q 406 476 406 499 l 41 476 l 41 382 l 125 382 q 99 308 99 366 l 99 198 q 195 24 99 79 q 315 -5 248 -5 m 109 765 l 224 735 q 323 888 224 845 q 418 907 368 907 l 418 1024 q 198 944 292 1024 q 109 765 110 868 z "},"ඪ":{"ha":852,"x_min":41,"x_max":811,"o":"m 315 -5 q 456 64 407 -4 q 608 -5 511 -5 q 781 85 727 -5 q 811 198 811 134 l 811 701 q 536 1023 811 1005 q 498 1024 517 1024 l 418 1024 l 418 852 q 536 647 418 701 q 629 623 576 628 l 629 707 q 499 830 509 713 q 498 850 498 841 l 498 906 q 674 807 637 906 q 692 675 692 757 l 692 206 q 651 129 692 156 q 594 113 627 113 q 505 179 522 113 q 500 206 500 194 l 500 267 l 406 267 l 406 206 q 363 126 406 151 q 312 113 340 113 q 220 179 240 113 q 216 206 216 193 l 216 308 q 292 382 218 381 l 500 382 l 500 477 q 448 614 499 564 q 309 665 395 665 q 159 595 210 665 q 133 543 141 571 l 225 518 q 309 570 248 566 q 397 518 373 570 q 406 476 406 499 l 41 476 l 41 382 l 125 382 q 99 308 99 366 l 99 198 q 195 24 99 79 q 315 -5 248 -5 z "},"ධ":{"ha":795,"x_min":41,"x_max":754,"o":"m 258 -5 q 400 64 351 -4 q 552 -5 454 -5 q 724 83 669 -5 q 754 198 754 133 l 754 701 q 576 1005 754 949 q 437 1024 518 1024 l 437 906 q 612 822 572 906 q 635 686 635 772 l 635 206 q 595 129 635 156 q 538 113 570 113 q 448 178 468 113 q 444 206 444 193 l 444 267 l 350 267 l 350 206 q 308 126 350 153 q 255 113 285 113 q 163 179 183 113 q 159 206 159 194 l 159 384 q 233 517 159 481 q 305 530 264 530 l 347 530 l 347 647 l 305 647 q 47 463 87 647 q 41 388 41 427 l 41 198 q 138 23 41 77 q 258 -5 191 -5 m 52 765 l 167 735 q 266 887 167 844 q 361 907 309 907 l 361 1024 q 141 944 235 1024 q 52 765 53 868 z "},"එ":{"ha":808,"x_min":41,"x_max":768,"o":"m 98 543 l 189 519 q 273 570 213 566 q 361 521 336 570 q 369 480 369 502 l 308 476 l 41 476 l 41 382 l 134 382 q 96 260 96 334 q 189 61 96 137 q 381 -3 267 -3 l 381 118 q 228 202 267 118 q 214 262 214 231 q 279 374 214 349 q 320 382 298 382 l 464 382 l 464 477 q 412 614 463 563 q 274 665 359 665 q 122 593 172 665 q 98 543 106 571 m 586 623 l 586 707 q 456 830 465 713 q 454 850 454 841 l 454 906 q 631 807 594 906 q 648 675 648 757 l 648 332 q 456 118 646 119 l 456 -3 q 764 259 732 -3 q 768 332 768 294 l 768 701 q 492 1023 768 1005 q 454 1024 473 1024 l 374 1024 l 374 852 q 492 647 374 701 q 586 623 533 628 z "},"ඒ":{"ha":808,"x_min":41,"x_max":768,"o":"m 41 382 l 134 382 q 96 260 96 334 q 189 61 96 137 q 381 -3 267 -3 l 381 118 q 228 202 267 118 q 214 262 214 231 q 279 374 214 349 q 320 382 298 382 l 464 382 l 464 477 q 412 614 463 563 q 274 665 359 665 q 122 593 172 665 q 98 543 106 571 l 189 519 q 273 570 213 566 q 361 521 336 570 q 369 480 369 502 l 308 476 l 41 476 l 41 382 m 374 852 q 492 647 374 701 q 586 623 533 628 l 586 707 q 456 830 465 713 q 454 850 454 841 l 454 906 q 631 807 594 906 q 648 675 648 757 l 648 332 q 456 118 646 119 l 456 -3 q 764 259 732 -3 q 768 332 768 294 l 768 701 l 768 703 l 768 1111 l 650 1111 l 650 977 q 454 1024 575 1024 l 374 1024 l 374 852 z "},"ෆ":{"ha":867,"x_min":41,"x_max":826,"o":"m 41 334 l 41 557 q 145 738 41 684 q 266 765 198 765 q 435 689 378 764 q 601 765 494 765 q 791 677 728 765 q 826 557 826 625 l 826 334 l 709 334 l 709 549 q 639 642 709 621 q 600 647 620 647 q 495 587 518 647 q 488 548 488 568 l 488 334 l 378 334 l 378 548 q 305 643 378 623 q 267 647 286 647 q 165 589 189 647 q 159 549 159 570 l 159 334 l 41 334 m 41 267 l 159 267 q 251 126 159 153 q 305 119 275 119 l 305 0 q 60 153 115 0 q 41 267 41 205 m 562 0 l 562 119 q 707 235 689 119 q 709 267 709 251 l 826 267 q 699 28 826 91 q 562 0 642 0 z "},"ග":{"ha":963,"x_min":41,"x_max":922,"o":"m 300 -11 l 300 109 q 163 231 184 109 q 159 282 159 255 l 159 467 q 270 643 159 624 q 300 646 285 646 l 300 765 q 64 612 122 765 q 41 472 41 551 l 41 282 q 168 19 41 88 q 300 -11 225 -11 m 662 -11 q 899 146 842 -11 q 922 282 921 206 l 922 472 q 792 736 921 669 q 662 765 735 765 l 662 646 q 800 509 783 646 q 803 467 803 488 l 803 282 q 693 111 803 130 q 662 109 677 109 l 662 -11 m 343 349 l 400 349 q 502 229 502 347 q 376 109 499 110 l 376 -11 q 606 171 586 -11 q 609 210 609 190 l 609 255 q 514 435 609 399 q 461 445 490 445 l 461 483 q 586 646 464 644 l 586 765 q 347 551 377 765 q 343 481 343 517 l 343 349 z "},"ඝ":{"ha":925,"x_min":41,"x_max":884,"o":"m 294 -7 q 453 145 452 -4 q 491 184 456 183 q 529 145 528 182 q 688 -7 532 -5 q 852 79 798 -7 q 884 199 884 130 l 884 264 l 766 264 l 766 206 q 713 118 766 140 q 678 111 696 111 q 591 208 593 114 q 519 277 589 275 l 463 277 q 391 208 392 274 q 304 111 388 113 q 222 167 243 111 q 216 206 216 186 l 216 264 l 98 264 l 98 199 q 191 20 98 75 q 294 -7 237 -7 m 110 636 l 213 602 q 323 665 239 663 q 427 602 399 665 q 437 552 437 579 l 437 545 l 41 545 l 41 441 l 121 441 q 99 381 99 427 q 98 355 99 378 l 98 334 l 216 334 l 216 368 q 294 441 218 439 l 689 441 q 766 368 765 438 l 766 334 l 884 334 l 884 385 q 703 545 882 544 l 547 545 l 547 552 q 610 655 547 628 q 661 665 635 665 q 770 602 749 663 l 873 636 q 708 768 834 747 q 662 772 686 772 q 495 704 555 772 q 492 700 494 701 q 321 772 430 770 q 130 678 190 772 q 110 636 118 658 z "},"හ":{"ha":962,"x_min":41,"x_max":921,"o":"m 460 444 l 460 484 q 586 646 463 644 l 586 765 q 392 677 454 764 q 245 764 347 754 q 224 765 233 765 q 71 692 122 765 q 47 643 56 669 l 138 620 q 222 670 159 669 q 313 614 293 670 q 319 582 319 600 l 290 582 q 41 331 42 575 l 41 267 q 153 27 41 98 q 300 -11 216 -11 l 300 109 q 165 209 194 109 q 159 267 159 236 l 159 326 q 267 461 159 448 q 300 463 283 463 l 342 463 l 342 349 l 403 349 q 500 229 499 343 q 376 109 498 110 l 376 -11 q 605 155 575 -11 q 609 210 609 182 l 609 255 q 498 438 609 411 q 460 444 479 442 m 662 -11 q 898 142 840 -11 q 921 282 921 203 l 921 472 q 793 735 921 666 q 662 765 736 765 l 662 646 q 800 509 783 646 q 803 467 803 488 l 803 282 q 703 113 803 138 q 662 109 682 109 l 662 -11 z "},"්":{"ha":197,"x_min":41,"x_max":156,"o":"m 41 840 l 41 1111 l 156 1111 l 156 840 l 41 840 z "},"ඉ":{"ha":762,"x_min":34,"x_max":722,"o":"m 263 0 l 387 0 q 662 129 572 0 q 722 338 722 214 l 722 519 q 604 732 722 661 q 442 777 532 777 l 420 777 l 420 659 q 591 567 552 659 q 605 491 605 533 l 605 357 q 445 123 605 170 q 347 110 399 110 l 263 110 l 263 0 m 92 -106 q 228 -256 119 -213 q 339 -277 279 -277 q 543 -190 473 -277 q 586 -61 586 -134 l 469 -61 q 403 -153 469 -123 q 336 -168 370 -168 q 225 -117 264 -168 q 205 -77 210 -98 l 92 -106 m 34 427 q 132 262 34 312 q 244 237 180 237 q 434 339 401 237 q 441 387 441 362 l 441 495 l 330 495 l 330 431 q 275 362 330 377 q 244 358 260 358 q 156 416 172 358 q 152 445 152 430 l 152 514 q 254 646 152 608 q 324 659 290 659 l 346 659 l 346 777 l 324 777 q 110 697 197 777 q 34 525 34 625 l 34 427 z "},"ඊ":{"ha":766,"x_min":41,"x_max":745,"o":"m 41 323 q 203 15 41 85 q 324 -8 259 -8 l 324 113 q 163 259 183 113 q 159 319 159 286 l 159 568 q 180 685 159 647 q 245 760 201 720 l 560 1043 l 433 1076 l 146 823 q 42 618 47 738 q 41 579 41 604 l 41 323 m 237 655 l 237 651 l 410 651 q 543 578 513 651 q 559 467 559 536 l 559 319 q 479 127 559 164 q 400 114 446 114 l 400 -7 q 659 171 609 -7 q 677 319 677 235 l 677 494 q 452 765 674 764 l 349 765 l 237 655 m 547 899 q 597 815 547 844 q 646 802 620 802 q 732 853 704 802 q 745 899 745 875 q 693 986 745 958 q 646 998 670 998 q 559 947 587 998 q 547 899 547 924 m 68 1043 q 118 959 68 987 q 167 945 141 945 q 254 997 225 945 q 266 1043 266 1019 q 214 1130 266 1101 q 167 1142 191 1142 q 80 1090 109 1142 q 68 1043 68 1067 z "},"ජ":{"ha":863,"x_min":42,"x_max":823,"o":"m 42 636 l 145 602 q 255 665 168 663 q 357 602 330 665 q 368 552 368 579 l 368 545 l 266 545 q 56 425 92 545 q 43 334 43 384 l 161 334 q 216 433 161 412 q 274 441 240 441 l 574 441 q 680 382 665 441 q 685 334 685 362 l 803 334 q 699 528 803 488 q 571 545 650 545 l 479 545 l 479 552 q 513 636 480 605 l 517 633 l 526 647 q 591 665 557 665 q 701 602 680 663 l 804 636 q 635 769 765 749 q 621 770 628 769 l 823 1038 l 703 1070 l 423 700 q 254 772 361 772 q 61 678 121 772 q 42 636 50 658 m 385 -12 l 463 -12 q 785 148 727 -12 q 803 267 803 199 l 685 267 q 566 113 685 140 q 468 103 525 103 l 378 103 q 179 180 220 103 q 161 267 161 216 l 43 267 q 194 16 43 72 q 385 -12 269 -12 z "},"ඣ":{"ha":1518,"x_min":41,"x_max":1477,"o":"m 41 243 q 58 247 58 247 q 88 183 88 245 l 88 149 q 168 18 88 64 q 262 -8 212 -8 q 384 49 336 -7 q 519 -7 438 -7 q 665 62 613 -7 q 699 168 699 109 l 699 312 q 598 498 699 450 q 548 515 575 507 l 458 442 q 575 372 553 422 q 587 301 587 345 l 587 186 q 534 115 587 132 q 506 111 519 111 q 434 159 449 111 q 430 186 430 172 l 430 267 l 336 267 l 336 184 q 286 114 336 126 q 267 111 277 111 q 199 151 220 111 q 191 184 191 165 l 191 248 q 175 300 190 277 l 522 590 q 738 669 617 669 q 897 609 842 667 q 765 420 780 566 q 764 388 764 404 l 764 198 q 860 24 764 79 q 982 -5 914 -5 q 1123 64 1074 -4 q 1275 -5 1177 -5 q 1447 83 1392 -5 q 1477 198 1477 133 l 1477 701 q 1294 1006 1477 951 q 1153 1024 1234 1024 l 1153 906 q 1335 821 1293 906 q 1358 686 1358 770 l 1358 206 q 1317 127 1358 155 q 1261 113 1293 113 q 1171 178 1191 113 q 1166 206 1166 193 l 1166 267 l 1073 267 l 1073 206 q 1031 126 1073 153 q 978 113 1008 113 q 887 178 907 113 q 882 206 882 193 l 882 384 q 951 513 882 476 q 1028 530 983 530 l 1057 530 q 878 761 1032 704 q 745 784 817 784 q 444 680 581 783 l 438 675 q 316 761 404 739 q 256 768 286 768 q 85 690 149 768 q 43 605 56 654 l 145 572 q 231 656 165 642 q 256 659 243 659 q 347 614 316 659 q 354 605 351 609 l 41 342 l 41 243 m 800 868 l 916 826 q 1076 907 952 907 l 1076 1024 q 852 943 939 1024 q 800 868 818 909 z "},"ඥ":{"ha":1446,"x_min":41,"x_max":1446,"o":"m 1062 -5 l 1114 -5 q 1321 75 1238 -5 q 1388 182 1366 121 l 1279 212 q 1114 110 1233 111 l 1062 110 q 897 197 937 110 q 883 259 883 227 q 987 392 883 365 q 1053 400 1017 400 l 1306 400 l 1306 506 q 994 770 1306 760 q 951 772 974 772 l 951 651 q 1185 515 1184 648 l 1057 515 q 804 400 878 515 q 796 385 800 392 q 685 445 754 442 l 685 483 q 781 639 686 602 q 853 652 814 651 l 875 652 l 875 772 l 853 772 q 594 624 659 770 q 567 481 567 563 l 567 349 l 625 349 q 726 229 724 345 q 601 109 723 110 l 601 -11 q 815 104 765 -9 q 1062 -5 903 -1 m 41 275 q 88 43 41 133 q 138 -33 109 7 l 251 4 q 161 183 174 98 q 156 275 156 217 l 156 389 q 189 585 156 532 q 304 646 225 642 q 264 472 264 572 l 264 282 q 395 18 266 85 q 525 -11 452 -11 l 525 109 q 387 241 403 109 q 384 282 384 262 l 384 467 q 495 643 384 624 q 525 646 510 646 l 525 765 l 359 765 q 79 629 142 765 q 41 389 41 549 l 41 275 m 1206 -282 q 1413 -183 1345 -282 q 1446 -111 1435 -151 l 1333 -83 q 1242 -168 1317 -152 q 1210 -172 1226 -172 q 1100 -119 1134 -172 q 1084 -66 1084 -95 l 967 -66 q 1073 -251 967 -193 q 1206 -282 1130 -282 z "},"ක":{"ha":1057,"x_min":41,"x_max":1016,"o":"m 43 605 l 145 572 q 231 656 165 642 q 256 659 243 659 q 347 614 316 659 q 354 604 351 608 l 41 342 l 41 243 q 58 247 58 247 q 88 183 88 245 l 88 149 q 168 18 88 64 q 262 -8 212 -8 q 384 49 336 -7 q 519 -7 438 -7 q 665 62 613 -7 q 699 168 699 109 l 699 312 q 598 498 699 450 q 548 515 575 507 l 458 442 q 575 372 553 422 q 587 301 587 345 l 587 186 q 534 115 587 132 q 506 111 519 111 q 434 159 449 111 q 430 186 430 172 l 430 267 l 336 267 l 336 184 q 286 114 336 126 q 267 111 277 111 q 199 151 220 111 q 191 184 191 165 l 191 248 q 175 300 190 277 l 522 590 q 684 651 594 651 q 853 568 791 651 q 898 422 898 507 l 898 269 q 798 121 898 136 q 764 118 781 118 l 764 -1 q 1008 178 971 -1 q 1016 269 1016 218 l 1016 430 q 871 723 1016 636 q 700 768 796 768 q 438 675 552 766 q 316 761 404 739 q 256 768 286 768 q 85 690 149 768 q 43 605 56 654 z "},"ඛ":{"ha":819,"x_min":41,"x_max":779,"o":"m 576 -8 q 743 84 689 -8 q 779 229 779 144 l 779 688 q 551 1017 779 978 q 468 1024 513 1024 l 439 1024 l 439 906 l 468 906 q 646 796 610 906 q 659 688 659 751 l 659 214 q 601 127 659 149 q 567 122 583 122 q 484 168 509 122 q 473 214 473 190 l 473 396 q 372 579 473 524 q 262 606 321 606 q 88 526 152 606 q 41 378 41 465 l 41 248 q 182 14 41 56 q 288 0 228 0 l 288 118 q 165 183 190 118 q 156 256 156 213 l 156 370 q 220 477 156 452 q 258 486 239 486 q 346 430 319 486 q 358 370 358 403 l 358 -88 l 473 -88 l 473 16 q 576 -8 524 -8 m 175 735 q 274 888 175 846 q 363 906 316 906 l 363 1024 q 145 943 237 1024 q 60 765 61 868 l 175 735 z "},"ල":{"ha":834,"x_min":41,"x_max":793,"o":"m 357 305 q 454 127 357 179 q 568 102 503 102 q 758 201 697 102 q 793 342 793 260 l 793 452 q 457 776 792 774 l 457 658 q 675 452 670 646 l 675 342 q 613 232 675 260 q 567 222 591 222 q 476 281 496 222 q 469 319 469 300 l 469 369 l 549 369 l 549 469 l 277 469 l 277 369 l 357 369 l 357 305 m 374 -231 l 374 -113 q 171 22 209 -113 q 160 102 160 58 l 160 445 q 315 652 160 623 q 374 658 343 658 l 374 776 q 69 604 140 776 q 41 445 41 536 l 41 102 q 247 -213 41 -149 q 374 -231 305 -231 m 457 -114 l 457 -232 q 780 -8 718 -229 l 666 23 q 457 -114 618 -113 z "},"ළ":{"ha":826,"x_min":41,"x_max":799,"o":"m 151 567 l 254 582 q 330 671 256 670 q 399 614 387 671 q 401 591 401 604 l 484 591 q 532 667 484 651 q 556 671 544 671 q 628 608 620 671 q 629 593 629 600 l 732 593 q 633 758 732 720 q 556 772 598 772 q 444 720 483 770 q 328 772 403 772 q 165 675 205 772 q 151 598 151 640 l 151 567 m 41 104 q 217 -201 41 -125 q 384 -231 290 -231 l 384 -111 q 175 12 218 -111 q 160 103 160 53 l 160 233 q 180 330 160 292 q 307 145 208 199 q 434 114 362 114 l 492 114 q 719 237 648 114 q 734 270 727 254 l 632 297 q 509 220 604 227 q 490 218 499 218 l 439 218 q 282 332 328 218 q 264 406 269 368 q 315 414 290 414 l 732 414 l 732 526 l 292 526 q 113 448 187 525 q 41 263 41 373 l 41 104 m 467 -113 l 467 -231 q 796 -12 742 -231 q 799 1 798 -5 l 684 33 q 467 -113 647 -111 z "},"ම":{"ha":792,"x_min":41,"x_max":751,"o":"m 41 342 l 41 433 q 132 623 41 568 q 209 644 168 644 q 323 581 286 644 q 342 505 342 547 l 342 449 q 381 410 349 414 q 420 449 416 415 l 420 636 l 509 636 l 509 439 q 434 321 509 351 q 384 312 410 312 q 275 368 309 312 q 260 427 260 395 l 260 483 q 225 534 260 524 q 210 537 218 537 q 156 490 171 537 q 151 450 151 471 l 151 342 q 316 117 151 132 q 340 115 328 115 l 340 -3 q 52 232 98 -3 q 41 342 41 283 m 416 -3 l 416 115 q 625 252 591 115 q 633 334 633 289 l 633 686 q 487 901 633 872 q 416 906 456 906 l 416 1024 q 750 720 734 1024 q 751 686 751 704 l 751 334 q 416 -3 742 1 m 43 765 q 152 962 43 882 q 340 1024 240 1024 l 340 906 q 193 838 244 906 q 159 735 159 793 l 43 765 z "},"ා":{"ha":363,"x_min":41,"x_max":323,"o":"m 41 0 l 41 119 l 68 119 q 203 273 202 122 l 203 492 q 68 651 202 650 l 41 651 l 41 772 l 68 772 q 323 499 321 769 l 323 273 q 68 0 320 1 l 41 0 z "},"ෑ":{"ha":376,"x_min":56,"x_max":335,"o":"m 56 286 l 56 228 q 298 0 58 1 l 335 0 l 335 119 l 298 119 q 175 225 182 119 q 174 244 174 235 l 174 286 q 197 357 174 330 q 335 468 227 391 l 335 567 l 201 567 l 335 680 l 335 779 l 56 779 l 56 680 l 187 680 l 56 567 l 56 468 l 176 468 q 64 347 80 396 q 56 286 56 324 z "},"ැ":{"ha":361,"x_min":41,"x_max":320,"o":"m 285 0 l 320 0 l 320 119 l 285 119 q 159 260 160 121 l 160 380 q 182 495 159 453 q 320 666 208 540 l 320 779 l 41 779 l 41 662 l 178 662 q 60 507 80 553 q 41 388 41 464 l 41 264 q 191 14 41 64 q 285 0 235 0 z "},"ෛ":{"ha":1204,"x_min":41,"x_max":1164,"o":"m 338 654 q 465 570 445 654 q 468 557 467 563 l 575 585 q 498 720 564 666 q 366 765 441 765 l 282 765 q 56 605 104 765 q 41 503 41 556 l 41 269 q 146 20 41 83 q 255 -7 193 -7 l 283 -7 l 283 104 q 160 209 178 104 q 156 269 156 235 l 156 503 q 254 650 156 629 q 290 654 271 654 l 338 654 m 316 369 l 388 369 q 458 338 446 369 q 464 308 464 324 l 464 216 q 349 104 461 106 l 349 -7 l 384 -7 q 556 102 507 -7 q 579 213 579 152 l 579 346 q 460 479 579 469 q 434 480 448 480 l 316 480 l 316 369 m 922 658 q 1050 574 1029 658 q 1053 562 1051 567 l 1160 589 q 1082 724 1149 670 q 951 769 1025 769 l 867 769 q 640 609 689 769 q 625 507 625 560 l 625 273 q 731 24 625 87 q 840 -3 777 -3 l 868 -3 l 868 109 q 745 213 762 109 q 741 273 741 239 l 741 507 q 838 654 741 633 q 875 658 856 658 l 922 658 m 901 373 l 972 373 q 1043 342 1031 373 q 1048 312 1048 328 l 1048 220 q 933 109 1046 110 l 933 -3 l 968 -3 q 1141 106 1092 -3 q 1164 217 1164 156 l 1164 350 q 1044 483 1164 473 q 1019 484 1032 484 l 901 484 l 901 373 z "},"ෞ":{"ha":1371,"x_min":41,"x_max":1344,"o":"m 338 654 q 465 570 445 654 q 468 557 467 563 l 575 585 q 498 720 564 666 q 366 765 441 765 l 282 765 q 56 605 104 765 q 41 503 41 556 l 41 269 q 146 20 41 83 q 255 -7 193 -7 l 283 -7 l 283 104 q 160 209 178 104 q 156 269 156 235 l 156 503 q 254 650 156 629 q 290 654 271 654 l 338 654 m 316 369 l 388 369 q 458 338 446 369 q 464 308 464 324 l 464 216 q 349 104 461 106 l 349 -7 l 384 -7 q 556 102 507 -7 q 579 213 579 152 l 579 346 q 460 479 579 469 q 434 480 448 480 l 316 480 l 316 369 m 1104 -11 q 1291 66 1221 -11 q 1344 213 1344 127 l 1344 613 q 1263 755 1343 715 q 1196 772 1230 772 q 1073 707 1112 772 q 1054 629 1054 673 l 1054 579 q 1016 529 1054 537 q 1004 528 1009 528 q 958 562 967 528 q 955 579 955 571 l 955 765 l 867 765 l 867 556 q 947 420 867 456 q 1006 408 975 408 q 1118 468 1081 408 q 1135 537 1135 499 l 1135 605 q 1173 656 1135 648 q 1184 658 1179 658 q 1232 623 1222 658 q 1234 605 1234 613 l 1234 212 q 1160 106 1234 133 q 1108 98 1135 98 q 994 151 1031 98 q 977 212 977 178 l 977 274 l 867 274 l 867 213 q 978 20 867 80 q 1104 -11 1035 -11 z "},"ෙ":{"ha":620,"x_min":41,"x_max":579,"o":"m 338 654 q 465 570 445 654 q 468 557 467 563 l 575 585 q 498 720 564 666 q 366 765 441 765 l 282 765 q 56 605 104 765 q 41 503 41 556 l 41 269 q 146 20 41 83 q 255 -7 193 -7 l 283 -7 l 283 104 q 160 209 178 104 q 156 269 156 235 l 156 503 q 254 650 156 629 q 290 654 271 654 l 338 654 m 316 369 l 388 369 q 458 338 446 369 q 464 308 464 324 l 464 216 q 349 104 461 106 l 349 -7 l 384 -7 q 556 102 507 -7 q 579 213 579 152 l 579 346 q 460 479 579 469 q 434 480 448 480 l 316 480 l 316 369 z "},"ේ":{"ha":1010,"x_min":41,"x_max":970,"o":"m 338 654 q 465 570 445 654 q 468 557 467 563 l 575 585 q 498 720 564 666 q 366 765 441 765 l 282 765 q 56 605 104 765 q 41 503 41 556 l 41 269 q 146 20 41 83 q 255 -7 193 -7 l 283 -7 l 283 104 q 160 209 178 104 q 156 269 156 235 l 156 503 q 254 650 156 629 q 290 654 271 654 l 338 654 m 316 369 l 388 369 q 458 338 446 369 q 464 308 464 324 l 464 216 q 349 104 461 106 l 349 -7 l 384 -7 q 556 102 507 -7 q 579 213 579 152 l 579 346 q 460 479 579 469 q 434 480 448 480 l 316 480 l 316 369 m 854 840 l 970 840 l 970 1111 l 854 1111 l 854 840 z "},"ි":{"ha":0,"x_min":-785,"x_max":-76,"o":"m -785 817 l -785 854 q -690 1029 -785 968 q -547 1070 -628 1070 l -315 1070 q -119 983 -187 1070 q -76 854 -76 926 l -76 817 l -187 817 q -334 959 -187 956 q -336 959 -335 959 l -525 959 q -674 817 -673 955 l -785 817 z "},"ී":{"ha":0,"x_min":-806,"x_max":-75,"o":"m -205 787 q -92 853 -127 787 q -75 924 -75 886 q -178 1077 -75 1034 q -281 1096 -224 1096 l -567 1096 q -753 1006 -681 1096 q -806 859 -806 940 l -806 817 l -693 817 q -614 970 -693 932 q -545 985 -585 985 l -338 985 q -298 983 -315 985 q -331 906 -330 949 q -270 803 -331 837 q -205 787 -240 787 z "},"ෳ":{"ha":544,"x_min":28,"x_max":505,"o":"m 264 -11 q 79 69 146 -11 q 28 213 28 129 l 28 274 l 138 274 l 138 212 q 212 109 138 137 q 269 98 239 98 q 380 155 347 98 q 395 212 395 180 l 395 605 q 357 656 395 648 q 346 658 351 658 q 298 624 311 658 q 296 605 296 614 l 296 537 q 224 420 296 453 q 167 408 197 408 q 49 473 87 408 q 28 556 28 510 l 28 765 l 115 765 l 115 579 q 152 529 115 540 q 165 528 159 528 q 212 562 202 528 q 214 579 214 571 l 214 629 q 293 758 214 723 q 357 772 324 772 q 479 705 437 772 q 505 613 503 666 l 505 213 q 393 22 505 83 q 264 -11 335 -11 z "},"ෟ":{"ha":544,"x_min":26,"x_max":503,"o":"m 263 -11 q 75 69 144 -11 q 26 213 26 129 l 26 274 l 136 274 l 136 212 q 209 109 136 138 q 267 98 237 98 q 378 155 346 98 q 393 212 393 180 l 393 605 q 355 656 393 648 q 343 658 349 658 q 297 623 307 658 q 294 605 294 613 l 294 537 q 222 420 294 453 q 165 408 195 408 q 47 472 85 408 q 26 556 26 509 l 26 765 l 114 765 l 114 579 q 152 529 114 537 q 163 528 157 528 q 210 562 201 528 q 213 579 213 571 l 213 629 q 293 760 213 724 q 355 772 323 772 q 476 708 433 772 q 503 613 502 667 l 503 213 q 392 22 503 83 q 263 -11 334 -11 z "},"ො":{"ha":1074,"x_min":41,"x_max":1034,"o":"m 338 654 q 465 570 445 654 q 468 557 467 563 l 575 585 q 498 720 564 666 q 366 765 441 765 l 282 765 q 56 605 104 765 q 41 503 41 556 l 41 269 q 146 20 41 83 q 255 -7 193 -7 l 283 -7 l 283 104 q 160 209 178 104 q 156 269 156 235 l 156 503 q 254 650 156 629 q 290 654 271 654 l 338 654 m 316 369 l 388 369 q 458 338 446 369 q 464 308 464 324 l 464 216 q 349 104 461 106 l 349 -7 l 384 -7 q 556 102 507 -7 q 579 213 579 152 l 579 346 q 460 479 579 469 q 434 480 448 480 l 316 480 l 316 369 m 751 0 l 779 0 q 1034 273 1032 3 l 1034 499 q 779 772 1031 770 l 751 772 l 751 651 l 779 651 q 914 492 913 648 l 914 273 q 779 119 913 121 l 751 119 l 751 0 z "},"ෝ":{"ha":1074,"x_min":41,"x_max":1034,"o":"m 338 654 q 465 570 445 654 q 468 557 467 563 l 575 585 q 498 720 564 666 q 366 765 441 765 l 282 765 q 56 605 104 765 q 41 503 41 556 l 41 269 q 146 20 41 83 q 255 -7 193 -7 l 283 -7 l 283 104 q 160 209 178 104 q 156 269 156 235 l 156 503 q 254 650 156 629 q 290 654 271 654 l 338 654 m 316 369 l 388 369 q 458 338 446 369 q 464 308 464 324 l 464 216 q 349 104 461 106 l 349 -7 l 384 -7 q 556 102 507 -7 q 579 213 579 152 l 579 346 q 460 479 579 469 q 434 480 448 480 l 316 480 l 316 369 m 751 0 l 779 0 q 1034 273 1032 3 l 1034 499 q 779 772 1031 770 l 751 772 l 751 651 l 779 651 q 914 492 913 648 l 914 273 q 779 119 913 121 l 751 119 l 751 0 m 750 840 l 865 840 l 865 1111 l 750 1111 l 750 840 z "},"ෘ":{"ha":465,"x_min":26,"x_max":423,"o":"m 225 0 q 65 76 125 0 q 26 198 26 129 q 106 361 26 305 q 225 395 157 395 l 254 395 l 254 293 l 225 293 q 138 240 163 293 q 129 198 129 220 q 178 117 129 144 q 225 104 201 104 q 307 153 281 104 q 317 198 317 175 l 319 530 q 221 661 315 659 l 99 661 l 99 772 l 231 772 q 399 663 350 772 q 423 541 423 609 l 423 198 q 334 31 423 87 q 225 0 283 0 z "},"ෲ":{"ha":941,"x_min":41,"x_max":901,"o":"m 240 0 q 83 75 141 0 q 41 198 41 129 q 121 359 41 304 q 240 395 171 395 l 270 395 l 270 293 l 240 293 q 155 241 180 293 q 145 198 145 221 q 194 117 145 144 q 240 104 217 104 q 323 153 297 104 q 334 198 334 175 l 334 530 q 236 661 323 652 l 114 661 l 114 772 l 247 772 q 415 663 366 772 q 439 541 439 609 l 439 198 q 350 31 439 88 q 240 0 300 0 m 701 0 q 544 75 602 0 q 502 198 502 129 q 582 359 502 304 q 701 395 632 395 l 731 395 l 731 293 l 701 293 q 616 243 642 293 q 605 198 605 221 q 654 117 605 144 q 701 104 675 104 q 783 152 755 104 q 795 198 795 174 l 795 530 q 697 661 791 659 l 575 661 l 575 772 l 707 772 q 876 665 826 772 q 901 541 901 610 l 901 198 q 811 31 901 88 q 701 0 761 0 z "},"ු":{"ha":0,"x_min":-670,"x_max":-62,"o":"m -180 174 l -180 -160 l -347 -160 l -347 -278 l -62 -278 l -62 174 l -180 174 m -670 -160 l -670 -278 l -423 -278 l -423 -160 l -670 -160 z "},"ූ":{"ha":0,"x_min":-681,"x_max":-64,"o":"m -681 -113 l -681 -232 q -582 -274 -627 -274 q -490 -248 -556 -274 q -420 -233 -449 -233 l -420 -114 q -517 -140 -450 -114 q -582 -155 -555 -155 q -681 -113 -629 -153 m -182 -278 l -64 -278 l -64 167 l -182 167 l -182 -155 q -345 -114 -260 -114 l -345 -233 q -182 -278 -260 -235 z "},"ඹ":{"ha":806,"x_min":41,"x_max":765,"o":"m 254 -15 q 73 87 130 -15 q 41 220 41 144 l 41 479 q 126 628 41 583 q 206 647 164 647 q 334 581 294 647 q 355 498 355 544 l 355 449 q 387 411 355 416 q 395 410 392 410 q 435 449 430 418 l 435 636 l 522 636 l 522 439 q 448 321 522 351 q 397 312 423 312 q 289 368 323 312 q 274 427 274 395 l 274 475 q 232 534 274 522 q 216 537 224 537 q 161 496 174 537 q 157 472 157 484 l 157 227 q 206 123 157 157 q 258 107 231 107 q 302 156 301 110 q 301 172 302 160 q 332 271 296 255 q 359 277 345 277 l 444 277 q 502 186 507 277 q 502 174 502 182 q 500 156 500 160 q 547 107 503 109 q 636 171 608 107 q 647 227 647 198 l 647 688 q 461 905 647 892 q 434 906 448 906 l 434 1024 q 765 696 764 1021 l 765 220 q 671 20 765 83 q 551 -15 618 -15 q 452 49 468 -14 q 445 142 445 69 q 401 187 444 186 q 359 142 361 184 q 353 49 359 68 q 254 -15 335 -14 m 170 735 l 54 765 q 168 966 54 887 q 359 1024 255 1024 l 359 907 q 198 834 251 907 q 170 735 170 792 z "},"න":{"ha":1006,"x_min":41,"x_max":966,"o":"m 715 -5 q 959 176 925 -5 q 966 264 966 217 l 966 456 q 826 722 966 636 q 644 770 745 770 q 426 693 511 769 q 304 764 388 746 q 258 768 281 768 q 87 690 151 768 q 45 605 57 654 l 146 572 q 232 656 167 642 q 258 659 245 659 q 349 614 317 659 q 355 604 353 608 q 278 495 294 519 q 145 378 199 387 l 145 467 l 41 467 l 41 347 q 183 47 41 141 q 376 -8 266 -8 q 613 96 528 -8 q 674 275 674 174 q 585 476 674 403 q 518 515 555 500 l 452 426 q 553 278 552 382 q 473 134 553 183 q 374 107 429 107 q 180 212 240 107 q 160 259 168 235 q 330 385 233 267 q 365 430 345 404 l 471 570 q 636 652 533 651 q 802 576 739 652 q 848 444 848 521 l 848 264 q 745 115 848 130 q 715 114 731 114 l 715 -5 z "},"ඳ":{"ha":956,"x_min":41,"x_max":956,"o":"m 571 0 l 624 0 q 834 83 751 0 q 898 187 878 127 l 789 216 q 624 115 743 117 l 571 115 q 399 205 438 115 q 385 270 385 235 q 500 420 385 393 q 563 427 530 427 l 815 427 l 817 525 q 682 755 817 693 q 549 783 623 783 q 359 713 430 781 q 307 719 336 719 q 103 617 179 719 q 41 401 41 532 l 41 283 q 81 58 41 141 q 133 -24 100 18 l 247 12 q 160 189 171 103 q 156 283 156 221 l 156 401 q 237 581 156 528 q 321 604 275 604 q 400 590 358 604 l 410 586 q 521 673 430 659 q 551 675 536 675 q 680 618 637 675 q 704 543 704 586 l 570 543 q 300 418 374 543 q 263 270 263 355 q 412 31 263 96 q 571 0 483 0 m 716 -277 q 924 -178 856 -277 q 956 -106 945 -145 l 844 -77 q 754 -164 827 -146 q 719 -168 736 -168 q 610 -117 646 -168 q 593 -61 593 -91 l 477 -61 q 583 -245 477 -187 q 716 -277 642 -277 z "},"ඦ":{"ha":1078,"x_min":41,"x_max":1040,"o":"m 601 -12 l 680 -12 q 1001 149 944 -12 q 1019 267 1019 201 l 901 267 q 781 113 901 140 q 684 103 741 103 l 594 103 q 393 184 433 103 q 377 267 377 218 l 259 267 q 410 16 259 72 q 601 -12 484 -12 m 136 -33 l 248 5 q 157 186 170 99 q 153 275 153 220 l 153 446 q 247 620 153 600 q 273 623 260 623 q 334 612 302 623 l 339 609 q 355 604 350 606 l 361 602 q 471 665 384 663 q 572 602 545 665 q 583 552 583 579 l 583 545 l 481 545 q 271 425 308 545 q 259 334 259 384 l 377 334 q 431 433 377 412 q 490 441 456 441 l 789 441 q 895 382 880 441 q 901 334 901 362 l 1019 334 q 914 528 1019 488 q 787 545 865 545 l 694 545 l 694 552 q 728 636 696 605 l 732 633 l 742 647 q 807 665 773 665 q 917 602 895 663 l 1020 636 q 842 770 979 754 q 837 770 838 770 l 1040 1038 l 918 1070 l 639 700 q 469 772 576 772 q 330 732 387 770 q 267 736 301 736 q 85 636 148 736 q 41 463 41 566 l 41 273 q 81 53 41 134 q 136 -33 102 11 z "},"ඞ":{"ha":795,"x_min":41,"x_max":754,"o":"m 258 -5 q 400 64 351 -4 q 552 -5 454 -5 q 724 83 669 -5 q 754 198 754 133 l 754 700 q 591 1000 754 940 q 434 1023 526 1023 l 434 906 q 610 823 571 906 q 635 686 635 773 l 635 206 q 595 129 635 156 q 538 113 570 113 q 448 178 468 113 q 444 206 444 193 l 444 267 l 350 267 l 350 206 q 308 126 350 153 q 255 113 285 113 q 163 179 183 113 q 159 206 159 194 l 159 302 q 198 372 159 357 q 279 382 227 382 l 338 382 q 468 463 431 382 q 483 529 483 494 q 419 651 483 612 q 338 673 384 673 l 235 673 q 81 582 113 673 q 72 528 72 556 l 163 528 q 213 579 163 570 q 236 581 225 581 l 334 581 q 388 543 377 581 q 389 529 389 534 q 354 479 389 491 q 332 475 343 475 l 222 475 q 52 377 81 475 q 41 289 41 342 l 41 198 q 138 23 41 77 q 258 -5 191 -5 m 49 764 l 164 734 q 263 887 164 844 q 358 906 308 906 l 358 1023 q 137 943 232 1023 q 49 764 50 867 z "},"ණ":{"ha":1340,"x_min":7,"x_max":1299,"o":"m 7 20 l 121 -8 q 199 47 141 37 q 222 49 212 49 q 349 19 258 49 q 446 0 408 0 q 625 96 562 0 q 673 281 673 171 q 674 400 673 294 q 674 494 674 484 q 594 749 673 671 l 812 1036 l 686 1069 l 488 807 q 373 822 437 822 q 149 730 233 822 q 79 540 79 654 q 180 316 79 393 q 324 267 244 267 l 420 267 l 420 381 l 351 381 q 202 492 231 381 q 195 541 195 518 q 247 665 195 616 q 373 709 296 709 q 555 557 526 709 q 560 494 560 528 l 560 281 q 457 121 560 141 q 427 118 442 118 q 313 144 397 118 q 206 163 252 163 q 42 79 111 163 q 7 20 20 52 m 897 334 l 1012 334 l 1012 548 q 1067 637 1012 618 q 1097 643 1082 643 q 1179 582 1161 643 q 1183 548 1183 567 l 1183 334 l 1299 334 l 1299 568 q 1192 747 1299 703 q 1104 765 1152 765 q 958 697 1008 764 q 821 765 909 764 q 704 723 746 765 l 743 616 q 810 643 772 643 q 892 579 873 643 q 898 533 898 557 l 897 334 m 735 220 q 852 28 735 90 q 1017 -8 924 -8 q 1245 80 1166 -8 q 1299 231 1299 142 l 1299 267 l 1183 267 l 1183 233 q 1086 114 1183 144 q 1017 104 1054 104 q 876 163 922 104 q 853 235 853 194 l 853 267 l 735 267 l 735 220 z "},"ඬ":{"ha":1027,"x_min":41,"x_max":986,"o":"m 490 -5 q 631 64 582 -4 q 783 -5 686 -5 q 956 85 902 -5 q 986 198 986 134 l 986 701 q 808 1005 986 949 q 669 1024 750 1024 l 669 906 q 842 823 803 906 q 865 686 865 773 l 865 206 q 825 127 865 155 q 769 113 800 113 q 680 179 697 113 q 675 206 675 194 l 675 267 l 581 267 l 581 206 q 538 126 581 153 q 486 113 515 113 q 395 179 415 113 q 391 206 391 194 l 391 296 q 467 369 393 368 l 675 369 l 675 464 q 589 632 675 576 q 469 665 537 665 q 350 631 400 663 q 273 642 307 642 q 85 545 152 642 q 41 385 41 479 l 41 251 q 88 33 41 117 q 125 -23 104 4 l 239 14 q 153 186 164 102 q 151 248 151 212 l 151 366 q 241 528 151 503 q 278 532 259 532 q 366 511 313 530 l 366 513 l 374 510 q 469 560 400 559 q 559 511 532 560 q 571 463 571 488 l 228 463 l 228 369 l 300 369 q 274 296 274 354 l 274 198 q 372 23 274 77 q 490 -5 423 -5 m 283 765 l 399 735 q 498 888 399 845 q 593 907 543 907 l 593 1024 q 373 944 467 1024 q 283 765 285 868 z "},"ඟ":{"ha":1187,"x_min":41,"x_max":1146,"o":"m 41 283 q 81 58 41 141 q 133 -24 100 18 l 247 12 q 160 189 171 103 q 156 283 156 221 l 156 389 q 189 585 156 532 q 304 646 225 642 q 264 472 264 572 l 264 282 q 395 18 266 85 q 525 -11 452 -11 l 525 109 q 387 241 403 109 q 384 282 384 262 l 384 467 q 495 643 384 624 q 525 646 510 646 l 525 765 l 359 765 q 79 629 142 765 q 41 389 41 549 l 41 283 m 887 -11 q 1122 138 1062 -11 q 1146 282 1146 202 l 1146 472 q 1021 734 1146 663 q 887 765 964 765 l 887 646 q 1025 494 1015 646 q 1027 467 1027 480 l 1027 282 q 920 111 1027 132 q 887 109 903 109 l 887 -11 m 567 349 l 625 349 q 726 229 724 345 q 601 109 723 110 l 601 -11 q 830 155 800 -11 q 834 210 834 182 l 834 255 q 742 434 834 396 q 685 445 715 445 l 685 483 q 811 646 690 644 l 811 765 q 572 560 606 765 q 567 481 567 524 l 567 349 z "},"ඤ":{"ha":1545,"x_min":41,"x_max":1545,"o":"m 254 243 q 262 245 256 243 q 271 247 269 247 q 301 183 301 245 l 301 149 q 381 18 301 64 q 475 -8 425 -8 q 597 49 552 -7 q 732 -7 651 -7 q 880 65 829 -7 q 902 107 894 85 q 1160 0 983 0 l 1211 0 q 1424 84 1341 0 q 1487 187 1466 127 l 1378 216 q 1211 115 1332 117 l 1160 115 q 987 202 1028 115 q 974 269 974 232 q 1092 420 974 393 q 1152 427 1120 427 l 1405 427 l 1405 533 q 1179 791 1405 742 q 1050 803 1119 803 l 1050 690 q 1284 543 1283 688 l 1158 543 q 894 426 971 543 q 891 420 892 422 q 761 515 857 490 l 671 442 q 789 372 766 422 q 802 301 802 343 l 802 186 q 749 115 802 133 q 719 111 734 111 q 648 156 665 111 q 643 186 643 171 l 643 267 l 551 267 l 551 184 q 499 114 551 126 q 480 111 490 111 q 412 152 431 111 q 406 184 406 168 l 404 248 q 388 300 403 277 l 735 590 q 975 690 859 690 l 975 804 q 669 689 822 804 q 654 677 661 682 l 651 675 q 529 761 617 739 q 471 768 500 768 q 309 703 373 766 q 266 707 286 707 q 85 604 146 707 q 41 415 41 529 l 41 264 q 88 33 41 122 q 138 -43 109 -4 l 251 -7 q 161 172 174 87 q 156 264 156 206 l 156 415 q 255 591 156 579 q 271 593 264 593 q 338 579 293 593 l 359 572 q 448 656 381 644 q 469 659 458 659 q 563 613 529 659 q 568 605 566 609 l 254 342 l 254 243 m 1305 -277 q 1514 -178 1446 -277 q 1545 -107 1535 -145 l 1432 -79 q 1341 -164 1416 -148 q 1308 -168 1324 -168 q 1199 -117 1234 -168 q 1181 -61 1181 -91 l 1066 -61 q 1175 -247 1066 -190 q 1305 -277 1232 -277 z "},"ඕ":{"ha":803,"x_min":41,"x_max":762,"o":"m 251 -5 q 401 64 349 -4 q 552 -5 456 -4 q 731 84 675 -5 q 762 198 762 134 l 762 643 q 639 859 762 808 q 472 884 574 884 l 282 884 q 210 928 224 884 q 208 945 208 937 q 256 1005 208 993 q 282 1008 269 1008 l 374 1008 l 374 1111 l 255 1111 q 122 1044 171 1111 q 95 970 95 1009 q 134 884 96 917 l 85 884 l 85 773 l 472 773 q 623 724 587 773 q 646 624 646 689 l 646 208 q 601 126 646 155 q 545 111 576 111 q 456 172 479 111 q 449 208 449 190 l 449 267 l 354 267 l 354 208 q 308 123 354 151 q 258 111 285 111 q 165 174 187 111 q 159 208 159 191 l 159 472 q 202 536 159 525 q 217 537 210 537 q 271 496 259 537 q 274 475 274 486 l 274 427 q 345 323 274 351 q 397 312 370 312 q 506 372 473 312 q 522 439 522 401 l 522 636 l 435 636 l 435 449 q 404 411 435 416 q 396 410 399 410 q 355 449 361 418 l 355 498 q 271 633 355 597 q 206 647 240 647 q 72 582 121 647 q 41 481 41 538 l 41 198 q 136 23 41 77 q 251 -5 186 -5 m 639 913 l 754 913 q 697 1070 754 1027 q 532 1111 643 1111 l 452 1111 l 452 1008 l 511 1008 q 617 985 593 1008 q 639 913 639 960 z "},"ඔ":{"ha":803,"x_min":41,"x_max":762,"o":"m 251 -5 q 401 64 349 -4 q 552 -5 456 -4 q 731 84 675 -5 q 762 198 762 134 l 762 701 q 621 990 762 924 q 429 1024 548 1024 l 429 906 q 609 844 563 906 q 646 693 646 792 l 646 208 q 601 126 646 155 q 545 111 576 111 q 456 172 479 111 q 449 208 449 190 l 449 267 l 354 267 l 354 208 q 308 123 354 151 q 258 111 285 111 q 165 174 187 111 q 159 208 159 191 l 159 472 q 202 536 159 525 q 217 537 210 537 q 271 496 259 537 q 274 475 274 486 l 274 427 q 345 321 274 349 q 395 312 369 312 q 505 370 471 312 q 522 439 522 400 l 522 636 l 435 636 l 435 449 q 404 411 435 416 q 396 410 399 410 q 355 449 361 418 l 355 498 q 271 633 355 597 q 206 647 240 647 q 72 582 121 647 q 41 481 41 538 l 41 198 q 136 23 41 77 q 251 -5 186 -5 m 163 735 q 262 890 163 846 q 351 907 304 907 l 351 1024 q 133 943 225 1024 q 47 765 49 868 l 163 735 z "},"ප":{"ha":846,"x_min":42,"x_max":804,"o":"m 42 636 l 145 602 q 255 665 168 663 q 357 602 330 665 q 368 552 368 579 l 368 545 l 266 545 q 56 425 92 545 q 43 334 43 384 l 161 334 q 216 433 161 412 q 274 441 240 441 l 574 441 q 680 382 665 441 q 685 334 685 362 l 803 334 q 699 528 803 488 q 571 545 650 545 l 479 545 l 479 552 q 543 655 479 627 q 591 665 566 665 q 701 602 680 663 l 804 636 q 639 768 765 747 q 593 772 617 772 q 423 700 484 770 q 254 772 361 772 q 61 678 121 772 q 42 636 50 658 m 385 -12 l 463 -12 q 785 148 727 -12 q 803 267 803 199 l 685 267 q 566 113 685 140 q 468 103 525 103 l 378 103 q 179 180 220 103 q 161 267 161 216 l 43 267 q 194 16 43 72 q 385 -12 269 -12 z "},"ඵ":{"ha":755,"x_min":42,"x_max":715,"o":"m 328 -3 l 328 118 q 175 193 220 118 q 159 255 159 222 q 231 370 159 347 q 335 382 269 382 l 423 382 l 423 490 q 334 642 423 594 q 233 665 288 665 q 75 585 123 665 q 57 543 64 564 l 148 518 q 233 570 172 567 q 321 522 297 570 q 330 486 330 505 q 118 434 180 486 q 106 425 111 429 q 42 252 43 361 q 137 61 42 138 q 328 -3 218 -3 m 323 852 q 438 647 323 703 q 533 623 480 628 l 533 707 q 403 836 411 715 q 403 850 403 844 l 403 906 q 578 807 541 906 q 595 675 595 757 l 595 332 q 404 118 593 119 l 404 -3 q 712 269 685 -3 q 715 332 715 300 l 715 701 q 431 1023 715 1009 q 403 1024 418 1024 l 323 1024 l 323 852 z "},"ර":{"ha":718,"x_min":41,"x_max":677,"o":"m 41 323 q 203 15 41 85 q 324 -8 259 -8 l 324 113 q 163 259 183 113 q 159 319 159 286 l 159 568 q 180 685 159 647 q 245 760 201 720 l 560 1043 l 433 1076 l 146 823 q 42 618 47 738 q 41 579 41 604 l 41 323 m 237 655 l 237 651 l 410 651 q 543 578 513 651 q 559 467 559 536 l 559 319 q 479 127 559 164 q 400 114 446 114 l 400 -7 q 659 171 609 -7 q 677 319 677 235 l 677 494 q 452 765 674 764 l 349 765 l 237 655 z "},"ස":{"ha":925,"x_min":41,"x_max":884,"o":"m 98 202 q 194 27 98 85 q 324 -5 251 -5 q 490 72 433 -4 q 659 -5 548 -5 q 852 85 792 -5 q 884 202 884 136 l 884 267 l 766 267 l 766 210 q 694 118 766 137 q 656 113 677 113 q 555 171 578 113 q 547 212 547 190 l 547 267 l 435 267 l 435 212 q 366 118 435 138 q 326 113 346 113 q 224 171 248 113 q 216 210 216 190 l 216 267 l 98 267 l 98 202 m 110 636 l 213 602 q 323 665 239 663 q 427 602 399 665 q 437 552 437 579 l 437 545 l 41 545 l 41 441 l 121 441 q 99 378 99 427 q 98 334 98 373 l 216 334 q 220 380 216 372 q 294 441 232 438 l 689 441 q 761 384 757 441 q 761 381 761 382 q 766 334 766 376 l 884 334 l 884 385 q 703 545 882 544 l 547 545 l 547 552 q 610 655 547 628 q 661 665 635 665 q 770 602 749 663 l 873 636 q 708 768 834 747 q 662 772 686 772 q 495 704 555 772 q 492 700 494 701 q 321 772 430 770 q 130 678 190 772 q 110 636 118 658 z "},"ශ":{"ha":963,"x_min":41,"x_max":922,"o":"m 662 -11 q 899 146 842 -11 q 922 282 921 206 l 922 472 q 792 736 921 669 q 662 765 735 765 l 662 646 q 800 509 783 646 q 803 467 803 488 l 803 282 q 693 111 803 130 q 662 109 677 109 l 662 -11 m 300 -11 l 300 109 q 163 231 184 109 q 159 282 159 255 l 159 467 q 270 643 159 624 q 300 646 285 646 l 300 765 q 64 612 122 765 q 41 472 41 551 l 41 282 q 168 19 41 88 q 300 -11 225 -11 m 343 349 l 404 349 q 502 229 500 346 q 376 109 499 110 l 376 -11 q 609 197 595 -8 q 719 316 609 298 q 761 319 739 319 l 761 414 q 585 361 642 412 q 471 434 547 427 l 461 434 l 461 483 q 586 646 464 644 l 586 765 q 347 551 377 765 q 343 481 343 517 l 343 349 z "},"ෂ":{"ha":867,"x_min":41,"x_max":826,"o":"m 53 636 l 156 602 q 266 665 179 663 q 370 602 342 665 q 380 552 380 579 l 380 548 l 263 548 q 54 430 92 548 q 41 334 41 388 l 159 334 q 213 435 159 415 q 271 444 237 444 l 465 444 q 358 228 359 358 l 472 229 q 613 444 473 355 q 704 377 692 438 q 708 334 708 359 l 826 334 q 723 529 826 490 q 594 548 674 548 l 490 548 l 490 552 q 553 655 490 628 q 604 665 578 665 q 713 602 689 663 l 817 636 q 648 768 776 749 q 604 772 627 772 q 434 700 495 770 q 264 772 373 770 q 73 678 133 772 q 53 636 61 658 m 382 -12 l 486 -12 q 808 148 750 -12 q 826 267 826 199 l 708 267 q 589 113 708 140 q 491 103 548 103 l 376 103 q 175 184 214 103 q 159 267 159 218 l 41 267 q 191 16 41 72 q 382 -12 266 -12 z "},"ත":{"ha":1038,"x_min":41,"x_max":997,"o":"m 41 239 q 61 241 49 241 q 122 193 95 241 q 134 172 126 186 q 155 134 148 146 q 415 -8 244 -7 q 650 110 578 -8 q 688 254 688 174 q 591 477 688 418 q 529 505 563 495 l 439 433 q 567 328 548 406 q 574 259 574 301 q 498 127 574 167 q 412 107 460 107 q 243 198 302 107 q 216 243 232 213 q 176 304 191 288 l 522 590 q 674 644 589 644 q 841 560 783 644 q 879 422 879 503 l 879 269 q 779 121 879 136 q 745 118 762 118 l 745 -1 q 986 168 948 -1 q 997 269 997 213 l 997 430 q 859 716 997 628 q 685 765 781 765 q 458 689 567 764 q 335 762 419 743 q 285 768 309 768 q 111 688 174 768 q 71 605 83 652 l 174 572 q 262 656 195 644 q 283 659 273 659 q 372 618 339 658 l 41 342 l 41 239 z "},"ථ":{"ha":749,"x_min":41,"x_max":708,"o":"m 315 852 q 433 647 315 701 q 526 623 473 628 l 526 707 q 396 830 406 713 q 395 850 395 841 l 395 906 q 571 807 534 906 q 589 675 589 757 l 589 332 q 396 118 586 119 l 396 -3 q 704 259 673 -3 q 708 332 708 294 l 708 701 q 433 1023 708 1005 q 395 1024 414 1024 l 315 1024 l 315 852 m 41 361 l 41 277 q 117 80 41 163 q 321 -3 195 -3 l 321 118 q 178 203 220 118 q 159 285 159 241 l 159 361 q 266 517 159 488 q 321 524 292 524 l 321 640 q 47 439 88 640 q 41 361 41 401 z "},"ට":{"ha":751,"x_min":41,"x_max":711,"o":"m 46 361 q 214 625 46 574 q 326 640 263 640 l 326 524 q 170 415 197 524 q 163 361 163 389 l 163 285 q 232 142 163 190 q 326 115 273 115 l 326 -3 q 84 132 160 -3 q 46 277 46 199 l 46 361 m 401 -3 l 401 115 q 582 236 549 115 q 593 331 593 278 l 593 693 q 464 901 593 872 q 401 906 435 906 l 401 1024 q 701 811 656 1024 q 711 701 711 761 l 711 324 q 401 -3 708 -1 m 41 765 q 145 960 41 880 q 326 1024 229 1024 l 326 907 q 190 841 241 907 q 156 735 156 795 l 41 765 z "},"ඨ":{"ha":804,"x_min":50,"x_max":764,"o":"m 267 -5 q 410 64 361 -4 q 562 -5 464 -5 q 734 83 678 -5 q 764 198 764 133 l 764 701 q 488 1023 764 1005 q 450 1024 469 1024 l 370 1024 l 370 852 q 488 647 370 701 q 582 623 529 628 l 582 707 q 452 830 461 713 q 450 850 450 841 l 450 906 q 627 807 590 906 q 644 675 644 757 l 644 206 q 605 129 644 156 q 548 113 579 113 q 457 178 477 113 q 453 206 453 193 l 453 267 l 359 267 l 359 206 q 317 126 359 153 q 264 113 294 113 q 172 179 193 113 q 168 206 168 194 l 168 384 q 243 517 168 481 q 315 530 274 530 l 357 530 l 357 647 l 315 647 q 57 463 96 647 q 50 388 50 427 l 50 198 q 148 23 50 77 q 267 -5 201 -5 z "},"උ":{"ha":754,"x_min":41,"x_max":772,"o":"m 439 -110 q 652 20 612 -110 q 658 38 656 30 l 772 5 q 492 -225 728 -202 q 439 -228 467 -228 l 439 -110 m 174 629 q 315 761 201 722 q 426 780 369 780 q 651 677 579 780 q 696 529 693 616 l 696 420 l 363 420 q 163 247 189 420 q 159 180 159 216 l 159 115 q 298 -96 159 -43 q 363 -111 332 -109 l 363 -229 q 151 -144 245 -229 q 41 115 41 -43 l 41 180 q 361 538 43 537 l 583 538 q 481 665 576 636 q 427 673 454 673 q 294 625 339 673 q 274 591 279 609 l 174 629 z "},"ඌ":{"ha":1287,"x_min":41,"x_max":1260,"o":"m 439 -110 q 652 20 612 -110 q 658 38 656 30 l 772 5 q 492 -225 728 -202 q 439 -228 467 -228 l 439 -110 m 174 629 q 315 761 201 722 q 426 780 369 780 q 651 677 579 780 q 696 529 693 616 l 696 420 l 363 420 q 163 247 189 420 q 159 180 159 216 l 159 115 q 298 -96 159 -43 q 363 -111 332 -109 l 363 -229 q 151 -144 245 -229 q 41 115 41 -43 l 41 180 q 361 538 43 537 l 583 538 q 481 665 576 636 q 427 673 454 673 q 294 625 339 673 q 274 591 279 609 l 174 629 m 1020 -11 q 834 69 902 -11 q 784 213 784 129 l 784 274 l 892 274 l 892 212 q 966 109 892 138 q 1024 98 994 98 q 1135 155 1103 98 q 1150 212 1150 180 l 1150 605 q 1112 656 1150 648 q 1101 658 1107 658 q 1054 623 1063 658 q 1051 605 1051 613 l 1051 537 q 979 420 1051 453 q 922 408 952 408 q 804 473 842 408 q 784 556 784 510 l 784 765 l 871 765 l 871 579 q 909 529 871 537 q 920 528 914 528 q 967 562 958 528 q 970 579 970 571 l 970 629 q 1048 758 970 723 q 1112 772 1080 772 q 1233 708 1190 772 q 1260 613 1259 667 l 1260 213 q 1149 22 1260 83 q 1020 -11 1090 -11 z "},"ව":{"ha":758,"x_min":41,"x_max":718,"o":"m 330 -3 q 103 96 187 -3 q 45 252 45 165 q 98 415 45 362 q 109 425 103 420 q 311 486 170 483 q 331 486 320 486 q 273 564 331 544 q 236 570 255 570 q 152 524 172 570 q 151 518 151 519 l 60 543 q 197 662 90 643 q 236 665 217 665 q 395 591 340 665 q 426 490 426 547 l 426 382 l 338 382 q 182 335 214 382 q 161 255 161 305 q 228 141 161 180 q 330 115 271 115 l 330 -3 m 406 -3 l 406 115 q 598 332 597 118 l 598 686 q 490 894 598 857 q 406 906 454 906 l 406 1024 q 715 766 686 1024 q 718 701 718 735 l 718 332 q 469 1 718 33 q 406 -3 438 -3 m 41 765 q 145 959 41 880 q 330 1024 232 1024 l 330 907 q 193 842 244 907 q 156 735 156 795 l 41 765 z "},"ය":{"ha":871,"x_min":41,"x_max":826,"o":"m 41 202 q 137 27 41 85 q 267 -5 194 -5 q 431 72 376 -4 q 601 -5 490 -4 q 795 88 736 -5 q 826 202 826 137 l 826 267 l 709 267 l 709 210 q 639 118 709 138 q 600 113 620 113 q 496 170 522 113 q 488 212 488 190 l 488 267 l 378 267 l 378 212 q 311 119 378 140 q 269 113 290 113 q 167 171 191 113 q 159 210 159 190 l 159 267 l 41 267 l 41 202 m 399 441 l 629 441 q 704 404 693 441 q 708 376 708 391 l 708 334 l 826 334 l 826 385 q 703 541 826 521 q 650 545 677 545 l 510 545 q 597 659 510 650 q 617 661 608 661 q 727 602 700 659 l 826 635 q 617 766 769 765 q 425 659 479 766 q 399 532 399 605 l 399 441 m 41 334 l 159 334 l 159 448 q 271 643 159 606 q 334 652 300 652 l 359 652 l 359 764 l 336 764 q 98 655 179 764 q 41 461 41 578 l 41 334 z "},"෴":{"ha":2115,"x_min":203,"x_max":1954,"o":"m 792 637 l 882 589 q 671 191 713 259 q 515 27 593 65 q 366 0 457 0 l 203 0 l 203 100 l 366 100 q 519 157 463 100 q 688 429 581 214 q 792 637 712 476 m 998 661 l 1086 612 l 785 0 l 696 50 l 998 661 m 1120 511 l 1208 463 l 981 0 l 890 50 l 1120 511 m 1176 0 l 1086 50 l 1245 374 q 1560 174 1487 212 q 1805 100 1697 100 l 1954 100 l 1954 0 l 1803 0 q 1436 123 1638 0 q 1286 224 1382 157 l 1176 0 z "},"ඏ":{"ha":1259,"x_min":41,"x_max":1218,"o":"m 591 -12 l 670 -12 q 963 95 890 -11 q 1028 3 971 31 q 1077 -8 1053 -8 q 1177 50 1145 -8 q 1187 72 1183 61 q 1218 274 1218 151 l 1105 274 q 1103 217 1105 254 q 1077 220 1086 220 q 1002 191 1035 218 q 1009 267 1009 231 l 891 267 q 772 113 891 140 q 674 103 731 103 l 585 103 q 384 184 423 103 q 368 267 368 218 l 250 267 q 255 193 250 222 q 182 220 222 220 q 156 217 171 220 q 153 274 153 255 l 41 274 q 79 56 41 136 q 182 -8 114 -5 q 279 47 247 -8 q 294 92 292 69 q 591 -12 370 -12 m 251 334 l 368 334 q 422 433 368 412 q 480 441 446 441 l 781 441 q 888 380 872 441 q 892 334 892 361 l 1009 334 q 905 528 1009 488 q 777 545 856 545 l 685 545 l 685 552 q 749 655 685 627 q 798 665 772 665 q 907 602 886 663 l 909 602 l 941 613 q 993 621 963 621 q 1104 500 1090 621 q 1105 464 1105 483 l 1105 340 l 1218 340 l 1218 479 q 1124 697 1218 627 q 1002 736 1070 736 q 943 730 975 736 q 799 772 884 772 q 629 700 690 770 q 460 772 567 772 q 317 730 376 770 q 256 736 281 736 q 79 633 140 736 q 41 479 41 567 l 41 340 l 153 340 l 153 464 q 267 621 156 618 q 317 613 297 621 l 350 602 l 351 602 q 461 665 374 663 q 563 602 536 665 q 574 552 574 579 l 574 545 l 472 545 q 264 429 302 545 q 251 334 251 388 z "},"ඐ":{"ha":1812,"x_min":41,"x_max":1784,"o":"m 41 274 q 79 56 41 136 q 182 -8 114 -5 q 279 47 247 -8 q 294 92 292 69 q 591 -12 370 -12 l 670 -12 q 963 95 890 -11 q 1028 3 971 31 q 1077 -8 1053 -8 q 1177 50 1145 -8 q 1187 72 1183 61 q 1218 274 1218 151 l 1105 274 q 1103 217 1105 254 q 1077 220 1086 220 q 1002 191 1035 218 q 1009 267 1009 231 l 891 267 q 772 113 891 140 q 674 103 731 103 l 585 103 q 384 184 423 103 q 368 267 368 218 l 250 267 q 255 193 250 222 q 182 220 222 220 q 156 217 171 220 q 153 274 153 255 l 41 274 m 251 334 l 368 334 q 422 433 368 412 q 480 441 446 441 l 781 441 q 888 380 872 441 q 892 334 892 361 l 1009 334 q 905 528 1009 488 q 777 545 856 545 l 685 545 l 685 552 q 749 655 685 627 q 798 665 772 665 q 907 602 886 663 l 909 602 l 941 613 q 993 621 963 621 q 1104 500 1090 621 q 1105 464 1105 483 l 1105 340 l 1218 340 l 1218 479 q 1124 697 1218 627 q 1002 736 1070 736 q 943 730 975 736 q 799 772 884 772 q 629 700 690 770 q 460 772 567 772 q 317 730 376 770 q 256 736 281 736 q 79 633 140 736 q 41 479 41 567 l 41 340 l 153 340 l 153 464 q 267 621 156 618 q 317 613 297 621 l 350 602 l 351 602 q 461 665 374 663 q 563 602 536 665 q 574 552 574 579 l 574 545 l 472 545 q 264 429 302 545 q 251 334 251 388 m 1545 -11 q 1732 68 1663 -11 q 1784 213 1784 127 l 1784 613 q 1704 755 1782 715 q 1636 772 1671 772 q 1514 708 1553 772 q 1493 629 1493 674 l 1493 579 q 1455 529 1493 537 q 1444 528 1450 528 q 1398 562 1408 528 q 1396 579 1396 571 l 1396 765 l 1308 765 l 1308 556 q 1388 420 1308 457 q 1446 408 1415 408 q 1557 467 1520 408 q 1576 537 1576 498 l 1576 605 q 1614 656 1576 648 q 1625 658 1619 658 q 1672 624 1660 658 q 1675 605 1675 614 l 1675 212 q 1600 106 1675 133 q 1549 98 1576 98 q 1435 151 1472 98 q 1417 212 1417 178 l 1417 274 l 1308 274 l 1308 213 q 1419 20 1308 80 q 1545 -11 1476 -11 z "},"ඍ":{"ha":1347,"x_min":41,"x_max":1318,"o":"m 1120 0 q 1278 75 1219 0 q 1318 198 1318 127 l 1318 541 q 1227 743 1318 685 q 1126 772 1183 772 l 994 772 l 994 661 l 1116 661 q 1213 530 1211 658 l 1213 198 q 1162 115 1213 141 q 1120 104 1142 104 q 1035 155 1062 104 q 1024 198 1024 176 q 1078 283 1024 259 q 1120 293 1099 293 l 1149 293 l 1149 395 l 1120 395 q 947 300 1000 395 q 921 198 921 254 q 1008 34 921 90 q 1120 0 1059 0 m 41 202 q 137 27 41 85 q 267 -5 194 -5 q 431 72 376 -4 q 601 -5 490 -4 q 795 88 736 -5 q 826 202 826 137 l 826 267 l 709 267 l 709 210 q 639 118 709 138 q 600 113 620 113 q 496 170 522 113 q 488 212 488 190 l 488 267 l 378 267 l 378 212 q 311 119 378 140 q 269 113 290 113 q 167 171 191 113 q 159 210 159 190 l 159 267 l 41 267 l 41 202 m 52 636 l 155 602 q 264 665 180 663 q 369 602 340 665 q 378 552 378 579 l 378 545 l 222 545 q 41 385 42 543 l 41 334 l 159 334 l 159 372 q 236 441 163 439 l 632 441 q 709 374 704 441 q 709 372 709 373 l 709 334 l 826 334 l 826 385 q 646 545 823 544 l 488 545 l 488 552 q 552 655 488 628 q 602 665 576 665 q 712 602 690 663 l 815 636 q 650 768 776 747 q 604 772 628 772 q 437 704 496 772 q 434 700 435 701 q 264 772 372 772 q 71 675 130 772 q 52 636 60 656 z "},"ඎ":{"ha":1827,"x_min":41,"x_max":1799,"o":"m 41 202 q 137 27 41 85 q 267 -5 194 -5 q 431 72 376 -4 q 601 -5 490 -4 q 795 88 736 -5 q 826 202 826 137 l 826 267 l 709 267 l 709 210 q 639 118 709 138 q 600 113 620 113 q 496 170 522 113 q 488 212 488 190 l 488 267 l 378 267 l 378 212 q 311 119 378 140 q 269 113 290 113 q 167 171 191 113 q 159 210 159 190 l 159 267 l 41 267 l 41 202 m 52 636 l 155 602 q 264 665 180 663 q 369 602 340 665 q 378 552 378 579 l 378 545 l 222 545 q 41 385 42 543 l 41 334 l 159 334 l 159 372 q 236 441 163 439 l 632 441 q 709 374 704 441 q 709 372 709 373 l 709 334 l 826 334 l 826 385 q 646 545 823 544 l 488 545 l 488 552 q 552 655 488 628 q 602 665 576 665 q 712 602 690 663 l 815 636 q 650 768 776 747 q 604 772 628 772 q 437 704 496 772 q 434 700 435 701 q 264 772 372 772 q 71 675 130 772 q 52 636 60 656 m 1120 0 q 1278 75 1219 0 q 1318 198 1318 127 l 1318 541 q 1227 743 1318 685 q 1126 772 1183 772 l 994 772 l 994 661 l 1116 661 q 1213 530 1211 658 l 1213 198 q 1162 115 1213 141 q 1120 104 1142 104 q 1035 155 1062 104 q 1024 198 1024 176 q 1078 283 1024 259 q 1120 293 1099 293 l 1149 293 l 1149 395 l 1120 395 q 947 300 1000 395 q 921 198 921 254 q 1008 34 921 90 q 1120 0 1059 0 m 1599 0 q 1758 75 1699 0 q 1799 198 1799 127 l 1799 541 q 1708 743 1799 685 q 1606 772 1663 772 l 1473 772 l 1473 661 l 1595 661 q 1693 548 1685 661 q 1693 530 1693 538 l 1693 198 q 1643 115 1693 141 q 1599 104 1622 104 q 1515 153 1544 104 q 1504 198 1504 175 q 1557 283 1504 259 q 1599 293 1577 293 l 1629 293 l 1629 395 l 1599 395 q 1427 301 1480 395 q 1400 198 1400 255 q 1487 34 1400 91 q 1599 0 1538 0 z "},"/":{"ha":468,"x_min":61,"x_max":407,"o":"m 61 -24 l 298 978 l 407 978 l 171 -24 l 61 -24 z "}," ":{"ha":319,"x_min":0,"x_max":0,"o":""},"£":{"ha":560,"x_min":27,"x_max":532,"o":"m 27 415 l 107 415 l 107 0 l 529 0 l 529 96 l 220 96 l 220 418 l 415 418 l 415 513 l 221 513 l 221 730 q 297 844 221 822 q 334 849 315 849 q 444 772 406 848 l 532 815 q 416 939 502 903 q 328 955 377 955 l 326 955 q 130 837 183 955 q 107 726 107 787 l 107 510 l 27 510 l 27 415 z "},"∑":{"ha":831,"x_min":41,"x_max":716,"o":"m 298 834 l 217 940 l 217 952 l 716 952 l 716 834 l 298 834 m 41 -190 l 41 -66 l 389 406 l 41 864 l 41 952 l 125 952 l 540 401 l 190 -66 l 716 -65 l 716 -190 l 41 -190 z "},"t":{"ha":388,"x_min":23,"x_max":381,"o":"m 23 616 l 23 726 l 113 726 l 113 960 l 228 960 l 228 726 l 315 726 l 315 614 l 228 614 l 228 225 q 307 118 228 129 q 336 115 321 115 l 355 115 l 381 0 l 332 0 q 127 125 165 1 q 114 239 114 171 l 113 616 l 23 616 z "},"ť":{"ha":526,"x_min":23,"x_max":453,"o":"m 293 783 l 343 989 l 453 989 l 403 783 l 293 783 m 23 616 l 23 726 l 113 726 l 113 960 l 228 960 l 228 726 l 315 726 l 315 614 l 228 614 l 228 225 q 307 118 228 129 q 336 115 321 115 l 355 115 l 381 0 l 332 0 q 127 125 165 1 q 114 239 114 171 l 113 616 l 23 616 z "},"þ":{"ha":572,"x_min":41,"x_max":537,"o":"m 41 -247 l 41 949 l 149 949 l 149 -247 l 41 -247 m 208 600 l 208 701 l 309 701 q 500 609 431 701 q 537 510 537 557 l 537 189 q 476 61 537 118 q 315 0 412 0 l 217 0 l 217 103 l 317 103 q 425 167 401 103 q 431 205 431 184 l 431 500 q 366 589 431 563 q 309 600 340 600 l 208 600 z "},"¾":{"ha":815,"x_min":49,"x_max":793,"o":"m 216 472 l 216 543 q 282 593 271 543 q 283 610 283 602 q 245 671 283 654 q 208 678 229 678 l 190 678 l 190 743 l 208 743 q 282 799 271 743 q 283 811 283 806 q 236 876 283 865 q 216 879 225 879 l 216 949 q 332 887 293 949 q 351 817 351 856 q 301 711 350 743 q 351 605 350 677 q 282 488 351 525 q 216 472 251 472 m 658 0 l 658 475 l 730 475 l 730 149 l 766 149 l 766 83 l 730 83 l 730 0 l 658 0 m 450 83 l 450 149 l 623 446 l 623 313 l 529 149 l 623 149 l 623 83 l 450 83 m 49 601 l 114 614 q 178 541 119 551 l 179 541 l 179 471 q 68 537 107 475 q 49 601 50 568 m 49 819 q 114 929 52 890 q 179 949 145 948 l 179 879 q 114 811 121 869 q 114 807 114 808 l 49 819 m 133 0 l 719 949 l 793 949 l 212 0 l 133 0 z "},"³":{"ha":309,"x_min":23,"x_max":283,"o":"m 161 525 l 161 581 q 222 621 209 583 q 227 644 227 633 q 165 708 227 700 q 145 709 155 709 l 145 765 q 225 819 216 765 q 227 831 227 826 q 176 892 227 882 q 161 895 168 895 l 161 951 q 266 897 231 951 q 283 833 283 867 q 240 738 282 766 q 283 643 283 707 q 217 537 283 570 q 161 525 190 525 m 23 631 l 76 642 q 129 581 87 590 l 129 525 q 37 585 68 528 q 23 631 24 608 m 23 845 q 77 935 26 903 q 129 951 102 949 l 129 895 q 87 865 98 884 q 76 834 79 853 l 23 845 z "},"˜":{"ha":452,"x_min":35,"x_max":416,"o":"m 35 164 l 35 258 q 130 288 88 288 q 227 256 164 288 q 308 232 274 232 q 416 270 355 233 l 416 178 q 302 140 354 140 q 202 171 266 140 q 125 194 156 194 q 35 164 83 193 z "},"™":{"ha":590,"x_min":35,"x_max":511,"o":"m 35 905 l 35 949 l 218 949 l 218 905 l 151 905 l 151 658 l 104 658 l 104 905 l 35 905 m 250 658 l 250 863 l 255 863 l 296 765 l 296 658 l 250 658 m 250 924 l 250 949 l 289 949 l 376 738 l 441 882 l 448 882 l 448 789 l 391 658 l 361 658 l 250 924 m 465 658 l 465 949 l 511 949 l 511 658 l 465 658 z "},"²":{"ha":308,"x_min":20,"x_max":282,"o":"m 20 846 q 75 935 23 902 q 129 952 100 951 l 129 897 q 84 871 102 897 q 73 836 76 854 l 20 846 m 28 526 l 28 585 l 274 585 l 274 526 l 28 526 m 28 613 q 122 732 28 680 q 155 751 153 750 q 222 819 214 789 q 225 834 225 826 q 184 892 225 879 q 160 897 172 897 l 160 952 q 277 873 254 952 q 282 833 282 853 q 203 718 282 766 q 201 716 202 716 q 174 701 193 711 q 102 640 115 669 q 96 613 96 628 l 28 613 z "},"u":{"ha":633,"x_min":52,"x_max":582,"o":"m 52 195 l 52 732 l 167 732 l 167 209 q 216 127 167 160 q 288 107 248 107 l 288 -7 q 87 95 157 -7 q 52 195 52 146 m 347 -7 l 347 107 q 454 165 420 107 q 467 209 467 187 l 467 732 l 582 732 l 582 195 q 524 69 582 132 q 347 -7 453 -5 z "},"ú":{"ha":633,"x_min":52,"x_max":582,"o":"m 319 815 l 369 1021 l 479 1021 l 397 815 l 319 815 m 52 195 l 52 732 l 167 732 l 167 209 q 216 127 167 160 q 288 107 248 107 l 288 -7 q 87 95 157 -7 q 52 195 52 146 m 347 -7 l 347 107 q 454 165 420 107 q 467 209 467 187 l 467 732 l 582 732 l 582 195 q 524 69 582 132 q 347 -7 453 -5 z "},"û":{"ha":633,"x_min":52,"x_max":582,"o":"m 182 815 l 283 1021 l 349 1021 l 452 815 l 374 815 l 316 933 l 259 815 l 182 815 m 52 195 l 52 732 l 167 732 l 167 209 q 216 127 167 160 q 288 107 248 107 l 288 -7 q 87 95 157 -7 q 52 195 52 146 m 347 -7 l 347 107 q 454 165 420 107 q 467 209 467 187 l 467 732 l 582 732 l 582 195 q 524 69 582 132 q 347 -7 453 -5 z "},"ü":{"ha":633,"x_min":52,"x_max":582,"o":"m 159 883 q 199 945 159 926 q 227 951 212 951 q 289 910 271 951 q 294 883 294 897 q 254 821 294 838 q 227 815 240 815 q 164 856 182 815 q 159 883 159 869 m 339 883 q 378 944 339 925 q 408 951 393 951 q 469 910 452 951 q 475 883 475 897 q 435 821 475 838 q 408 815 422 815 q 345 856 362 815 q 339 883 339 869 m 52 195 l 52 732 l 167 732 l 167 209 q 216 127 167 160 q 288 107 248 107 l 288 -7 q 87 95 157 -7 q 52 195 52 146 m 347 -7 l 347 107 q 454 165 420 107 q 467 209 467 187 l 467 732 l 582 732 l 582 195 q 524 69 582 132 q 347 -7 453 -5 z "},"ù":{"ha":633,"x_min":52,"x_max":582,"o":"m 195 1021 l 305 1021 l 355 815 l 277 815 l 195 1021 m 52 195 l 52 732 l 167 732 l 167 209 q 216 127 167 160 q 288 107 248 107 l 288 -7 q 87 95 157 -7 q 52 195 52 146 m 347 -7 l 347 107 q 454 165 420 107 q 467 209 467 187 l 467 732 l 582 732 l 582 195 q 524 69 582 132 q 347 -7 453 -5 z "},"ű":{"ha":633,"x_min":52,"x_max":582,"o":"m 361 815 l 411 1021 l 521 1021 l 439 815 l 361 815 m 195 815 l 245 1021 l 355 1021 l 274 815 l 195 815 m 52 195 l 52 732 l 167 732 l 167 209 q 216 127 167 160 q 288 107 248 107 l 288 -7 q 87 95 157 -7 q 52 195 52 146 m 347 -7 l 347 107 q 454 165 420 107 q 467 209 467 187 l 467 732 l 582 732 l 582 195 q 524 69 582 132 q 347 -7 453 -5 z "},"ū":{"ha":633,"x_min":52,"x_max":582,"o":"m 103 815 l 103 888 l 532 888 l 532 815 l 103 815 m 52 195 l 52 732 l 167 732 l 167 209 q 216 127 167 160 q 288 107 248 107 l 288 -7 q 87 95 157 -7 q 52 195 52 146 m 347 -7 l 347 107 q 454 165 420 107 q 467 209 467 187 l 467 732 l 582 732 l 582 195 q 524 69 582 132 q 347 -7 453 -5 z "},"_":{"ha":707,"x_min":47,"x_max":658,"o":"m 47 -183 l 658 -183 l 658 -278 l 47 -278 l 47 -183 z "},"­":{"ha":510,"x_min":34,"x_max":463,"o":"m 34 345 l 34 453 l 463 453 l 463 345 l 34 345 z "},"µ":{"ha":674,"x_min":56,"x_max":620,"o":"m 56 0 l 164 0 l 164 301 q 281 273 233 273 l 281 377 q 172 414 203 377 q 164 435 164 426 l 164 947 l 56 947 l 56 0 m 338 273 q 500 320 437 274 q 620 275 547 275 l 620 380 q 564 420 568 380 q 563 435 563 427 l 563 949 l 456 949 l 456 435 q 400 385 456 403 q 338 377 370 377 l 338 273 z "},"Ģ":{"ha":693,"x_min":53,"x_max":643,"o":"m 258 -296 l 308 -90 l 418 -90 l 368 -296 l 258 -296 m 53 260 l 53 711 q 122 868 58 793 q 321 956 202 956 l 321 840 q 197 769 240 838 q 172 689 172 730 l 172 260 q 267 125 172 168 q 321 110 300 110 l 321 -7 q 161 50 240 -7 q 53 260 54 129 m 388 -7 l 388 110 q 476 156 429 110 q 524 258 522 203 l 524 369 l 388 369 l 388 479 l 643 479 l 643 239 q 559 75 643 156 q 388 -7 473 -5 m 388 840 l 388 956 q 572 869 491 958 q 643 700 643 791 l 528 658 q 528 662 528 659 q 528 668 528 665 q 527 675 528 671 q 526 684 526 680 q 526 690 526 688 l 526 693 q 437 827 519 788 q 388 840 411 838 z "},"ģ":{"ha":602,"x_min":34,"x_max":549,"o":"m 300 822 l 350 1028 l 460 1028 l 378 822 l 300 822 m 34 -251 l 62 -145 l 317 -145 q 429 -85 393 -142 q 439 -52 439 -66 l 439 46 q 328 4 384 7 l 328 109 q 423 159 388 109 q 439 205 439 182 l 439 537 q 382 618 439 589 q 328 632 355 632 l 328 739 q 435 701 389 739 q 439 699 438 700 l 439 739 l 549 739 l 549 -52 q 496 -172 549 -110 q 332 -251 430 -250 l 34 -251 m 47 203 l 47 543 q 104 667 49 606 q 269 739 171 738 l 269 632 q 168 575 202 632 q 156 538 156 555 l 156 205 q 198 133 156 164 q 269 111 229 111 l 269 4 q 79 110 144 5 q 47 203 47 160 z "},"Ķ":{"ha":665,"x_min":56,"x_max":640,"o":"m 229 -289 l 279 -83 l 389 -83 l 339 -289 l 229 -289 m 56 0 l 56 949 l 174 949 l 174 0 l 56 0 m 232 463 l 510 949 l 635 949 l 357 463 l 640 0 l 517 0 l 232 463 z "},"ķ":{"ha":648,"x_min":56,"x_max":621,"o":"m 220 -289 l 270 -83 l 380 -83 l 330 -289 l 220 -289 m 56 0 l 56 958 l 172 958 l 172 0 l 56 0 m 206 368 l 483 732 l 620 732 l 340 368 l 621 0 l 486 0 l 206 368 z "},"Ļ":{"ha":590,"x_min":56,"x_max":566,"o":"m 224 -289 l 274 -83 l 384 -83 l 334 -289 l 224 -289 m 56 0 l 56 949 l 174 949 l 174 117 l 566 117 l 566 0 l 56 0 z "},"ļ":{"ha":235,"x_min":16,"x_max":187,"o":"m 16 -294 l 66 -88 l 176 -88 l 126 -294 l 16 -294 m 66 0 l 66 958 l 187 958 l 187 0 l 66 0 z "},"Ņ":{"ha":718,"x_min":57,"x_max":661,"o":"m 271 -289 l 321 -83 l 431 -83 l 381 -289 l 271 -289 m 57 0 l 57 742 l 68 742 l 175 568 l 175 0 l 57 0 m 57 873 l 57 949 l 159 949 l 661 145 l 661 0 l 602 0 l 57 873 m 543 453 l 543 949 l 661 949 l 661 279 l 650 279 l 543 453 z "},"ņ":{"ha":633,"x_min":52,"x_max":582,"o":"m 229 -289 l 279 -83 l 389 -83 l 339 -289 l 229 -289 m 52 0 l 52 536 q 110 663 52 601 q 288 736 182 736 l 288 624 q 182 570 218 624 q 167 522 167 547 l 167 0 l 52 0 m 347 624 l 347 736 q 544 635 473 736 q 582 536 582 582 l 582 0 l 467 0 l 467 522 q 425 597 467 564 q 347 624 391 624 z "},"Ŗ":{"ha":688,"x_min":57,"x_max":652,"o":"m 266 -289 l 316 -83 l 426 -83 l 376 -289 l 266 -289 m 57 0 l 57 949 l 175 949 l 175 0 l 57 0 m 243 411 l 243 518 l 366 518 q 511 678 510 521 q 347 841 509 840 l 243 841 l 243 949 l 369 949 q 612 785 566 943 q 625 688 625 741 q 532 467 624 530 q 627 313 610 425 q 629 294 628 304 l 652 0 l 541 0 l 521 241 q 461 391 510 358 q 373 411 429 412 l 243 411 z "},"ŗ":{"ha":397,"x_min":8,"x_max":377,"o":"m 8 -289 l 58 -83 l 168 -83 l 118 -289 l 8 -289 m 57 0 l 57 734 l 172 734 l 172 633 q 278 722 208 693 q 353 736 316 736 l 377 736 l 350 625 q 217 545 275 624 q 172 416 172 483 l 172 0 l 57 0 z "},"Ş":{"ha":667,"x_min":34,"x_max":632,"o":"m 151 -251 l 151 -165 q 260 -104 232 -165 q 271 -54 271 -81 l 359 -54 q 286 -210 359 -155 q 151 -251 232 -251 m 34 214 l 142 252 q 186 159 151 195 q 255 114 222 122 l 286 106 l 286 -4 q 85 98 167 -4 q 34 214 35 161 m 45 693 q 171 913 45 840 q 286 949 233 949 l 286 838 q 197 788 239 833 q 159 692 159 746 q 278 567 159 609 q 369 541 308 557 q 458 514 433 524 q 614 377 581 464 q 632 279 632 334 q 541 75 632 161 q 354 -4 458 -4 l 354 106 q 461 159 410 109 q 514 279 513 212 q 382 418 514 374 q 296 441 354 427 q 212 465 233 456 q 64 590 96 513 q 45 693 45 635 m 354 838 l 354 949 q 551 845 472 949 q 594 750 590 792 l 484 713 q 376 834 465 808 q 354 838 354 838 z "},"ş":{"ha":587,"x_min":27,"x_max":560,"o":"m 194 -251 l 194 -165 q 304 -104 275 -165 q 315 -54 315 -81 l 403 -54 q 330 -210 403 -155 q 194 -251 275 -251 m 27 193 l 134 213 q 198 117 134 152 q 258 100 229 102 l 258 -7 q 61 88 126 -7 q 27 193 27 138 m 34 526 q 146 709 34 650 q 255 738 201 738 l 255 632 q 159 581 193 632 q 141 526 141 555 q 209 456 141 483 q 408 399 260 434 q 540 308 500 380 q 560 222 560 270 q 456 30 560 92 q 316 -7 395 -7 l 316 100 q 420 144 378 100 q 450 217 450 175 q 343 304 450 271 q 256 327 316 312 q 164 351 193 342 q 39 475 61 392 q 34 526 34 499 m 315 631 l 315 738 q 503 651 431 738 q 548 534 548 595 l 441 517 q 359 621 441 591 q 315 631 335 631 z "},"Ţ":{"ha":635,"x_min":24,"x_max":612,"o":"m 149 -251 l 149 -165 q 259 -104 231 -165 q 270 -54 270 -81 l 358 -54 q 285 -210 358 -155 q 149 -251 231 -251 m 24 834 l 24 949 l 612 949 l 612 834 l 377 834 l 377 0 l 258 0 l 258 834 l 24 834 z "},"ţ":{"ha":388,"x_min":23,"x_max":381,"o":"m 171 -248 l 171 -163 q 281 -102 252 -163 q 292 -52 292 -79 l 380 -52 q 307 -208 380 -152 q 171 -248 252 -248 m 23 616 l 23 726 l 113 726 l 113 960 l 228 960 l 228 726 l 315 726 l 315 614 l 228 614 l 228 225 q 307 118 228 129 q 336 115 321 115 l 355 115 l 381 0 l 332 0 q 127 125 165 1 q 114 239 114 171 l 113 616 l 23 616 z "},"Ș":{"ha":667,"x_min":34,"x_max":632,"o":"m 227 -293 l 277 -87 l 387 -87 l 336 -293 l 227 -293 m 34 214 l 142 252 q 186 159 151 195 q 255 114 222 122 l 286 106 l 286 -4 q 85 98 167 -4 q 34 214 35 161 m 45 693 q 171 913 45 840 q 286 949 233 949 l 286 838 q 197 788 239 833 q 159 692 159 746 q 278 567 159 609 q 369 541 308 557 q 458 514 433 524 q 614 377 581 464 q 632 279 632 334 q 541 75 632 161 q 354 -4 458 -4 l 354 106 q 461 159 410 109 q 514 279 513 212 q 382 418 514 374 q 296 441 354 427 q 212 465 233 456 q 64 590 96 513 q 45 693 45 635 m 354 838 l 354 949 q 551 845 472 949 q 594 750 590 792 l 484 713 q 376 834 465 808 q 354 838 354 838 z "},"ș":{"ha":587,"x_min":27,"x_max":560,"o":"m 189 -296 l 239 -90 l 349 -90 l 298 -296 l 189 -296 m 27 193 l 134 213 q 198 117 134 152 q 258 100 229 102 l 258 -7 q 61 88 126 -7 q 27 193 27 138 m 34 526 q 146 709 34 650 q 255 738 201 738 l 255 632 q 159 581 193 632 q 141 526 141 555 q 209 456 141 483 q 408 399 260 434 q 540 308 500 380 q 560 222 560 270 q 456 30 560 92 q 316 -7 395 -7 l 316 100 q 420 144 378 100 q 450 217 450 175 q 343 304 450 271 q 256 327 316 312 q 164 351 193 342 q 39 475 61 392 q 34 526 34 499 m 315 631 l 315 738 q 503 651 431 738 q 548 534 548 595 l 441 517 q 359 621 441 591 q 315 631 335 631 z "},"Ț":{"ha":635,"x_min":24,"x_max":612,"o":"m 213 -289 l 263 -83 l 373 -83 l 323 -289 l 213 -289 m 24 834 l 24 949 l 612 949 l 612 834 l 377 834 l 377 0 l 258 0 l 258 834 l 24 834 z "},"ț":{"ha":388,"x_min":23,"x_max":381,"o":"m 213 -289 l 263 -83 l 373 -83 l 323 -289 l 213 -289 m 23 616 l 23 726 l 113 726 l 113 960 l 228 960 l 228 726 l 315 726 l 315 614 l 228 614 l 228 225 q 307 118 228 129 q 336 115 321 115 l 355 115 l 381 0 l 332 0 q 127 125 165 1 q 114 239 114 171 l 113 616 l 23 616 z "},"ˉ":{"ha":564,"x_min":68,"x_max":496,"o":"m 68 716 l 68 789 l 496 789 l 496 716 l 68 716 z "},"ℓ":{"ha":258,"x_min":76,"x_max":297,"o":"m 76 244 l 76 948 l 189 948 l 189 244 q 274 113 189 133 q 297 110 286 110 l 297 -8 q 142 58 206 -8 q 76 244 76 127 z "},"Ω":{"ha":604,"x_min":34,"x_max":581,"o":"m 34 -1 l 34 62 l 122 62 q 56 182 62 114 q 54 193 54 187 l 54 511 q 111 635 54 576 q 277 701 178 701 l 277 600 q 168 534 198 600 q 159 494 159 513 l 159 210 q 205 126 159 160 q 277 103 237 103 l 277 -1 l 34 -1 m 340 -1 l 340 103 q 445 168 416 103 q 454 209 454 189 l 454 494 q 410 578 454 545 q 340 600 380 600 l 340 701 q 530 602 467 701 q 560 511 560 555 l 560 193 q 510 79 560 136 q 494 62 500 69 l 581 62 l 581 -1 l 340 -1 z "},"∆":{"ha":754,"x_min":73,"x_max":681,"o":"m 73 0 l 288 810 l 300 810 l 345 633 l 205 109 l 544 109 l 321 954 l 427 954 l 681 0 l 73 0 z "},"∕":{"ha":693,"x_min":16,"x_max":677,"o":"m 16 -1 l 602 951 l 677 951 l 95 -1 l 16 -1 z "},"∙":{"ha":339,"x_min":47,"x_max":199,"o":"m 47 570 q 91 639 47 618 q 123 647 107 647 q 193 602 171 647 q 199 570 199 586 q 157 503 199 524 q 123 495 140 495 q 56 537 76 495 q 47 570 47 553 z "},"圓":{"ha":1143,"x_min":68,"x_max":1077,"o":"m 68 662 l 68 947 l 117 947 l 117 829 l 137 829 l 137 781 l 117 781 l 117 662 l 68 662 m 159 781 l 159 829 l 180 829 l 180 947 l 229 947 l 229 662 l 180 662 l 180 781 l 159 781 m 269 662 l 269 947 l 317 947 l 317 662 l 269 662 m 336 822 l 391 947 l 439 947 l 385 822 l 441 662 l 392 662 l 336 822 m 479 214 l 586 252 q 631 159 595 195 q 699 114 667 122 l 730 106 l 730 -64 l 663 -64 l 663 8 q 507 130 564 35 q 479 214 480 176 m 490 693 q 616 910 490 837 q 663 933 639 925 l 663 1017 l 730 1017 l 730 838 q 642 788 682 833 q 604 692 604 746 q 715 575 604 612 q 730 570 723 572 l 730 442 q 656 465 671 458 q 509 590 541 513 q 490 693 490 635 m 798 -64 l 798 106 q 905 159 853 109 q 958 279 956 212 q 840 411 958 369 q 798 423 821 416 l 798 547 q 903 514 884 522 q 1059 377 1025 464 q 1077 279 1077 334 q 985 76 1077 163 q 864 7 930 26 l 864 -64 l 798 -64 m 798 838 l 798 1017 l 864 1017 l 864 936 q 1016 807 959 906 q 1039 750 1035 773 l 928 713 q 818 834 906 808 q 798 838 798 838 z "},"ų":{"ha":633,"x_min":52,"x_max":582,"o":"m 484 -251 q 293 -141 343 -251 q 275 -54 275 -99 l 363 -54 q 438 -159 363 -136 q 484 -165 461 -165 l 484 -251 m 52 195 l 52 732 l 167 732 l 167 209 q 216 127 167 160 q 288 107 248 107 l 288 -7 q 87 95 157 -7 q 52 195 52 146 m 347 -7 l 347 107 q 454 165 420 107 q 467 209 467 187 l 467 732 l 582 732 l 582 195 q 524 69 582 132 q 347 -7 453 -5 z "},"ů":{"ha":633,"x_min":52,"x_max":582,"o":"m 208 945 q 263 1042 208 1010 q 317 1055 289 1055 q 414 1000 382 1055 q 427 945 427 974 q 372 849 427 880 q 317 836 346 836 q 221 891 252 836 q 208 945 208 917 m 274 945 q 304 903 274 913 q 317 902 312 902 q 359 932 350 902 q 361 945 361 940 q 331 987 361 978 q 317 989 323 989 q 275 959 285 989 q 274 945 274 951 m 52 195 l 52 732 l 167 732 l 167 209 q 216 127 167 160 q 288 107 248 107 l 288 -7 q 87 95 157 -7 q 52 195 52 146 m 347 -7 l 347 107 q 454 165 420 107 q 467 209 467 187 l 467 732 l 582 732 l 582 195 q 524 69 582 132 q 347 -7 453 -5 z "},"v":{"ha":572,"x_min":12,"x_max":562,"o":"m 12 734 l 138 734 l 351 110 l 313 0 l 251 0 l 12 734 m 311 377 l 434 734 l 562 734 l 384 212 l 368 212 l 311 377 z "},"ඃ":{"ha":524,"x_min":42,"x_max":481,"o":"m 296 -9 l 296 87 q 376 145 358 87 q 380 175 380 160 q 332 258 380 236 q 296 264 315 264 l 296 357 l 315 357 q 463 263 419 357 q 481 175 481 221 q 414 22 481 75 q 315 -9 370 -9 l 296 -9 m 209 -9 q 61 85 104 -9 q 42 175 42 127 q 111 326 42 274 q 209 357 153 357 l 228 357 l 228 264 q 148 205 165 264 q 144 175 144 190 q 190 95 144 118 q 228 87 208 87 l 228 -9 l 209 -9 m 296 404 l 296 500 q 376 559 358 500 q 380 589 380 574 q 332 671 380 650 q 296 678 315 678 l 296 770 l 315 770 q 463 677 419 770 q 481 589 481 635 q 414 435 481 488 q 315 404 370 404 l 296 404 m 209 404 q 61 499 104 404 q 42 589 42 541 q 111 739 42 688 q 209 770 153 770 l 228 770 l 228 678 q 148 618 165 678 q 144 589 144 604 q 190 509 144 532 q 228 500 208 500 l 228 404 l 209 404 z "},"w":{"ha":981,"x_min":12,"x_max":968,"o":"m 12 734 l 252 1 l 315 1 l 351 111 l 138 734 l 12 734 m 311 377 l 368 213 l 384 213 l 491 541 l 667 1 l 730 1 l 766 111 l 553 734 l 427 734 l 311 377 m 726 377 l 783 213 l 799 213 l 968 734 l 842 734 l 726 377 z "},"x":{"ha":537,"x_min":11,"x_max":526,"o":"m 11 0 l 203 372 l 16 734 l 132 734 l 269 491 l 406 734 l 522 734 l 335 372 l 526 0 l 411 0 l 269 255 l 126 0 l 11 0 z "},"y":{"ha":553,"x_min":7,"x_max":549,"o":"m 7 734 l 127 734 l 334 160 l 194 -258 l 79 -258 l 212 161 l 7 734 m 307 419 l 430 734 l 549 734 l 369 260 l 357 260 l 307 419 z "},"ý":{"ha":553,"x_min":7,"x_max":549,"o":"m 279 821 l 330 1027 l 439 1027 l 358 821 l 279 821 m 7 734 l 127 734 l 334 160 l 194 -258 l 79 -258 l 212 161 l 7 734 m 307 419 l 430 734 l 549 734 l 369 260 l 357 260 l 307 419 z "},"ÿ":{"ha":553,"x_min":7,"x_max":549,"o":"m 119 888 q 160 951 119 932 q 187 956 174 956 q 250 916 232 956 q 255 888 255 902 q 214 826 255 844 q 187 821 201 821 q 125 861 142 821 q 119 888 119 875 m 300 888 q 339 949 300 930 q 369 956 354 956 q 430 916 412 956 q 435 888 435 902 q 396 826 435 844 q 369 821 382 821 q 305 861 323 821 q 300 888 300 875 m 7 734 l 127 734 l 334 160 l 194 -258 l 79 -258 l 212 161 l 7 734 m 307 419 l 430 734 l 549 734 l 369 260 l 357 260 l 307 419 z "},"¥":{"ha":612,"x_min":26,"x_max":594,"o":"m 254 0 l 370 0 l 370 262 l 594 262 l 594 324 l 370 324 l 370 358 l 382 397 l 594 397 l 594 460 l 403 460 l 560 947 l 444 947 l 313 556 l 180 947 l 64 947 l 221 460 l 26 460 l 26 397 l 241 397 l 254 359 l 254 324 l 26 324 l 26 262 l 254 262 l 254 0 z "},"z":{"ha":502,"x_min":41,"x_max":461,"o":"m 41 0 l 41 110 l 334 623 l 41 623 l 41 732 l 461 732 l 461 627 l 171 111 l 461 111 l 461 0 l 41 0 z "},"ź":{"ha":502,"x_min":41,"x_max":461,"o":"m 212 815 l 262 1021 l 372 1021 l 290 815 l 212 815 m 41 0 l 41 110 l 334 623 l 41 623 l 41 732 l 461 732 l 461 627 l 171 111 l 461 111 l 461 0 l 41 0 z "},"ž":{"ha":502,"x_min":41,"x_max":461,"o":"m 117 1021 l 194 1021 l 252 903 l 309 1021 l 387 1021 l 285 815 l 220 815 l 117 1021 m 41 0 l 41 110 l 334 623 l 41 623 l 41 732 l 461 732 l 461 627 l 171 111 l 461 111 l 461 0 l 41 0 z "},"ż":{"ha":502,"x_min":41,"x_max":461,"o":"m 182 884 q 224 949 182 932 q 251 955 237 955 q 315 911 297 955 q 320 884 320 898 q 279 821 320 838 q 251 815 264 815 q 187 856 205 815 q 182 884 182 871 m 41 0 l 41 110 l 334 623 l 41 623 l 41 732 l 461 732 l 461 627 l 171 111 l 461 111 l 461 0 l 41 0 z "},"‍":{"ha":0,"x_min":-244,"x_max":240,"o":"m -53 7 l 53 7 l 53 758 l 187 663 l 239 734 l 76 849 l 240 967 l 189 1035 l 0 902 l -189 1035 l -244 967 l -76 849 l -240 734 l -183 663 l -53 757 l -53 7 z "},"‌":{"ha":0,"x_min":-54,"x_max":52,"o":"m -54 5 l -54 1015 l 52 1015 l 52 5 l -54 5 z "}}}
